<svg width="191" height="49" viewBox="0 0 191 49" fill="none" xmlns="http://www.w3.org/2000/svg">
<path fill-rule="evenodd" clip-rule="evenodd" d="M10.1749 24.1811L10.1688 24.2408L10.1512 24.4166C10.1359 24.5698 10.114 24.7921 10.0878 25.0669C10.0352 25.6167 9.96513 26.3751 9.89513 27.2102C9.88796 27.2958 9.88081 27.3819 9.8737 27.4685C10.4978 26.9763 11.1431 26.4626 11.7763 25.9555C12.9023 25.0538 13.9586 24.1981 14.7338 23.5675C15.1212 23.2524 15.4381 22.9937 15.6579 22.814L15.9992 22.5346L17.5395 24C17.5395 24 12.8683 27.8332 9.67529 30.2916C8.71038 31.0345 7.88047 31.6519 7.35526 32C7.35526 31.2892 7.40101 30.3358 7.46648 29.3352C7.54161 28.1871 7.64271 26.977 7.7305 26C7.83526 24.834 7.92105 24 7.92105 24H3.39474C1.51988 24 0 22.6569 0 21V3C0 1.34315 1.51988 0 3.39474 0H39.6053C41.4801 0 43 1.34315 43 3V21C43 22.6569 41.4801 24 39.6053 24H17.5395L15.9992 22.5346L16.6508 22H39.6053C40.2302 22 40.7368 21.5523 40.7368 21V3C40.7368 2.44772 40.2302 2 39.6053 2H3.39474C2.76978 2 2.26316 2.44772 2.26316 3V21C2.26316 21.5523 2.76978 22 3.39474 22H10.3993L10.1749 24.1811Z" fill="#FCE001"/>
<rect x="24" y="19" width="39" height="21" fill="white"/>
<path d="M7.94486 8.91085L8.91905 10.8062L11.1045 10.8267L9.54488 12.31L10.2001 14.3299L8.26205 13.3513L6.48161 14.5792L6.8434 12.4911L5.08779 11.2301L7.24944 10.9181L7.94486 8.91085Z" fill="#FCE001"/>
<path d="M14.3575 8.91085L15.3316 10.8062L17.517 10.8267L15.9575 12.31L16.6127 14.3299L14.6747 13.3513L12.8942 14.5792L13.256 12.4911L11.5004 11.2301L13.662 10.9181L14.3575 8.91085Z" fill="#FCE001"/>
<path d="M20.7703 8.91085L21.7445 10.8062L23.9299 10.8267L22.3703 12.31L23.0256 14.3299L21.0875 13.3513L19.3071 14.5792L19.6688 12.4911L17.9132 11.2301L20.0749 10.9181L20.7703 8.91085Z" fill="#FCE001"/>
<path d="M27.1829 8.91085L28.1571 10.8062L30.3425 10.8267L28.7829 12.31L29.4382 14.3299L27.5001 13.3513L25.7196 14.5792L26.0814 12.4911L24.3258 11.2301L26.4875 10.9181L27.1829 8.91085Z" fill="#FCE001"/>
<path fill-rule="evenodd" clip-rule="evenodd" d="M34.5699 10.8062L33.5957 8.91085L32.9003 10.9181L30.7387 11.2301L32.4943 12.4911L32.1325 14.5792L33.9129 13.3513L35.851 14.3299L35.1958 12.31L36.7553 10.8267L34.5699 10.8062ZM35.9046 11.159L34.3514 11.1444L33.6591 9.79739L33.1648 11.224L31.6285 11.4457L32.8762 12.3419L32.6191 13.8259L33.8845 12.9533L35.2619 13.6488L34.7962 12.2132L35.9046 11.159Z" fill="#FCE001"/>
<path d="M30.0083 26.2016L30.9825 28.097L33.1679 28.1174L31.6084 29.6008L32.2636 31.6207L30.3255 30.6421L28.5451 31.87L28.9069 29.7819L27.1513 28.5208L29.3129 28.2089L30.0083 26.2016Z" fill="#FCE001"/>
<path d="M36.4209 26.2016L37.3951 28.097L39.5805 28.1174L38.021 29.6008L38.6762 31.6207L36.7381 30.6421L34.9577 31.87L35.3195 29.7819L33.5639 28.5208L35.7255 28.2089L36.4209 26.2016Z" fill="#FCE001"/>
<path d="M42.8338 26.2016L43.808 28.097L45.9934 28.1174L44.4338 29.6008L45.089 31.6207L43.151 30.6421L41.3705 31.87L41.7323 29.7819L39.9767 28.5208L42.1384 28.2089L42.8338 26.2016Z" fill="#FCE001"/>
<path d="M49.2464 26.2016L50.2206 28.097L52.406 28.1174L50.8464 29.6008L51.5016 31.6207L49.5636 30.6421L47.7831 31.87L48.1449 29.7819L46.3893 28.5208L48.551 28.2089L49.2464 26.2016Z" fill="#FCE001"/>
<path d="M56.0083 26.2016L56.9825 28.097L59.1679 28.1174L57.6084 29.6008L58.2636 31.6207L56.3255 30.6421L54.5451 31.87L54.9069 29.7819L53.1513 28.5208L55.3129 28.2089L56.0083 26.2016Z" fill="#FCE001"/>
<path fill-rule="evenodd" clip-rule="evenodd" d="M54.8251 41.1811L54.8312 41.2408L54.8488 41.4166C54.8641 41.5698 54.886 41.7921 54.9122 42.0669C54.9648 42.6167 55.0349 43.3751 55.1049 44.2102C55.112 44.2958 55.1192 44.3819 55.1263 44.4685C54.5022 43.9763 53.8569 43.4626 53.2237 42.9555C52.0977 42.0538 51.0414 41.1981 50.2662 40.5675C49.8788 40.2524 49.5619 39.9937 49.3421 39.814L49.0008 39.5346L47.4605 41C47.4605 41 52.1317 44.8332 55.3247 47.2916C56.2896 48.0345 57.1195 48.6519 57.6447 49C57.6447 48.2892 57.599 47.3358 57.5335 46.3352C57.4584 45.1871 57.3573 43.977 57.2695 43C57.1647 41.834 57.0789 41 57.0789 41H61.6053C63.4801 41 65 39.6569 65 38V20C65 18.3431 63.4801 17 61.6053 17H25.3947C23.5199 17 22 18.3431 22 20V38C22 39.6569 23.5199 41 25.3947 41H47.4605L49.0008 39.5346L48.3492 39H25.3947C24.7698 39 24.2632 38.5523 24.2632 38V20C24.2632 19.4477 24.7698 19 25.3947 19H61.6053C62.2302 19 62.7368 19.4477 62.7368 20V38C62.7368 38.5523 62.2302 39 61.6053 39H54.6007L54.8251 41.1811Z" fill="#FCE001"/>
<path d="M86.0088 32.5039C83.2451 32.5039 81.0527 31.8496 79.4316 30.541C77.8105 29.2227 77 27.4941 77 25.3555C77 24.75 77.0635 24.1494 77.1904 23.5537L79.8564 11H86.0674L83.416 23.4951C83.3281 23.9053 83.2842 24.2812 83.2842 24.623C83.2842 25.4434 83.5674 26.0928 84.1338 26.5713C84.71 27.04 85.4229 27.2744 86.2725 27.2744C88.0889 27.2744 89.2217 26.2295 89.6709 24.1396L92.4395 11H98.6504L95.5889 25.5166C95.1299 27.6846 94.0312 29.3936 92.293 30.6436C90.5547 31.8838 88.46 32.5039 86.0088 32.5039Z" fill="#151522"/>
<path d="M107.819 27.8018C108.776 27.8018 109.592 27.3184 110.265 26.3516C110.949 25.3848 111.291 24.2129 111.291 22.8359C111.291 22.0254 111.086 21.3711 110.676 20.873C110.265 20.375 109.719 20.126 109.035 20.126C108.107 20.126 107.297 20.624 106.603 21.6201C105.91 22.6064 105.563 23.7637 105.563 25.0918C105.563 25.9121 105.768 26.5713 106.179 27.0693C106.589 27.5576 107.136 27.8018 107.819 27.8018ZM102.883 37.3086H97.0818L101.623 15.9658H107.277L106.794 18.2217H106.911C108.141 16.5615 109.816 15.7314 111.935 15.7314C113.596 15.7314 114.904 16.2783 115.861 17.3721C116.818 18.4658 117.297 19.96 117.297 21.8545C117.297 23.8467 116.95 25.6436 116.257 27.2451C115.573 28.8467 114.616 30.1016 113.386 31.0098C112.165 31.918 110.793 32.3721 109.269 32.3721C108.127 32.3721 107.16 32.1035 106.369 31.5664C105.588 31.0293 105.036 30.2578 104.714 29.252H104.611L102.883 37.3086Z" fill="#151522"/>
<path d="M127.652 20.7998H130.421C131.446 20.7998 132.266 20.5264 132.881 19.9795C133.497 19.4229 133.804 18.7051 133.804 17.8262C133.804 16.332 132.921 15.585 131.153 15.585H128.78L127.652 20.7998ZM123.536 11H133.043C135.22 11 136.929 11.5908 138.17 12.7725C139.41 13.9443 140.03 15.458 140.03 17.3135C140.03 18.8564 139.595 20.2822 138.726 21.5908C137.857 22.8896 136.636 23.8467 135.064 24.4619L137.408 32.1377H130.933L128.941 25.0479H126.758L125.25 32.1377H119.039L123.536 11Z" fill="#151522"/>
<path d="M148.012 28.4463C148.647 28.4463 149.218 28.2656 149.726 27.9043C150.234 27.5332 150.546 27.0742 150.663 26.5273L150.883 25.4873L148.378 25.5459C147.714 25.5654 147.182 25.7217 146.782 26.0146C146.381 26.2979 146.181 26.6689 146.181 27.1279C146.181 27.5186 146.347 27.8359 146.679 28.0801C147.021 28.3242 147.465 28.4463 148.012 28.4463ZM145.302 32.3721C143.954 32.3721 142.831 31.957 141.933 31.127C141.044 30.2969 140.6 29.252 140.6 27.9922C140.6 26.3125 141.259 24.9795 142.578 23.9932C143.906 22.9971 145.722 22.4746 148.027 22.4258L151.557 22.3525L151.747 21.415C151.787 21.1904 151.806 21.0391 151.806 20.9609C151.806 20.5898 151.625 20.292 151.264 20.0674C150.903 19.833 150.429 19.7158 149.843 19.7158C149.296 19.7158 148.832 19.8281 148.452 20.0527C148.071 20.2676 147.807 20.585 147.661 21.0049H142.431C142.753 19.3252 143.618 17.9971 145.024 17.0205C146.43 16.0439 148.173 15.5557 150.253 15.5557C152.402 15.5557 154.14 16.0098 155.468 16.918C156.796 17.8262 157.46 19.0176 157.46 20.4922C157.46 20.9707 157.416 21.4053 157.329 21.7959L155.131 32.1377H149.492L149.902 30.2334H149.785C149.384 30.8877 148.784 31.4102 147.983 31.8008C147.192 32.1816 146.298 32.3721 145.302 32.3721Z" fill="#151522"/>
<path d="M166.937 32.3721C165.12 32.3721 163.719 32.0645 162.733 31.4492C161.746 30.834 161.253 29.9307 161.253 28.7393C161.253 28.1338 161.312 27.5381 161.429 26.9521L162.733 20.6973H160.316L161.253 16.4492H163.655L164.476 12.5967H170.277L169.456 16.4492H172.62L171.712 20.6973H168.563L167.332 26.4541C167.283 26.6201 167.259 26.835 167.259 27.0986C167.259 27.5186 167.405 27.8213 167.698 28.0068C167.991 28.1826 168.47 28.2705 169.134 28.2705C169.681 28.2705 170.032 28.2412 170.189 28.1826L169.31 32.167C168.802 32.3037 168.011 32.3721 166.937 32.3721Z" fill="#151522"/>
<path d="M179.709 22.1475H185.188C185.217 22.0791 185.231 21.9229 185.231 21.6787C185.231 21.0635 185.012 20.5605 184.572 20.1699C184.133 19.7695 183.566 19.5693 182.873 19.5693C182.121 19.5693 181.452 19.8086 180.866 20.2871C180.29 20.7559 179.904 21.376 179.709 22.1475ZM181.613 32.5332C179.279 32.5332 177.419 31.8789 176.032 30.5703C174.655 29.252 173.967 27.4404 173.967 25.1357C173.967 23.2998 174.343 21.6592 175.095 20.2139C175.856 18.7588 176.936 17.6211 178.332 16.8008C179.729 15.9707 181.33 15.5557 183.137 15.5557C185.314 15.5557 187.082 16.1953 188.439 17.4746C189.807 18.7441 190.49 20.4287 190.49 22.5283C190.49 23.6025 190.393 24.5303 190.197 25.3115H179.182C179.152 25.4678 179.138 25.624 179.138 25.7803C179.138 26.5518 179.387 27.1914 179.885 27.6992C180.383 28.1973 181.057 28.4463 181.906 28.4463C182.541 28.4463 183.088 28.2998 183.547 28.0068C184.006 27.7139 184.304 27.333 184.44 26.8643H189.831C189.411 28.583 188.469 29.96 187.004 30.9951C185.539 32.0205 183.742 32.5332 181.613 32.5332Z" fill="#151522"/>
</svg>
