<svg width="22" height="25" viewBox="0 0 22 25" fill="none" xmlns="http://www.w3.org/2000/svg">
<path d="M11 4C9.14348 4 7.36301 4.7375 6.05025 6.05025C4.7375 7.36301 4 9.14348 4 11V16C4 16.7956 3.68393 17.5587 3.12132 18.1213C2.55871 18.6839 1.79565 19 1 19H21C20.2044 19 19.4413 18.6839 18.8787 18.1213C18.3161 17.5587 18 16.7956 18 16V11C18 9.14348 17.2625 7.36301 15.9497 6.05025C14.637 4.7375 12.8565 4 11 4ZM11 4V1M12.73 23C12.5542 23.3031 12.3018 23.5547 11.9982 23.7295C11.6946 23.9044 11.3504 23.9965 11 23.9965C10.6496 23.9965 10.3054 23.9044 10.0018 23.7295C9.69816 23.5547 9.44581 23.3031 9.27 23" stroke="#999999" stroke-linecap="round" stroke-linejoin="round"/>
</svg>
