<svg width="24" height="20" viewBox="0 0 24 20" fill="none" xmlns="http://www.w3.org/2000/svg">
<path d="M20.9062 1.82292H18.75V0.729167C18.75 0.326484 18.4142 0 18 0C17.5858 0 17.25 0.326484 17.25 0.729167V1.82292H6.75V0.729167C6.75 0.326484 6.41423 0 6 0C5.58577 0 5.25 0.326484 5.25 0.729167V1.82292H3.09375C1.38783 1.82292 0 3.17219 0 4.83073V16.9922C0 18.6507 1.38783 20 3.09375 20H20.9062C22.6122 20 24 18.6507 24 16.9922V4.83073C24 3.17219 22.6122 1.82292 20.9062 1.82292ZM22.5 16.9922C22.5 17.848 21.7865 18.5417 20.9062 18.5417H3.09375C2.21353 18.5417 1.5 17.848 1.5 16.9922V7.41536C1.5 7.28954 1.60495 7.1875 1.73438 7.1875H22.2656C22.395 7.1875 22.5 7.28954 22.5 7.41536V16.9922Z" fill="#999999"/>
<path d="M11.9165 9.50928C10.6377 9.50928 9.69727 10.4277 9.69727 11.6934V11.7021C9.69727 12.9194 10.585 13.8247 11.7759 13.8247C12.6328 13.8247 13.2305 13.3633 13.4634 12.8447H13.5469C13.5293 14.2334 13.0679 15.4419 11.8726 15.4419C11.231 15.4419 10.7871 15.1123 10.5938 14.5806L10.5762 14.5322H9.78076L9.79395 14.5894C10.0093 15.5254 10.8003 16.1494 11.8638 16.1494C13.4019 16.1494 14.3027 14.8838 14.3027 12.7217V12.7129C14.3027 10.3267 13.0767 9.50928 11.9165 9.50928ZM11.9121 13.1348C11.0903 13.1348 10.4927 12.5283 10.4927 11.6846V11.6758C10.4927 10.854 11.1299 10.208 11.9253 10.208C12.7295 10.208 13.3579 10.8672 13.3579 11.7021V11.7065C13.3579 12.5327 12.7339 13.1348 11.9121 13.1348Z" fill="#999999"/>
</svg>
