<svg width="23" height="18" viewBox="0 0 23 18" fill="none" xmlns="http://www.w3.org/2000/svg">
<path d="M22 4C21.4477 4 21 4.292 21 4.65217V13.3478C21 13.708 21.4477 14 22 14C22.5523 14 23 13.708 23 13.3478V4.65217C23 4.292 22.5523 4 22 4Z" fill="#999999"/>
<path d="M19 2C18.4477 2 18 2.28492 18 2.63636V15.3636C18 15.7151 18.4477 16 19 16C19.5523 16 20 15.7151 20 15.3636V2.63636C20 2.28492 19.5523 2 19 2Z" fill="#999999"/>
<path d="M12.9231 0H0.615385C0.275528 0 0 0.279038 0 0.623224V14.8839C0 16.6021 1.38031 18 3.07692 18H15.3846C15.7245 18 16 17.721 16 17.3768V3.11612C16 1.39789 14.6197 0 12.9231 0ZM8 2.35227C9.69662 2.35227 11.0769 3.75017 11.0769 5.46839C11.0769 7.18662 9.69662 8.58452 8 8.58452C6.30338 8.58452 4.92308 7.18662 4.92308 5.46839C4.92308 3.75017 6.30338 2.35227 8 2.35227ZM12.6018 15.3889C12.4862 15.5515 12.3003 15.6477 12.1026 15.6477H3.89744C3.69965 15.6477 3.51385 15.5515 3.39819 15.3889C3.28254 15.2264 3.25108 15.0175 3.3136 14.8274L5.76252 9.84164C5.84633 9.58716 6.08149 9.41548 6.34635 9.41548H9.65365C9.91851 9.41548 10.1537 9.58716 10.2374 9.84164L12.6864 14.8274C12.7489 15.0175 12.7175 15.2264 12.6018 15.3889Z" fill="#999999"/>
</svg>
