<svg width="21" height="20" viewBox="0 0 21 20" fill="none" xmlns="http://www.w3.org/2000/svg">
<path fill-rule="evenodd" clip-rule="evenodd" d="M12.0103 1.87476C12.0103 2.91029 11.1708 3.74976 10.1353 3.74976C9.09975 3.74976 8.26028 2.91029 8.26028 1.87476C8.26028 0.839223 9.09975 -0.000244141 10.1353 -0.000244141C11.1708 -0.000244141 12.0103 0.839223 12.0103 1.87476ZM10.0202 4.99979C11.4146 4.99979 12.5799 3.95504 12.8757 2.56303C13.9245 2.81208 14.7122 3.80793 14.7122 4.99979V7.49982C14.7122 8.18891 14.1859 8.74984 13.5392 8.74984C12.8926 8.74984 12.3662 8.18891 12.3662 7.49982V6.2498H7.67418V7.49982C7.67418 8.18891 7.14781 8.74984 6.50116 8.74984C5.85452 8.74984 5.32815 8.18891 5.32815 7.49982V4.99979C5.32815 3.80793 6.11581 2.81208 7.16468 2.56303C7.46043 3.95504 8.62579 4.99979 10.0202 4.99979ZM16.0054 9.75598L18.0371 11.006C19.0057 11.6019 19.4212 12.8268 19.0991 13.9193C17.82 13.4962 16.3883 14.0493 15.6911 15.3362C14.9939 16.6231 15.2603 18.2209 16.2437 19.1898C15.5169 20.0333 14.3138 20.2623 13.3451 19.6664L11.3134 18.4163C10.7534 18.0718 10.5607 17.3056 10.884 16.7088C11.2074 16.112 11.9264 15.9067 12.4864 16.2512L13.5023 16.8762L15.8483 12.5461L14.8324 11.9211C14.2724 11.5765 14.0797 10.8103 14.4031 10.2135C14.7264 9.61674 15.4454 9.41143 16.0054 9.75598ZM9.15608 16.7088C8.83276 16.112 8.11373 15.9068 7.55373 16.2513L6.53786 16.8762L4.19183 12.5461L5.20769 11.9211C5.76774 11.5766 5.96036 10.8103 5.63707 10.2136C5.31375 9.61675 4.59472 9.41149 4.03472 9.756L2.00306 11.006C1.03439 11.6019 0.618914 12.8269 0.941025 13.9193C2.22014 13.4963 3.6519 14.0493 4.34909 15.3362C5.04629 16.6231 4.77988 18.2209 3.79651 19.1899C4.52328 20.0333 5.72641 20.2623 6.69509 19.6664L8.72674 18.4164C9.28675 18.0718 9.4794 17.3056 9.15608 16.7088ZM0.981003 15.2751C1.87025 14.7573 3.00722 15.0645 3.52062 15.9614C4.03399 16.8582 3.72934 18.0049 2.8401 18.5227C1.95094 19.0405 0.77257 18.7332 0.259248 17.8364C-0.254199 16.9396 0.0918411 15.7929 0.981003 15.2751ZM19.2597 15.2749C18.3705 14.7571 17.2335 15.0643 16.7201 15.9611C16.2067 16.8579 16.5114 18.0047 17.4006 18.5224C18.2898 19.0402 19.4682 18.7329 19.9815 17.8361C20.4949 16.9393 20.1489 15.7926 19.2597 15.2749Z" fill="#0084F4"/>
</svg>
