<svg width="22" height="18" viewBox="0 0 22 18" fill="none" xmlns="http://www.w3.org/2000/svg">
<path d="M17.4883 0H4.51172C2.0239 0 0 2.01099 0 4.48295V11.4068C0 13.3793 1.30333 15.0973 3.19194 15.6471L5.37093 17.8124C5.49194 17.9325 5.65576 18 5.8268 18C5.99767 18 6.16165 17.9325 6.2825 17.8124L8.28139 15.8261H17.4883C19.9761 15.8261 22 13.8151 22 11.3431V4.48295C22 2.01099 19.9761 0 17.4883 0ZM6.26303 9.04495C6.26303 8.69121 6.55156 8.40452 6.90756 8.40452H15.0924C15.4484 8.40452 15.737 8.69121 15.737 9.04495C15.737 9.39868 15.4484 9.68537 15.0924 9.68537H6.90756C6.55156 9.68537 6.26303 9.39868 6.26303 9.04495ZM15.0924 7.42155H6.90756C6.55156 7.42155 6.26303 7.13486 6.26303 6.78112C6.26303 6.42756 6.55156 6.1407 6.90756 6.1407H15.0924C15.4484 6.1407 15.737 6.42756 15.737 6.78112C15.737 7.13486 15.4484 7.42155 15.0924 7.42155Z" fill="#999999"/>
</svg>
