<svg width="20" height="10" viewBox="0 0 20 10" fill="none" xmlns="http://www.w3.org/2000/svg">
<path d="M5.35551 0.4765C5.12615 0.468919 4.90591 0.562929 4.7525 0.732753L0.666626 5.14213L4.7525 9.55151C4.93932 9.75924 5.22488 9.85174 5.4998 9.79109C5.77321 9.73044 5.99345 9.52725 6.07547 9.25887C6.15749 8.99048 6.08914 8.69936 5.89472 8.49617L3.50547 5.91847H18.5442C18.8252 5.92302 19.0849 5.77594 19.2262 5.53334C19.369 5.29225 19.369 4.99202 19.2262 4.75093C19.0849 4.50832 18.8252 4.36124 18.5442 4.36579H3.50547L5.89472 1.78809C6.10585 1.5652 6.1666 1.24071 6.04965 0.957165C5.93421 0.675134 5.66233 0.485597 5.35551 0.4765Z" fill="#0084F4"/>
</svg>
