<svg width="22" height="22" viewBox="0 0 22 22" fill="none" xmlns="http://www.w3.org/2000/svg">
<path fill-rule="evenodd" clip-rule="evenodd" d="M1.5 11.1428C1.5 5.89612 5.75329 1.64282 11 1.64282C16.2467 1.64282 20.5 5.89612 20.5 11.1428C20.5 16.3895 16.2467 20.6428 11 20.6428C5.75329 20.6428 1.5 16.3895 1.5 11.1428ZM11 0.642822C5.20101 0.642822 0.5 5.34383 0.5 11.1428C0.5 16.9418 5.20101 21.6428 11 21.6428C16.799 21.6428 21.5 16.9418 21.5 11.1428C21.5 5.34383 16.799 0.642822 11 0.642822ZM5.35355 8.78927C5.15829 8.59401 4.84171 8.59401 4.64645 8.78927C4.45118 8.98453 4.45118 9.30111 4.64645 9.49638L10.6464 15.4964C10.8417 15.6916 11.1583 15.6916 11.3536 15.4964L17.3536 9.49638C17.5488 9.30111 17.5488 8.98453 17.3536 8.78927C17.1583 8.59401 16.8417 8.59401 16.6464 8.78927L11 14.4357L5.35355 8.78927Z" fill="#0084F4"/>
</svg>
