<svg width="16" height="14" viewBox="0 0 16 14" fill="none" xmlns="http://www.w3.org/2000/svg">
<path d="M14.0758 2.6664H11.7626V2.42876C11.7626 1.36705 10.9009 0.505371 9.83918 0.505371H6.16039C5.09825 0.505371 4.237 1.36705 4.237 2.42876V2.6664H1.92339C0.861249 2.6664 0 3.52765 0 4.58979V11.5712C0 12.633 0.861249 13.4946 1.92339 13.4946H14.0766C15.1388 13.4946 16 12.633 16 11.5712V4.58979C15.9991 3.52722 15.1379 2.6664 14.0758 2.6664ZM7.99915 11.4994C5.99541 11.4994 4.36608 9.87012 4.36608 7.86638C4.36608 5.86307 5.99541 4.23332 7.99915 4.23332C10.0029 4.23332 11.6322 5.86264 11.6322 7.86638C11.6322 9.87012 10.0025 11.4994 7.99915 11.4994ZM9.92253 7.86638C9.92253 8.92595 9.05914 9.78977 7.99915 9.78977C6.93915 9.78977 6.07576 8.92595 6.07576 7.86638C6.07576 6.80638 6.93915 5.94299 7.99915 5.94299C9.05914 5.94299 9.92253 6.80638 9.92253 7.86638Z" fill="#0084F4"/>
</svg>
