<svg width="354" height="236" viewBox="0 0 354 236" fill="none" xmlns="http://www.w3.org/2000/svg">
<path d="M340.123 134.142C340.123 87.4144 302.269 49.5599 255.541 49.5599C253.794 49.5599 252.095 49.6071 250.396 49.7015C231.846 27.5175 203.904 13.3575 172.658 13.3575C124.938 13.3575 84.9128 46.3503 74.1984 90.7655C45.9728 98.6479 25.252 124.561 25.252 155.288C25.252 173.696 32.6624 190.358 44.6984 202.488H305.431C326.482 187.054 340.123 162.226 340.123 134.142Z" fill="#ECECF1"/>
<path d="M336.064 209.946C336.064 209.143 335.403 208.435 334.554 208.435H324.17C323.367 208.435 322.659 207.774 322.659 206.925C322.659 206.122 321.998 205.414 321.149 205.414H318.364C317.562 205.414 316.854 204.754 316.854 203.904C316.854 203.102 316.193 202.394 315.343 202.394H38.5625C37.7601 202.394 37.0521 203.054 37.0521 203.904C37.0521 204.706 36.3913 205.414 35.5417 205.414H32.7569C31.9545 205.414 31.2465 206.075 31.2465 206.925C31.2465 207.727 30.5857 208.435 29.7361 208.435H19.3521C18.5497 208.435 17.8417 209.096 17.8417 209.946C17.8417 210.748 18.5025 211.456 19.3521 211.456H113.752C114.554 211.456 115.262 212.117 115.262 212.966C115.262 213.769 114.602 214.477 113.752 214.477H61.1713C60.3689 214.477 59.6609 215.138 59.6609 215.987C59.6609 216.79 60.3217 217.498 61.1713 217.498H318.647C319.45 217.498 320.158 216.837 320.158 215.987C320.158 215.185 319.497 214.477 318.647 214.477H267.954C267.152 214.477 266.444 213.816 266.444 212.966C266.444 212.164 267.105 211.456 267.954 211.456H334.601C335.403 211.456 336.064 210.795 336.064 209.946Z" fill="#DDDDDD"/>
<path d="M51.3064 217.45H39.2232C38.4208 217.45 37.7128 216.79 37.7128 215.94C37.7128 215.138 38.3736 214.43 39.2232 214.43H51.3536C52.156 214.43 52.864 215.09 52.864 215.94C52.8168 216.742 52.156 217.45 51.3064 217.45Z" fill="#DDDDDD"/>
<path d="M209.049 160.858H206.736L206.123 166.427L208.577 165.058L209.049 160.858Z" fill="#422C4F"/>
<path d="M206.123 166.427L202.158 201.733H204.471L208.577 165.058L206.123 166.427Z" fill="#99A3B0"/>
<path d="M226.371 165.814L222.359 201.733H224.672L228.826 164.445L226.371 165.814Z" fill="#99A3B0"/>
<path d="M229.251 160.858H226.891L226.371 165.814L228.826 164.445L229.251 160.858Z" fill="#422C4F"/>
<path d="M237.983 160.858H235.623L236.189 165.908L238.407 164.728L237.983 160.858Z" fill="#422C4F"/>
<path d="M242.514 201.733L238.407 164.728L236.189 165.908L240.201 201.733H242.514Z" fill="#99A3B0"/>
<path d="M258.137 160.858H255.824L256.343 165.578L258.562 164.398L258.137 160.858Z" fill="#422C4F"/>
<path d="M262.715 201.733L258.562 164.398L256.343 165.578L260.402 201.733H262.715Z" fill="#99A3B0"/>
<path d="M205.084 160.858C207.208 156.279 211.739 153.353 216.79 153.353H232.13L240.437 99.3089L252.095 89.8689H259.506C268.757 89.8689 275.837 98.1289 274.421 107.286L267.435 152.881C266.727 157.507 262.762 160.905 258.09 160.905H205.084V160.858Z" fill="#797C99"/>
<path d="M197.674 160.858C199.798 156.279 204.329 153.353 209.379 153.353H224.719L231.799 107.286C233.357 97.2793 241.947 89.8689 252.095 89.8689C261.346 89.8689 268.426 98.1289 267.01 107.286L260.827 147.736C260.355 150.946 257.57 153.353 254.314 153.353H244.638C239.634 153.353 235.056 156.279 232.932 160.858H197.674Z" fill="#495375"/>
<path d="M219.716 89.916C221.982 91.0488 224.767 91.0016 226.985 89.8688C228.731 88.972 230.1 87.4144 230.808 85.6208H228.967C227.929 85.6208 227.079 84.7712 227.079 83.7328V77.408L218.961 79.532V84.1104C218.961 85.1488 218.111 85.9984 217.073 85.9984H215.94C216.695 87.6504 218.064 89.0664 219.716 89.916Z" fill="#EBA58E"/>
<path d="M227.127 77.408C225.758 82.3168 222.926 84.3936 219.008 82.9776V79.532L227.127 77.408Z" fill="#422C4F"/>
<path d="M211.409 70.328C208.199 67.9208 209.285 63.012 209.757 62.304C208.624 61.596 207.491 60.6992 206.831 59.5192C206.17 58.3864 205.887 56.9233 206.359 55.6489C206.831 54.3745 208.058 53.3833 209.379 53.4305C210.937 53.4777 212.164 54.7521 213.627 55.2241C215.138 55.7433 216.743 55.4601 218.3 55.0353C219.811 54.6577 221.368 54.1385 222.926 54.2329C224.247 54.3273 225.569 54.8937 226.56 55.7905C227.551 56.6872 228.212 57.9145 228.448 59.2361C229.723 58.6225 231.516 59.0944 232.271 60.2744C233.027 61.4072 232.932 62.8705 232.743 64.2393C232.413 66.6936 231.091 72.5464 230.525 74.9536L226.135 76.0392L211.409 70.328Z" fill="#422C4F"/>
<path d="M229.156 71.6025C229.581 70.9417 230.195 70.3753 230.95 70.1393C231.705 69.9033 232.602 70.0921 233.121 70.7057C233.546 71.2249 233.64 71.9329 233.546 72.5937C233.404 73.2545 233.121 73.8209 232.743 74.3873C232.413 74.9065 232.035 75.3785 231.611 75.7561C231.139 76.1337 230.572 76.4169 229.959 76.4169C229.345 76.4641 228.731 76.1809 228.401 75.7089C228.023 75.1425 228.118 74.3873 228.307 73.7737C228.495 73.0185 228.779 72.2633 229.156 71.6025Z" fill="#EBA58E"/>
<path d="M229.911 75.4729C229.628 75.4729 229.345 75.3313 229.203 75.1425C229.156 75.0481 229.014 74.7649 229.25 74.0097C229.439 73.3489 229.675 72.6409 230.006 72.0745C230.336 71.5553 230.808 71.1777 231.28 71.0361C231.374 70.9889 231.516 70.9889 231.658 70.9889C231.988 70.9889 232.318 71.1305 232.46 71.3193C232.649 71.5553 232.743 71.9801 232.649 72.4049C232.554 72.9241 232.224 73.4433 231.988 73.8681C231.658 74.3873 231.327 74.7649 231.044 75.0481C230.666 75.2841 230.289 75.4729 229.911 75.4729Z" fill="#DE7274"/>
<path d="M227.693 69.7616C227.693 69.7616 223.917 68.204 224.436 63.7672C220.471 65.0416 216.129 64.9472 212.211 63.484C211.362 64.9 210.843 66.552 210.843 68.2984V72.688C210.843 77.7384 214.949 81.8448 219.999 81.8448C224.2 81.8448 227.693 79.0128 228.826 75.1896C228.59 74.9064 228.354 74.6704 228.165 74.34C227.315 73.0656 227.127 71.2248 227.693 69.7616Z" fill="#EBA58E"/>
<path d="M212.966 67.6377C212.164 67.8265 211.503 68.5345 211.173 69.4313L215.185 68.4401C214.618 67.7321 213.816 67.4017 212.966 67.6377Z" fill="#422C4F"/>
<path d="M213.391 71.6497C213.73 71.6497 214.005 71.2904 214.005 70.8473C214.005 70.4041 213.73 70.0449 213.391 70.0449C213.052 70.0449 212.778 70.4041 212.778 70.8473C212.778 71.2904 213.052 71.6497 213.391 71.6497Z" fill="#422C4F"/>
<path d="M221.651 68.0625C222.737 68.2513 223.587 68.9593 224.059 69.856L218.772 68.8648C219.527 68.2041 220.613 67.8265 221.651 68.0625Z" fill="#422C4F"/>
<path d="M220.377 71.2721C220.377 71.6969 220.754 72.0745 221.179 72.0745C221.604 72.0745 221.982 71.6969 221.982 71.2721C221.982 70.8473 221.604 70.4697 221.179 70.4697C220.707 70.4697 220.377 70.8473 220.377 71.2721Z" fill="#422C4F"/>
<path d="M217.498 75.8504C217.073 75.8032 216.648 75.756 216.223 75.7088C215.798 75.6616 215.374 75.4256 215.138 75.048C214.902 74.6704 214.807 74.2456 214.902 73.8208C215.232 72.452 215.704 71.1304 216.223 69.8088C216.27 69.7616 216.318 69.7144 216.365 69.7616C216.412 69.8088 216.459 69.856 216.412 69.9032C215.846 71.1776 215.421 72.4992 215.09 73.868C214.996 74.1984 215.09 74.576 215.279 74.9064C215.468 75.2368 215.846 75.4256 216.176 75.4728C216.601 75.52 217.026 75.5672 217.45 75.6144C217.498 75.6144 217.545 75.6616 217.545 75.756C217.639 75.8032 217.545 75.8504 217.498 75.8504Z" fill="#422C4F"/>
<path d="M221.179 76.3224C219.244 76.5584 217.262 76.7944 215.327 77.0304C216.035 77.9744 217.215 78.588 218.395 78.4936C219.575 78.352 220.613 77.3608 221.179 76.3224Z" fill="white"/>
<path d="M228.118 133.01H210.89L184.269 140.278C178.039 141.978 174.64 148.727 177.047 154.722L188.8 184.552L200.364 180.021L195.88 155.288H206.17L228.118 140.986V133.01Z" fill="#5088BA"/>
<path d="M201.591 179.502L187.573 185.024L189.083 190.074L203.149 184.552L201.591 179.502Z" fill="#6CA7D3"/>
<path d="M188.092 202.441C187.856 203.054 187.762 203.763 187.762 204.423H206.831L206.217 202.441H188.092Z" fill="#BD6C67"/>
<path d="M200.978 185.402L191.727 189.036L194.039 195.125C194.464 196.258 193.945 197.532 192.859 198.098L191.349 198.854C189.791 199.609 188.659 200.93 188.139 202.488H206.217L200.978 185.402Z" fill="#8C404C"/>
<path d="M199.845 150.804L200.742 155.288H206.217L228.165 140.986V136.361L206.5 140.845C201.922 141.789 198.948 146.226 199.845 150.804Z" fill="#457BA3"/>
<path d="M236.378 133.01L213.91 139.051C207.586 140.751 203.432 146.839 204.187 153.353L207.444 181.248H220.896L221.934 153.495H231.752C241.381 153.495 249.216 145.659 249.216 136.031V128.479L236.378 133.01Z" fill="#5088BA"/>
<path d="M221.982 181.248H206.17V186.062H221.982V181.248Z" fill="#6CA7D3"/>
<path d="M219.858 186.062H208.435V194.086C208.435 196.588 207.066 198.901 204.848 200.128C203.29 200.978 202.158 202.394 201.591 204.046H219.81V186.062H219.858Z" fill="#A64F5A"/>
<path d="M201.638 204.046C201.402 204.707 201.308 205.415 201.308 206.17V206.311H219.858V204.046H201.638Z" fill="#DF8D6D"/>
<path d="M221.934 153.495L222.218 145.99C224.106 147.972 224.483 150.898 223.209 153.306L223.114 153.495H221.934Z" fill="#457BA3"/>
<path d="M219.858 181.343C219.811 181.343 219.763 181.295 219.763 181.248V152.362C219.763 152.315 219.811 152.267 219.858 152.267C219.905 152.267 219.952 152.315 219.952 152.362V181.248C219.999 181.295 219.952 181.343 219.858 181.343Z" fill="#422C4F"/>
<path d="M199.231 173.838C199.184 173.838 199.137 173.791 199.137 173.743L193.992 145.518C193.992 145.47 194.039 145.376 194.086 145.376C194.134 145.376 194.228 145.423 194.228 145.471L199.326 173.649C199.326 173.743 199.326 173.791 199.231 173.838Z" fill="#422C4F"/>
<path d="M196.682 179.643C196.635 179.643 196.588 179.596 196.588 179.549L189.272 149.435C189.272 149.388 189.272 149.294 189.366 149.294C189.414 149.294 189.508 149.341 189.508 149.388L196.824 179.502C196.777 179.549 196.777 179.643 196.682 179.643Z" fill="#422C4F"/>
<path d="M188.422 139.287C188.375 139.287 188.328 139.24 188.328 139.193C188.328 139.146 188.328 139.051 188.422 139.051L210.89 132.915C210.937 132.915 211.031 132.915 211.031 133.01C211.031 133.057 211.031 133.151 210.937 133.151L188.422 139.287C188.47 139.287 188.47 139.287 188.422 139.287Z" fill="#422C4F"/>
<path d="M206.028 169.354C205.981 169.354 205.934 169.307 205.934 169.259L204.093 153.4C203.338 146.887 207.538 140.656 213.863 138.957L232.554 133.954C232.602 133.954 232.696 133.954 232.696 134.048C232.696 134.095 232.696 134.19 232.602 134.19L213.91 139.193C207.68 140.845 203.526 146.934 204.282 153.353L206.122 169.212C206.17 169.259 206.122 169.307 206.028 169.354C206.028 169.307 206.028 169.354 206.028 169.354Z" fill="#422C4F"/>
<path d="M233.593 85.5737H230.808C230.1 87.3673 228.731 88.9249 226.985 89.8217C224.767 90.9545 221.982 91.0017 219.716 89.8689C218.064 89.0665 216.695 87.6033 215.94 85.9513H210.135C204.565 85.9513 199.609 89.4441 197.721 94.6833L192.199 110.023L206.075 113.705L207.869 107.238L210.937 132.962H228.165L245.487 119.605L233.593 85.5737Z" fill="#FBEED1"/>
<path d="M233.593 85.5737H238.313C243.646 85.5737 248.508 88.7833 250.538 93.7393L256.107 107.286L242.891 112.336L233.593 85.5737Z" fill="#FBEED1"/>
<path d="M228.118 133.01L245.44 119.652L242.891 112.336L254.078 108.088L257.523 118.142C258.798 121.823 256.862 125.835 253.181 127.11L236.33 133.01L222.548 136.691L228.118 133.01Z" fill="#EBA58E"/>
<path d="M254.078 108.088L242.891 112.336L244.071 115.734L254.361 108.796L254.078 108.088Z" fill="#D1927E"/>
<path d="M204.376 134.803L202.724 118.85L205.037 113.516L193.426 110.448L192.151 114.885C191.396 117.481 191.49 120.219 192.434 122.767L197.485 136.739L204.376 134.803Z" fill="#EBA58E"/>
<path d="M193.426 110.401L205.037 113.469L203.857 116.159L193.19 111.156L193.426 110.401Z" fill="#D1927E"/>
<path d="M238.124 98.5536L240.012 116.395C240.154 117.953 239.682 119.463 238.69 120.643L228.165 132.962L245.487 119.605L238.124 98.5536Z" fill="#F7DD8C"/>
<path d="M207.822 107.286L206.547 96.4297L205.462 101.905C204.895 104.737 205.462 107.616 207.066 110.023L207.822 107.286Z" fill="#F7DD8C"/>
<path d="M242.891 112.478C242.844 112.478 242.797 112.43 242.797 112.383L237.275 96.4769C237.275 96.4297 237.275 96.3353 237.369 96.3353C237.416 96.3353 237.511 96.3353 237.511 96.4297L243.033 112.336C243.033 112.383 242.986 112.43 242.891 112.478C242.939 112.478 242.891 112.478 242.891 112.478Z" fill="#422C4F"/>
<path d="M241.617 108.843C241.57 108.843 241.523 108.796 241.523 108.749C241.523 108.702 241.523 108.607 241.57 108.607L252.851 104.359C252.898 104.359 252.992 104.359 252.992 104.406C252.992 104.454 252.992 104.548 252.945 104.548L241.617 108.843C241.664 108.843 241.617 108.843 241.617 108.843Z" fill="#422C4F"/>
<path d="M235.67 127.299C235.622 127.299 235.622 127.299 235.575 127.251C235.528 127.204 235.528 127.11 235.575 127.063L248.508 117.056C248.555 117.009 248.65 117.009 248.697 117.056C248.744 117.103 248.744 117.198 248.697 117.245L235.764 127.251C235.717 127.299 235.717 127.299 235.67 127.299Z" fill="#422C4F"/>
<path d="M209.946 124.891C209.898 124.891 209.851 124.844 209.851 124.797L206.453 96.4297C206.453 96.3825 206.5 96.2881 206.547 96.2881C206.594 96.2881 206.689 96.3353 206.689 96.3825L210.087 124.75C210.04 124.844 209.993 124.891 209.946 124.891Z" fill="#422C4F"/>
<path d="M206.547 112.006C206.453 112.006 206.406 111.911 206.453 111.864L207.727 107.286C207.727 107.238 207.822 107.191 207.869 107.191C207.916 107.191 207.963 107.286 207.963 107.333L206.689 111.911C206.642 111.958 206.594 112.006 206.547 112.006Z" fill="#422C4F"/>
<path d="M206.925 110.731C206.878 110.731 206.878 110.731 206.925 110.731L195.125 107.71C195.078 107.71 195.031 107.616 195.031 107.569C195.031 107.522 195.125 107.474 195.172 107.474L206.972 110.448C207.019 110.448 207.067 110.542 207.067 110.59C207.019 110.684 206.972 110.731 206.925 110.731Z" fill="#422C4F"/>
<path d="M86.2817 167.56H88.5945L89.2553 173.13L86.7537 171.808L86.2817 167.56Z" fill="#422C4F"/>
<path d="M89.2554 173.13L93.173 208.482H90.8602L86.7538 171.808L89.2554 173.13Z" fill="#99A3B0"/>
<path d="M69.0067 172.516L73.0187 208.483H70.6587L66.5051 171.195L69.0067 172.516Z" fill="#99A3B0"/>
<path d="M66.1274 167.56H68.4402L69.0066 172.516L66.505 171.194L66.1274 167.56Z" fill="#422C4F"/>
<path d="M57.3955 167.56H59.7083L59.1419 172.658L56.9235 171.43L57.3955 167.56Z" fill="#422C4F"/>
<path d="M52.8171 208.482L56.9235 171.43L59.1419 172.658L55.1299 208.482H52.8171Z" fill="#99A3B0"/>
<path d="M37.1939 167.56H39.5067L38.9875 172.28L36.8163 171.1L37.1939 167.56Z" fill="#422C4F"/>
<path d="M32.6155 208.482L36.8163 171.1L38.9875 172.28L34.9755 208.482H32.6155Z" fill="#99A3B0"/>
<path d="M90.2938 167.56C88.1698 162.982 83.6386 160.055 78.5882 160.055H63.2482L54.941 106.011L43.2826 96.5713H35.8722C26.621 96.5713 19.541 104.831 20.957 113.988L27.9426 159.536C28.6506 164.162 32.6154 167.56 37.2882 167.56H90.2938Z" fill="#797C99"/>
<path d="M97.6569 167.56C95.5329 162.982 91.0017 160.055 85.9513 160.055H70.6113L63.5313 113.988C61.9737 103.982 53.3833 96.5713 43.2353 96.5713C33.9841 96.5713 26.9041 104.831 28.3201 113.988L34.5505 154.486C35.0225 157.695 37.8073 160.102 41.0641 160.102H50.7401C55.7433 160.102 60.3217 163.029 62.4457 167.607H97.6569V167.56Z" fill="#495375"/>
<path d="M73.5378 139.854L65.7498 160.055H104.784L97.7985 190.122H116.679L122.012 158.026C123.287 150.474 117.906 143.441 110.259 142.686L81.7034 139.854H73.5378Z" fill="#537496"/>
<path d="M104.784 160.055L107.002 150.427L104.17 152.975C103.557 153.542 103.179 154.344 103.179 155.147C103.179 156.61 102.094 157.884 100.63 158.073L99.4504 158.215L99.12 160.055H104.784Z" fill="#495375"/>
<path d="M114.602 201.733C114.554 201.686 114.554 201.686 114.507 201.639L114.082 201.167C113.044 200.034 112.619 198.476 112.855 196.966L113.988 190.122H105.303L104.218 196.777C104.029 198.099 103.604 199.373 102.896 200.506C102.424 201.308 101.858 202.488 101.48 203.999H112.194C112.714 203.007 113.563 202.205 114.602 201.733Z" fill="#F2C9AD"/>
<path d="M119.086 203.432L117.622 203.243C116.442 203.102 115.357 202.535 114.554 201.686C113.563 202.158 112.666 202.96 112.147 203.951H101.433C101.244 204.659 101.102 205.462 101.008 206.311C100.866 207.444 101.763 208.435 102.896 208.435H123.57C123.57 205.887 121.634 203.763 119.086 203.432Z" fill="#ECA85E"/>
<path d="M105.303 190.122H113.988L113.799 191.207L104.831 192.954L105.303 190.122Z" fill="#CCA184"/>
<path d="M90.813 201.733C90.7658 201.686 90.7658 201.686 90.7186 201.639L90.2938 201.167C89.2554 200.034 88.8306 198.476 89.0666 196.966L90.1522 190.122H81.4674L80.429 196.777C80.2402 198.099 79.8154 199.373 79.1074 200.506C78.6354 201.308 78.069 202.488 77.6914 203.999H88.4058C88.9722 203.007 89.8218 202.205 90.813 201.733Z" fill="#F2C9AD"/>
<path d="M95.3442 203.432L93.881 203.243C92.701 203.102 91.6154 202.535 90.813 201.686C89.8218 202.158 88.925 202.96 88.4058 203.951H77.6914C77.5026 204.659 77.361 205.462 77.2666 206.311C77.125 207.444 78.0218 208.435 79.1546 208.435H99.8282C99.781 205.887 97.893 203.763 95.3442 203.432Z" fill="#F4D071"/>
<path d="M81.4674 190.122H90.1994L90.0106 191.207L81.0426 192.954L81.4674 190.122Z" fill="#CCA184"/>
<path d="M50.9762 139.854L48.8994 145.282C46.1618 152.409 51.401 160.055 59.0474 160.055H82.2698L75.2842 190.122H94.1642L99.5922 157.412C100.819 150.096 95.769 143.205 88.4058 142.167L72.1218 139.854H50.9762Z" fill="#6081A8"/>
<path d="M82.2225 160.055L84.4409 150.426L81.7033 153.117C79.9097 154.91 79.1545 157.554 79.8153 160.008H82.2225V160.055Z" fill="#495375"/>
<path d="M82.2227 160.197H65.7027C65.6555 160.197 65.6083 160.15 65.6083 160.102C65.6083 160.055 65.6555 160.008 65.7027 160.008H82.2227C82.2699 160.008 82.3171 160.055 82.3171 160.102C82.3171 160.15 82.3171 160.197 82.2227 160.197Z" fill="#422C4F"/>
<path d="M76.2754 185.921C76.181 185.921 76.1338 185.826 76.181 185.779L84.3466 150.426C84.3466 150.379 84.441 150.332 84.4882 150.332C84.5354 150.332 84.5826 150.426 84.5826 150.474L76.417 185.826C76.3698 185.874 76.3226 185.921 76.2754 185.921Z" fill="#422C4F"/>
<path d="M88.4059 142.308L78.2579 140.845C78.2107 140.845 78.1635 140.798 78.1635 140.703C78.1635 140.656 78.2106 140.609 78.305 140.609L88.4531 142.025C88.5003 142.025 88.5475 142.072 88.5475 142.167C88.5475 142.261 88.5003 142.308 88.4059 142.308Z" fill="#422C4F"/>
<path d="M94.7777 186.487C94.6833 186.487 94.6361 186.393 94.6833 186.346L98.2705 164.681C98.2705 164.634 98.3649 164.586 98.4121 164.586C98.4593 164.586 98.5065 164.681 98.5065 164.728L94.9193 186.393C94.8721 186.44 94.8249 186.487 94.7777 186.487Z" fill="#422C4F"/>
<path d="M88.8779 107.852L92.1819 118.85L108.372 138.154L104.029 142.072L88.4059 128.29C86.1875 126.307 84.5827 123.711 83.7803 120.832L81.0427 110.448L88.8779 107.852Z" fill="#F2C9AD"/>
<path d="M88.8778 107.852L81.0898 110.448L83.8274 120.832C83.8274 120.879 83.8746 120.926 83.8746 121.021L90.6714 113.941L88.8778 107.852Z" fill="#CCA184"/>
<path d="M79.7211 90.9073C82.4115 90.7657 84.8659 92.4649 85.6683 95.0609L90.3411 110.165L85.5739 111.25L82.7419 103.132L79.7211 90.9073Z" fill="#F4D071"/>
<path d="M82.6947 103.132L85.5267 111.298L89.6803 110.306L81.5619 98.412L82.6947 103.132Z" fill="#ECA85E"/>
<path d="M82.7417 77.4553C84.5825 74.8593 86.2345 72.0273 86.8953 68.8649C87.5561 65.7497 87.1313 62.2569 85.1489 59.7553C83.1665 57.2537 79.4377 56.0737 76.5585 57.5369C73.0657 55.2241 68.8649 53.7609 64.9473 55.2713C61.0297 56.7817 57.9617 60.2745 56.9233 64.3337C54.8465 72.4993 60.7465 81.3257 58.0561 89.3497C56.9705 92.6537 54.5161 95.2969 52.4393 98.0817C50.3625 100.866 48.4745 104.123 48.8049 107.616C49.2297 112.053 53.4305 115.498 57.8201 116.112C61.3129 116.584 64.9473 115.498 67.6377 113.233C70.7529 110.59 72.4521 106.53 73.1601 102.471C73.8681 98.4121 73.8209 94.3057 74.0569 90.1993C74.1985 87.6505 74.5289 85.0073 75.6145 82.6945C76.7945 80.3345 80.2401 78.1161 82.7417 77.4553Z" fill="#422C4F"/>
<path d="M87.037 109.504L84.0162 102.66L79.721 90.9073L68.4402 91.4737C61.9738 91.8041 56.9706 97.2793 57.2538 103.793L57.4898 108.843L56.8762 121.587C56.7346 123.994 56.2626 126.402 55.3658 128.62L51.0234 139.901H81.7978L83.9218 125.599L84.2994 121.446C84.441 120.03 84.9602 118.708 85.9042 117.622C87.7922 115.357 88.217 112.194 87.037 109.504Z" fill="#F4D071"/>
<path d="M87.037 109.598C86.9898 109.598 86.9426 109.551 86.9426 109.551L83.9218 102.707L81.5618 96.2409C81.5618 96.1937 81.5618 96.0993 81.609 96.0993C81.6562 96.0993 81.7506 96.0993 81.7506 96.1465L84.1106 102.613L87.1314 109.457C87.1786 109.504 87.1314 109.598 87.0842 109.598H87.037Z" fill="#422C4F"/>
<path d="M74.8122 117.67C74.765 117.67 74.7178 117.623 74.7178 117.575C74.7178 117.528 74.765 117.434 74.8122 117.434C77.125 117.245 79.3906 116.065 80.8066 114.224C80.8538 114.177 80.901 114.177 80.9954 114.224C81.0426 114.271 81.0426 114.319 80.9954 114.413C79.5322 116.254 77.2194 117.528 74.8122 117.67Z" fill="#422C4F"/>
<path d="M68.2515 82.5057L67.9683 91.7569L69.4315 93.2673C71.7915 95.7217 75.9451 94.8721 77.1723 91.7097L76.3227 84.7241L68.2515 82.5057Z" fill="#F2C9AD"/>
<path d="M74.0099 89.5385C75.0011 89.6801 75.9923 89.5385 76.8891 89.0665L76.3699 84.6769L68.2987 82.4113L68.2515 83.6385C68.7235 84.7241 69.2427 85.8097 69.9507 86.7537C70.8947 88.1697 72.3579 89.3025 74.0099 89.5385Z" fill="#422C4F"/>
<path d="M83.5915 69.856V74.9536C83.5915 77.2192 83.2139 79.4376 82.4587 81.5616C81.3259 84.8184 78.2579 86.9896 74.8123 86.9896C72.8299 86.9896 70.8947 86.2344 69.3843 84.9128L66.5523 82.364C65.4195 81.3256 64.5699 79.9568 64.1923 78.4464C72.8771 74.6704 75.9451 68.2512 76.0395 63.1064C82.0339 65.5136 83.5915 69.856 83.5915 69.856Z" fill="#F2C9AD"/>
<path d="M74.765 70.1393C73.5378 70.3753 72.5938 71.1777 72.0746 72.1689L78.0218 71.0361C77.1722 70.2809 75.945 69.9033 74.765 70.1393Z" fill="#422C4F"/>
<path d="M76.2282 73.7737C76.2282 74.2929 75.8034 74.6705 75.3314 74.6705C74.8594 74.6705 74.4346 74.2457 74.4346 73.7737C74.4346 73.3017 74.8594 72.8769 75.3314 72.8769C75.8034 72.8769 76.2282 73.3017 76.2282 73.7737Z" fill="#422C4F"/>
<path d="M82.2226 70.1393C82.9778 70.3753 83.5442 71.1777 83.8274 72.1689L80.2402 71.0361C80.7594 70.2809 81.4674 69.9033 82.2226 70.1393Z" fill="#422C4F"/>
<path d="M81.3257 73.7737C81.3257 74.2929 81.5617 74.6705 81.8921 74.6705C82.2225 74.6705 82.4585 74.2457 82.4585 73.7737C82.4585 73.3017 82.2225 72.8769 81.8921 72.8769C81.5617 72.8769 81.3257 73.3017 81.3257 73.7737Z" fill="#422C4F"/>
<path d="M79.2489 79.0129C79.0129 79.0129 78.7769 78.9657 78.5409 78.9657C78.4937 78.9657 78.4465 78.9185 78.4465 78.8241C78.4465 78.7769 78.4937 78.7297 78.5881 78.7297C79.0129 78.7769 79.4849 78.8241 79.9097 78.6825C80.2873 78.5881 80.7121 78.2577 80.7593 77.8329C80.8065 77.5025 80.6649 77.1721 80.5233 76.8417L80.4761 76.7473C79.8625 75.4729 79.6265 74.0569 79.6737 72.6409C79.6737 72.5937 79.7209 72.5465 79.8153 72.5465C79.8625 72.5465 79.9097 72.5937 79.9097 72.6881C79.8153 74.0569 80.0985 75.4257 80.6649 76.7001L80.7121 76.7945C80.8537 77.1249 81.0425 77.5025 80.9953 77.8801C80.9009 78.3993 80.4289 78.7769 80.0041 78.9185C79.7209 78.9657 79.4849 79.0129 79.2489 79.0129Z" fill="#422C4F"/>
<path d="M80.429 80.4761C78.3994 80.7593 76.4171 80.9953 74.3875 81.2785C74.9067 82.4585 76.2755 83.1193 77.5499 83.0249C78.8243 82.8833 80.0986 81.7033 80.429 80.4761Z" fill="white"/>
<path d="M58.9058 118.85L69.5258 117.198L70.989 129.564L96.6186 121.682L98.129 128.431L73.0658 139.854C67.0714 142.591 60.133 138.485 59.7082 131.877L58.9058 118.85Z" fill="#F2C9AD"/>
<path d="M69.4785 117.15L58.9058 118.85L59.1418 123.192L69.6202 118.33L69.4785 117.15Z" fill="#CCA184"/>
<path d="M70.989 116.962L58.0562 118.944L57.8674 117.434L65.2306 116.301C67.4962 115.97 69.101 113.894 68.8178 111.628L67.685 101.952C67.4018 99.7336 66.1274 97.704 64.1922 96.5712L64.3338 96.6184C66.8354 97.5624 68.629 99.828 69.0066 102.471L70.989 116.962Z" fill="#ECA85E"/>
<path d="M58.0561 119.086C58.0089 119.086 57.9617 119.038 57.9617 118.991C57.9617 118.944 58.0089 118.85 58.0561 118.85L70.8473 116.867L68.9593 102.518C68.6289 99.8753 66.8353 97.7041 64.3809 96.7601L64.2393 96.7129C64.1921 96.7129 64.1449 96.6185 64.1921 96.5713C64.1921 96.5241 64.2865 96.4769 64.3337 96.5241L64.4753 96.5713C67.0241 97.5153 68.8649 99.8281 69.1953 102.518L71.1305 116.962C71.1305 117.009 71.0833 117.103 71.0361 117.103L58.0561 119.086C58.1033 119.086 58.1033 119.086 58.0561 119.086Z" fill="#422C4F"/>
<path d="M65.7027 131.31C65.6555 131.31 65.6083 131.263 65.6083 131.216C65.6083 131.169 65.6083 131.074 65.7027 131.074L92.7955 122.767C92.8427 122.767 92.9371 122.767 92.9371 122.862C92.9371 122.909 92.9371 123.003 92.8427 123.003L65.7027 131.31C65.7499 131.31 65.7027 131.31 65.7027 131.31Z" fill="#422C4F"/>
<path d="M169.779 75.4257V86.6121C169.779 90.0105 167.041 92.7481 163.643 92.7481H162.604L161.66 94.2585H149.624L153.731 87.8865L169.779 75.4257Z" fill="#F2C9AD"/>
<path d="M169.826 77.5968L167.041 81.42V85.5736C167.041 87.9336 165.153 89.8216 162.793 89.8216H155.382C153.919 89.8216 152.55 89.0664 151.795 87.8392C144.149 75.7088 146.131 66.552 154.58 67.7792C161.849 57.2064 180.351 69.7616 169.826 77.5968Z" fill="#6A3649"/>
<path d="M168.693 79.1544L167.041 81.42V85.432C167.277 86.0928 167.891 86.376 168.363 86.2344C168.835 86.0928 169.259 85.6208 169.543 85.0544C169.967 84.3464 170.251 83.544 170.392 82.6472C170.487 81.7504 170.392 80.7592 170.062 80.004C169.684 79.296 169.307 79.1544 168.693 79.1544Z" fill="#F2C9AD"/>
<path d="M168.127 86.4232C167.985 86.4232 167.843 86.376 167.702 86.3288C167.655 86.3288 167.607 86.2344 167.655 86.1872C167.655 86.14 167.749 86.0928 167.796 86.14C167.985 86.1872 168.174 86.2344 168.315 86.1872C168.693 86.0928 169.071 85.7152 169.448 85.0544C169.873 84.2992 170.156 83.4968 170.298 82.6944C170.439 81.7504 170.298 80.8064 169.967 80.0984C169.779 79.6736 169.543 79.4848 169.307 79.3432C169.259 79.3432 169.212 79.2488 169.259 79.2016C169.259 79.1544 169.354 79.1072 169.401 79.1544C169.731 79.296 169.967 79.532 170.203 80.004C170.581 80.7592 170.675 81.7032 170.581 82.6944C170.487 83.544 170.156 84.3936 169.731 85.1488C169.307 85.8568 168.882 86.2344 168.457 86.376C168.315 86.376 168.221 86.4232 168.127 86.4232Z" fill="#422C4F"/>
<path d="M153.306 202.582C152.551 201.638 151.937 200.6 151.512 199.42L151.182 198.57H141.364L140.609 206.358H155.288C154.911 204.99 154.25 203.668 153.306 202.582Z" fill="#454F6B"/>
<path d="M155.335 206.358H140.656L140.467 208.482H155.76L155.619 207.586C155.524 207.161 155.43 206.736 155.335 206.358Z" fill="white"/>
<path d="M151.182 198.57H141.411L141.081 201.544L151.182 198.57Z" fill="#422C4F"/>
<path d="M159.536 151.04L155.76 198.57H138.485L142.167 160.338L159.536 151.04Z" fill="#984058"/>
<path d="M157.648 174.782L141.223 170.014L142.167 160.338L159.536 151.04L157.648 174.782Z" fill="#472948"/>
<path d="M184.127 203.102C182.475 202.299 181.107 201.025 180.163 199.42L179.691 198.57H170.864L169.212 206.358H187.762C186.865 204.942 185.591 203.81 184.127 203.102Z" fill="#454F6B"/>
<path d="M187.762 206.358H169.212L168.74 208.482H188.8L188.753 208.388C188.517 207.68 188.187 206.972 187.762 206.358Z" fill="white"/>
<path d="M179.691 198.57H170.864L170.203 201.544L179.691 198.57Z" fill="#422C4F"/>
<path d="M160.575 139.854L179.407 148.161C183.278 149.86 185.591 153.825 185.26 158.026L182.051 198.523H164.728L168.41 160.291L157.318 159.064H129.753V139.854H160.575Z" fill="#984058"/>
<path d="M168.41 160.338H180.54L179.785 160.905C176.434 163.359 172.139 164.114 168.174 162.887L168.41 160.338Z" fill="#472948"/>
<path d="M180.54 193.945H166.758C166.711 193.945 166.663 193.898 166.663 193.85C166.663 193.803 166.711 193.756 166.758 193.756H180.54C180.587 193.756 180.635 193.803 180.635 193.85C180.635 193.898 180.587 193.945 180.54 193.945Z" fill="#422C4F"/>
<path d="M154.392 193.945H140.609C140.562 193.945 140.515 193.898 140.515 193.85C140.515 193.803 140.562 193.756 140.609 193.756H154.392C154.439 193.756 154.486 193.803 154.486 193.85C154.486 193.898 154.486 193.945 154.392 193.945Z" fill="#422C4F"/>
<path d="M179.691 196.73C179.596 196.73 179.549 196.682 179.596 196.588L182.523 163.454C182.523 163.406 182.57 163.359 182.664 163.359C182.712 163.359 182.759 163.406 182.759 163.501L179.832 196.635C179.785 196.682 179.738 196.73 179.691 196.73Z" fill="#422C4F"/>
<path d="M192.859 106.294L188.611 98.7896C189.508 98.3648 190.594 98.6007 191.255 99.3559L192.529 100.819L192.859 106.294Z" fill="#EBA58E"/>
<path d="M190.971 108.843L192.859 106.294L191.915 100.725C191.821 96.3352 193.756 94.0224 194.7 93.1256C194.983 92.8424 195.455 92.7952 195.786 93.0312C196.211 93.3144 196.305 93.8336 196.022 94.2584C194.559 96.4296 194.417 98.6952 194.417 98.6952C195.503 96.4296 197.202 95.108 198.051 94.5416C198.382 94.3528 198.759 94.3528 199.043 94.5888L201.686 96.5712C202.063 96.8544 202.158 97.468 201.827 97.8456C200.459 99.4504 199.751 101.669 199.751 101.669C200.695 105.398 198.901 107.852 198.146 108.277L195.078 113.186L190.971 108.843Z" fill="#F2C9AD"/>
<path d="M128.384 105.492C130.083 98.0344 136.691 92.748 144.338 92.748H160.291C166.852 92.748 172.752 96.7128 175.159 102.802L181.248 118L190.075 107.758C196.352 108.088 197.485 114.507 197.485 114.507L185.402 129.989C181.909 134.473 174.876 133.623 172.563 128.431L167.088 116.301L162.132 141.883C154.675 146.273 132.774 145.187 128.384 142.827V105.492Z" fill="#6CA8BC"/>
<path d="M167.088 116.301L169.307 104.831L169.779 122.295L167.088 116.301Z" fill="#468097"/>
<path d="M181.248 118L183.986 124.797L184.269 121.21C184.411 119.51 183.75 117.811 182.523 116.584L181.248 118Z" fill="#468097"/>
<path d="M196.541 99.5448H196.494C196.447 99.4976 196.399 99.4504 196.447 99.4032C197.202 97.9872 198.24 96.7128 199.515 95.7216C199.562 95.6744 199.656 95.6744 199.703 95.7216C199.751 95.7688 199.751 95.8632 199.703 95.9104C198.476 96.9016 197.438 98.1288 196.683 99.5448C196.635 99.5448 196.588 99.5448 196.541 99.5448Z" fill="#422C4F"/>
<path d="M198.523 100.064H198.476C198.429 100.017 198.382 99.9696 198.429 99.9224C199.09 98.884 199.845 97.8928 200.789 97.0904C200.836 97.0432 200.931 97.0432 200.978 97.0904C201.025 97.1376 201.025 97.232 200.978 97.2792C200.081 98.0816 199.326 99.0256 198.665 100.064C198.618 100.064 198.571 100.064 198.523 100.064Z" fill="#422C4F"/>
<path d="M192.151 107.427C192.104 107.427 192.104 107.427 192.104 107.427C192.057 107.38 192.057 107.333 192.057 107.238L192.765 106.294L192.057 102.046C192.057 101.999 192.104 101.905 192.151 101.905C192.199 101.905 192.293 101.952 192.293 101.999L193.001 106.294C193.001 106.342 193.001 106.342 193.001 106.389L192.293 107.38C192.199 107.38 192.199 107.427 192.151 107.427Z" fill="#422C4F"/>
<path d="M163.265 136.266C163.265 136.266 163.218 136.266 163.265 136.266C163.171 136.266 163.123 136.172 163.171 136.125L169.212 104.784C169.212 104.737 169.307 104.69 169.354 104.69C169.401 104.69 169.448 104.784 169.448 104.831L163.407 136.172C163.359 136.219 163.312 136.266 163.265 136.266Z" fill="#422C4F"/>
<path d="M183.986 124.891C183.939 124.891 183.891 124.844 183.891 124.797L176.481 106.342C176.434 106.294 176.481 106.2 176.528 106.2C176.576 106.153 176.67 106.2 176.67 106.247L184.08 124.702C184.127 124.797 184.08 124.891 183.986 124.891Z" fill="#422C4F"/>
<path d="M181.248 118.094C181.201 118.094 181.201 118.094 181.154 118.047C181.106 118 181.106 117.953 181.154 117.858L186.346 111.864C186.393 111.817 186.44 111.817 186.535 111.864C186.582 111.911 186.582 111.958 186.535 112.053L181.342 118.047C181.295 118.094 181.295 118.094 181.248 118.094Z" fill="#422C4F"/>
<path d="M153.872 139.523C153.825 139.523 153.825 139.523 153.872 139.523C150.379 138.485 147.217 136.597 144.621 134.142C144.574 134.095 144.574 134.001 144.621 133.954C144.668 133.906 144.762 133.906 144.81 133.954C147.358 136.408 150.521 138.249 153.966 139.287C154.014 139.287 154.061 139.382 154.061 139.429C153.966 139.476 153.919 139.523 153.872 139.523Z" fill="#422C4F"/>
<path d="M150.993 105.87C150.946 105.87 150.898 105.822 150.898 105.775C150.898 105.728 150.898 105.634 150.993 105.634L155.571 104.029C155.618 104.029 155.713 104.029 155.713 104.123C155.713 104.17 155.713 104.265 155.618 104.265L150.993 105.87C151.04 105.87 150.993 105.87 150.993 105.87Z" fill="#422C4F"/>
<path d="M161.849 165.436C161.235 161.235 157.695 158.167 153.447 158.12H151.04C149.247 158.12 147.689 156.846 147.359 155.052L139.571 115.498C137.305 103.887 127.11 95.5328 115.31 95.5328H107.475L108.702 96.76C100.914 99.828 95.9577 108.135 97.7041 116.914L105.917 158.734C106.955 163.878 111.392 167.56 116.584 167.56H162.132L161.849 165.436Z" fill="#495375"/>
<path d="M98.0818 158.781L89.8689 116.962C87.6977 105.87 96.1937 95.5801 107.475 95.5801C119.275 95.5801 129.47 103.934 131.735 115.546L140.231 158.828C141.223 163.926 145.707 167.607 150.899 167.607H151.276H108.749C103.557 167.56 99.1202 163.878 98.0818 158.781Z" fill="#797C99"/>
<path d="M111.062 167.56H108.749L108.135 173.13L110.59 171.808L111.062 167.56Z" fill="#422C4F"/>
<path d="M108.135 173.13L104.171 208.482H106.531L110.59 171.808L108.135 173.13Z" fill="#99A3B0"/>
<path d="M128.384 172.516L124.372 208.482H126.685L130.839 171.194L128.384 172.516Z" fill="#99A3B0"/>
<path d="M131.263 167.56H128.951L128.384 172.516L130.839 171.194L131.263 167.56Z" fill="#422C4F"/>
<path d="M139.995 167.56H137.682L138.249 172.658L140.42 171.43L139.995 167.56Z" fill="#422C4F"/>
<path d="M144.574 208.482L140.42 171.43L138.249 172.658L142.214 208.482H144.574Z" fill="#99A3B0"/>
<path d="M160.15 167.56H157.837L158.356 172.28L160.575 171.1L160.15 167.56Z" fill="#422C4F"/>
<path d="M164.728 208.482L160.575 171.1L158.356 172.28L162.415 208.482H164.728Z" fill="#99A3B0"/>
<path d="M281.454 98.9313L285.655 93.5505C286.693 92.1817 288.345 91.4265 290.044 91.4265L289.148 91.2849C288.487 91.1433 287.92 90.6713 287.684 90.0577L285.277 83.1665L278.197 86.9425L279.236 92.4177C279.33 92.8897 279.236 93.4089 278.952 93.7865L274.61 100.536L274.704 100.583C277.017 101.669 279.849 101.008 281.454 98.9313Z" fill="#F2C9AD"/>
<path d="M295.331 143.63L290.044 91.4737C288.345 91.4737 286.693 92.2761 285.655 93.5977L281.454 98.9785C279.849 101.055 277.017 101.716 274.657 100.583L274.563 100.536L267.53 111.486C266.586 112.902 266.492 114.743 267.341 116.254C267.766 117.009 268.238 117.622 268.757 118.142C270.692 120.077 271.448 122.909 270.928 125.599L268.946 136.03L295.331 143.63Z" fill="#E68799"/>
<path d="M278.811 90.4353C284.522 88.6417 285.419 85.0545 285.23 83.1665L278.15 86.9425L278.811 90.4353Z" fill="#422C4F"/>
<path d="M287.024 101.999L286.174 125.552C286.08 128.29 283.908 130.461 281.171 130.555L269.89 130.98L268.946 135.936L295.284 143.63L291.083 101.999H287.024Z" fill="#E36B85"/>
<path d="M279.613 119.747C279.566 119.747 279.566 119.747 279.613 119.747C277.253 119.133 275.082 117.67 273.666 115.687C273.619 115.64 273.619 115.546 273.713 115.546C273.76 115.499 273.855 115.499 273.855 115.593C275.223 117.528 277.347 118.944 279.66 119.558C279.707 119.558 279.755 119.652 279.755 119.699C279.707 119.699 279.66 119.747 279.613 119.747Z" fill="#422C4F"/>
<path d="M292.262 66.5049C293.442 61.9265 297.832 58.3865 302.505 58.1505C304.251 58.0561 306.139 58.4809 307.366 59.7081C308.405 60.7465 308.83 62.3041 308.924 63.7673C309.16 66.3633 308.594 69.0065 308.027 71.5553C307.414 74.1041 306.8 76.7001 306.8 79.2961C306.8 81.9393 307.555 84.6297 309.396 86.5177C304.582 87.3201 299.531 84.9129 296.652 80.9953C293.82 76.9833 291.035 71.2249 292.262 66.5049Z" fill="#EBA25D"/>
<path d="M272.958 77.0305C271.306 75.2369 270.22 72.8769 269.984 70.4225C269.795 68.8177 269.984 67.1185 270.645 65.6553C271.306 64.1921 272.533 62.9177 274.091 62.3513C275.601 61.7849 277.442 61.9737 278.716 62.9649C281.076 61.5489 284.003 61.1713 286.693 61.7849C289.383 62.3985 291.838 64.0977 293.301 66.4577C295.142 69.3369 295.519 73.0657 294.623 76.3697C293.726 79.5321 291.555 82.5057 288.439 83.5441C285.749 84.4409 282.775 83.8273 280.274 82.5057C277.819 81.1369 274.846 79.1073 272.958 77.0305Z" fill="#EBA25D"/>
<path d="M288.44 83.6384C288.392 83.6384 288.345 83.5912 288.345 83.544C288.345 83.4968 288.345 83.4024 288.44 83.4024C291.272 82.4584 293.584 79.7208 294.528 76.3224C295.472 72.924 295 69.2424 293.254 66.5048C291.744 64.192 289.384 62.4928 286.693 61.8792C286.646 61.8792 286.599 61.7848 286.599 61.7376C286.599 61.6904 286.693 61.6432 286.74 61.6432C289.478 62.2568 291.932 64.0032 293.443 66.3632C295.236 69.148 295.708 72.8768 294.764 76.3696C293.773 79.8624 291.366 82.6472 288.44 83.6384C288.487 83.6384 288.487 83.6384 288.44 83.6384Z" fill="#422C4F"/>
<path d="M276.262 68.3457C273.855 70.2809 272.25 72.9713 271.683 75.9921L271.447 77.2665L268.851 81.4201H271.589L271.967 85.4793C272.108 87.0369 273.147 88.3585 274.61 88.8777C275.601 89.2553 276.687 89.2081 277.631 88.7833L282.964 86.3761C284.144 85.8569 284.899 84.6769 284.899 83.3553V80.8537C283.955 80.4761 282.728 79.7681 282.303 78.8713C281.879 77.9745 281.831 76.8889 282.115 75.8977C279.613 74.2929 277.3 71.2249 276.262 68.3457Z" fill="#F2C9AD"/>
<path d="M286.174 77.9273C286.646 77.6913 287.212 77.5025 287.731 77.5969C288.25 77.6441 288.817 77.9745 289.053 78.4465C289.289 78.9185 289.242 79.4849 289.147 80.0041C288.958 80.9009 288.581 81.7033 288.014 82.4585C287.637 82.9777 287.118 83.4497 286.504 83.6857C285.89 83.9217 285.135 83.9217 284.616 83.4969C283.719 82.8361 284.002 81.4673 284.191 80.5705C284.474 79.4849 285.182 78.4937 286.174 77.9273Z" fill="#F2C9AD"/>
<path d="M285.749 82.9305C285.607 82.9305 285.418 82.8833 285.277 82.7889C284.852 82.4585 285.088 81.4673 285.229 80.8065C285.418 79.9097 285.985 79.1545 286.693 78.7769C286.976 78.6353 287.306 78.5409 287.542 78.5409C287.589 78.5409 287.637 78.5409 287.684 78.5409C287.967 78.5881 288.203 78.7297 288.297 78.9185C288.392 79.1073 288.392 79.4377 288.297 79.8625C288.109 80.6177 287.778 81.3257 287.353 81.9393C286.976 82.4113 286.645 82.7417 286.268 82.8833C286.032 82.8833 285.89 82.9305 285.749 82.9305Z" fill="#EBA58E"/>
<path d="M275.742 74.4345C276.828 74.6233 277.678 75.3313 278.15 76.2281L272.863 75.2369C273.618 74.5761 274.704 74.2457 275.742 74.4345Z" fill="#422C4F"/>
<path d="M275.271 78.4937C275.714 78.4937 276.073 78.1345 276.073 77.6913C276.073 77.2482 275.714 76.8889 275.271 76.8889C274.828 76.8889 274.468 77.2482 274.468 77.6913C274.468 78.1345 274.828 78.4937 275.271 78.4937Z" fill="#422C4F"/>
<path d="M277.395 83.6857C275.837 83.3553 274.232 83.3553 272.675 83.6857C272.769 84.2049 273.288 84.7241 273.713 85.0073C274.138 85.2905 274.704 85.4321 275.223 85.3377C276.026 85.2433 276.781 84.2993 277.395 83.6857Z" fill="white"/>
<path d="M259.883 133.293L290.799 142.308C296.133 143.866 301.372 139.665 301.042 134.142L300.098 118.094L289.289 119.652L290.139 133.529L267.388 130.65C265.453 130.414 263.518 130.886 261.913 131.924L259.883 133.293Z" fill="#F2C9AD"/>
<path d="M289.336 119.652L300.145 118.094L300.381 122.295C295.708 123.428 289.43 121.965 289.43 121.965L289.336 119.652Z" fill="#422C4F"/>
<path d="M290.044 91.4737C294.764 91.4737 298.776 94.9665 299.437 99.6393L302.08 118.944C296.652 121.398 288.345 121.304 288.345 121.304L287.071 101.999C286.835 98.3649 287.826 94.7777 289.856 91.7569L290.044 91.4737Z" fill="#E68799"/>
<path d="M288.109 118.472C288.062 118.472 288.015 118.425 288.015 118.378L286.929 101.999C286.788 100.017 287.024 98.0817 287.59 96.1465C287.59 96.0993 287.684 96.0521 287.732 96.0521C287.779 96.0521 287.826 96.1465 287.826 96.1937C287.26 98.0817 287.024 100.017 287.165 101.952L288.251 118.331C288.251 118.425 288.204 118.472 288.109 118.472Z" fill="#422C4F"/>
<path d="M301.561 115.215C301.514 115.215 301.467 115.168 301.467 115.121L299.343 99.6393C299.343 99.5921 299.39 99.4977 299.437 99.4977C299.484 99.4977 299.579 99.5449 299.579 99.5921L301.703 115.074C301.656 115.168 301.656 115.215 301.561 115.215Z" fill="#422C4F"/>
<path d="M294.339 134.142L271.825 131.31C271.778 131.31 271.731 131.263 271.731 131.169C271.731 131.122 271.778 131.074 271.872 131.074L294.387 133.906C294.434 133.906 294.481 133.954 294.481 134.048C294.481 134.142 294.387 134.142 294.339 134.142Z" fill="#422C4F"/>
<path d="M293.065 118.519C293.018 118.519 292.971 118.472 292.971 118.425C292.971 118.378 293.018 118.283 293.065 118.283C294.528 118.047 295.944 117.386 297.124 116.49C297.172 116.442 297.266 116.442 297.313 116.49C297.36 116.537 297.36 116.631 297.313 116.678C296.039 117.622 294.576 118.283 293.065 118.519Z" fill="#422C4F"/>
<path d="M224.766 186.676L225.805 182.381L228.731 175.254L220.849 172.044L219.244 175.915C218.536 177.661 217.12 179.03 215.374 179.643C215.704 180.729 215.893 181.862 215.798 182.995L224.766 186.676Z" fill="#F2C9AD"/>
<path d="M215.799 182.995C215.893 181.862 215.751 180.729 215.374 179.643C215.091 179.738 214.76 179.832 214.477 179.927L213.722 180.068C212.778 180.257 211.787 180.257 210.843 180.068L209.663 179.832C207.161 179.313 204.612 180.21 203.007 182.192L223.775 190.641L224.719 186.676L215.799 182.995Z" fill="#E68799"/>
<path d="M220.802 171.997L228.684 175.207L227.599 177.944L220.471 172.894L220.802 171.997Z" fill="#CCA184"/>
<path d="M218.159 171.195L233.546 140.279L245.723 146.556L236.095 179.124L218.159 171.195Z" fill="#4893D8"/>
<path d="M295.33 143.63L249.027 130.131C243.741 128.62 238.171 131.075 235.717 135.983L233.546 140.326L267.53 157.79H282.492C289.242 157.79 294.858 152.503 295.236 145.754L295.33 143.63Z" fill="#4893D8"/>
<path d="M281.029 139.571L250.916 130.791C250.868 130.791 250.821 130.697 250.821 130.65C250.821 130.603 250.916 130.555 250.963 130.555L281.076 139.335C281.124 139.335 281.171 139.429 281.171 139.476C281.124 139.523 281.076 139.571 281.029 139.571Z" fill="#422C4F"/>
<path d="M295.33 143.724C295.283 143.724 295.283 143.724 295.33 143.724L285.89 140.986C285.843 140.986 285.796 140.892 285.796 140.845C285.796 140.798 285.89 140.75 285.938 140.75L295.33 143.488C295.378 143.488 295.425 143.582 295.425 143.63C295.425 143.677 295.378 143.724 295.33 143.724Z" fill="#422C4F"/>
<path d="M243.599 145.47L238.266 146.414C233.735 147.217 230.383 151.04 230.147 155.666L228.212 192.34H249.358L246.29 159.3L267.53 157.79L243.599 145.47Z" fill="#4893D8"/>
<path d="M242.042 145.754L257.335 158.498L267.53 157.742L243.647 145.47L242.042 145.754Z" fill="#377FB5"/>
<path d="M230.761 152.834C230.667 152.786 230.619 152.739 230.667 152.692C231.894 149.435 234.82 146.981 238.266 146.367L243.599 145.423C243.647 145.423 243.741 145.47 243.741 145.518C243.741 145.565 243.694 145.659 243.647 145.659L238.313 146.603C234.962 147.217 232.13 149.577 230.903 152.786C230.855 152.786 230.808 152.834 230.761 152.834Z" fill="#422C4F"/>
<path d="M246.29 159.442C246.243 159.442 246.195 159.394 246.195 159.347C246.195 159.3 246.243 159.206 246.29 159.206L263.612 157.931C263.659 157.931 263.754 157.978 263.754 158.026C263.754 158.073 263.706 158.167 263.659 158.167L246.29 159.442Z" fill="#422C4F"/>
<path d="M228.873 179.785C228.779 179.785 228.731 179.738 228.779 179.643L229.959 157.742C229.959 157.695 230.006 157.648 230.053 157.648C230.1 157.648 230.147 157.695 230.147 157.79L228.967 179.69C229.015 179.738 228.967 179.785 228.873 179.785Z" fill="#422C4F"/>
<path d="M247.706 175.112C247.658 175.112 247.611 175.065 247.611 175.018L245.723 154.486C245.723 154.438 245.77 154.344 245.818 154.344C245.865 154.344 245.959 154.391 245.959 154.438L247.847 174.97C247.847 175.018 247.8 175.112 247.706 175.112C247.753 175.112 247.706 175.112 247.706 175.112Z" fill="#422C4F"/>
<path d="M242.089 204.423L241.428 200.081V192.387H232.932V196.588C232.932 198.476 232.13 200.27 230.761 201.497C231.469 202.346 232.036 203.385 232.413 204.47H242.089V204.423Z" fill="#F2C9AD"/>
<path d="M232.413 204.423C232.083 203.338 231.516 202.346 230.761 201.45C230.525 201.638 230.289 201.874 230.053 202.063L229.439 202.488C228.637 203.054 227.74 203.385 226.796 203.574L225.616 203.762C223.115 204.187 221.085 206.028 220.377 208.435H242.797L242.183 204.376H232.413V204.423Z" fill="#E68799"/>
<path d="M232.932 192.34H241.428V195.314L232.932 193.284V192.34Z" fill="#CCA184"/>
<path d="M310.812 166.38H313.125L313.739 171.902L311.284 170.581L310.812 166.38Z" fill="#422C4F"/>
<path d="M313.739 171.902L317.656 207.255H315.344L311.284 170.581L313.739 171.902Z" fill="#99A3B0"/>
<path d="M295.897 171.289L299.862 207.255H297.549L293.395 169.967L295.897 171.289Z" fill="#99A3B0"/>
<path d="M293.018 166.38H295.331L295.897 171.289L293.395 169.967L293.018 166.38Z" fill="#422C4F"/>
<path d="M288.298 166.38H290.611L290.044 171.43L287.873 170.25L288.298 166.38Z" fill="#422C4F"/>
<path d="M283.767 207.255L287.873 170.251L290.044 171.431L286.08 207.255H283.767Z" fill="#99A3B0"/>
<path d="M269.182 166.38H271.495L270.975 171.1L268.757 169.92L269.182 166.38Z" fill="#422C4F"/>
<path d="M264.603 207.255L268.757 169.92L270.975 171.1L266.916 207.255H264.603Z" fill="#99A3B0"/>
<path d="M326.435 98.0817V94.4001H318.506C309.16 94.4001 301.089 101.008 299.295 110.212L291.366 150.474C290.658 154.014 287.543 156.562 283.955 156.562H273.807C268.379 156.562 264.037 160.952 264.037 166.38H308.075C313.267 166.38 317.703 162.698 318.742 157.601L328.748 106.766C329.315 103.51 328.371 100.347 326.435 98.0817Z" fill="#797C99"/>
<path d="M326.624 157.601L336.631 106.766C337.905 100.347 332.996 94.4001 326.436 94.4001C317.09 94.4001 309.019 101.008 307.225 110.212L297.88 157.601C296.888 162.698 292.404 166.38 287.212 166.38H286.835H315.957C321.149 166.38 325.633 162.698 326.624 157.601Z" fill="#495375"/>
</svg>
