<svg width="60" height="60" viewBox="0 0 60 60" fill="none" xmlns="http://www.w3.org/2000/svg">
<rect width="60" height="60" rx="30" fill="#DD4B39"/>
<path d="M23.3249 27.05L19.2372 24.6899C18.4473 26.2861 18 28.0862 18 30C18 31.8873 18.4521 33.6905 19.2541 35.3008L23.3246 32.9507C22.9231 32.0467 22.6956 31.0496 22.6957 30C22.6957 28.9505 22.9233 27.9537 23.3249 27.05Z" fill="white"/>
<path d="M37.8714 20.9423C35.7625 19.1078 33.0067 17.998 29.9916 18C25.8666 18.0028 22.1847 20.1087 20.0215 23.3355L24.1125 25.6975C25.4429 23.8828 27.5831 22.6956 30 22.6957C31.7619 22.6957 33.377 23.3255 34.6385 24.3691C34.9473 24.6246 35.3987 24.6012 35.6821 24.3178L37.9101 22.0898C38.2314 21.7685 38.2142 21.2404 37.8714 20.9423Z" fill="white"/>
<path d="M41.9178 28.6116C41.8711 28.2143 41.5371 27.9136 41.1372 27.9136L31.3044 27.9131C30.8722 27.9131 30.5217 28.2635 30.5217 28.6957V31.8235C30.5217 32.2557 30.8721 32.6062 31.3044 32.6062H36.8144C36.3069 33.9271 35.4254 35.0626 34.3031 35.888L36.6435 39.9417C38.9992 38.3453 40.7904 35.9317 41.5793 33.0824C42.0082 31.5332 42.0854 30.0352 41.9178 28.6116Z" fill="white"/>
<path d="M32.95 36.674C32.0474 37.0761 31.051 37.3042 30.0003 37.3043C27.5806 37.3044 25.4416 36.1171 24.1122 34.3031L20.0386 36.655C22.1837 39.8501 25.8243 41.9999 30.0002 41.9999C31.8879 41.9999 33.6847 41.5384 35.2918 40.7304L32.95 36.674Z" fill="white"/>
</svg>
