<svg width="334" height="225" viewBox="0 0 334 225" fill="none" xmlns="http://www.w3.org/2000/svg">
<path fill-rule="evenodd" clip-rule="evenodd" d="M170.964 25.451C159.242 12.4232 148.38 0.351247 132.401 0.0117754C106.687 -0.534489 89.2695 17.9789 68.7561 44.3716C61.3819 53.8592 52.4784 62.0323 43.5599 70.2192C22.4334 89.6125 1.22221 109.084 0.0528271 146.292C-0.956469 178.406 12.6376 201.379 28.7491 222.466H330.727C343.231 172.427 301.325 113.399 274.703 77.3537C262.078 60.2603 246.053 58.8154 229.761 57.3462C217.351 56.2272 204.786 55.0941 193.449 47.0205C184.881 40.9186 177.777 33.0234 170.964 25.451Z" fill="#ECECF1"/>
<g clip-path="url(#clip0)">
<path d="M107.291 57.1766L107.276 57.1451C106.444 57.3654 105.519 57.3024 104.704 57.0036C103.982 56.7519 103.339 56.3428 102.727 55.8866C102.524 55.7451 102.367 55.572 102.163 55.7765C102.022 55.9181 101.975 56.1383 101.865 56.2956C101.661 56.6103 101.41 56.8777 101.096 57.0822C100.093 57.7587 98.7438 57.6328 97.5833 57.3025C94.7289 56.4844 92.2666 54.6124 90.2905 52.3786C89.0672 50.9942 88.0164 49.484 87.0284 47.9109C86.652 50.4908 85.8051 52.9921 84.5504 55.2731C83.829 56.5788 82.9821 57.8216 82.0097 58.9542C81.5549 59.4891 80.9432 59.961 80.5825 60.5431C80.1591 61.2353 80.0807 62.0218 79.9081 62.7927C79.7199 63.595 79.5004 64.3815 79.2337 65.1523C78.7005 66.694 77.9791 68.1885 77.1165 69.5728C76.8499 70.0133 76.4264 70.501 75.9246 70.3909C75.6266 70.3279 75.407 70.0605 75.2188 69.8088C74.0739 68.2986 72.4429 66.7884 70.5609 67.0401C68.7102 67.2761 67.4556 69.2582 67.4242 71.146C67.3928 72.6562 68.0045 74.1664 69.0553 75.2518C69.9492 76.1642 71.1568 76.7463 72.4115 76.9036C72.4272 77.5958 72.239 78.3037 71.8939 78.9172C71.7685 79.1217 71.6901 79.2633 71.5019 79.2948C71.9567 83.2433 72.3174 87.2076 72.7722 91.1404C72.7722 91.1876 72.7879 91.2348 72.7879 91.282C73.0075 93.1225 73.2113 94.9316 73.5093 96.7564C76.8656 99.5409 81.2883 101.193 85.6012 100.563C87.8125 100.249 90.1023 99.1161 91.0433 97.1497C79.9709 93.4057 77.5556 82.9759 77.5556 82.9759C80.112 86.2637 83.6565 88.8122 87.6871 89.8347C88.5653 90.0549 89.4593 90.1965 90.3533 90.2594C91.3727 90.3381 92.3921 90.3066 93.3958 90.1808H93.4115C93.5997 90.1493 93.7879 90.1336 93.9761 90.1021C93.9918 90.1021 94.0075 90.1021 94.0075 90.1021C95.9993 89.7718 97.9283 89.0167 99.5907 87.8526C102.351 85.9176 104.28 82.9601 105.456 79.7981C106.633 76.6362 107.119 73.2539 107.448 69.9032C107.903 65.6557 107.872 61.3768 107.291 57.1766ZM92.6273 69.6043C91.6863 69.6043 90.9335 68.8492 90.9335 67.9053C90.9335 66.9614 91.6863 66.2063 92.6273 66.2063C93.5683 66.2063 94.3211 66.9614 94.3211 67.9053C94.3211 68.8492 93.5683 69.6043 92.6273 69.6043ZM95.1837 61.424C95.1367 61.7544 94.823 62.0061 94.4937 61.9589C92.7842 61.7387 90.9806 62.0061 89.4123 62.7297C89.3338 62.7612 89.2397 62.7927 89.1613 62.7927C88.9261 62.7927 88.7065 62.6668 88.5967 62.4308C88.4556 62.1162 88.581 61.7544 88.8947 61.6128C90.6669 60.7948 92.7058 60.4802 94.6505 60.7319C94.9955 60.7791 95.2308 61.0937 95.1837 61.424ZM104.641 69.6043C103.7 69.6043 102.947 68.8492 102.947 67.9053C102.947 66.9614 103.7 66.2063 104.641 66.2063C105.582 66.2063 106.335 66.9614 106.335 67.9053C106.335 68.8492 105.582 69.6043 104.641 69.6043Z" fill="#FFC094"/>
<path d="M49.1686 182.586C46.7063 183.121 44.2284 183.577 41.7347 183.876C39.8998 184.096 37.9864 184.238 36.2299 183.609C33.5794 183.31 31.3053 180.95 30.2075 178.276C29.1096 175.602 28.9842 172.628 28.9842 169.734C28.9998 153.987 32.4188 138.429 36.9199 123.342C37.9394 119.96 39.0215 116.546 40.9662 113.605C43.9461 109.106 48.6824 106.069 53.5286 103.71C58.014 101.523 62.719 99.7927 67.032 97.3071C66.7653 97.8892 66.5458 98.4712 66.3576 99.0848C65.9969 100.217 65.84 101.35 65.6832 102.53C65.6205 102.939 65.6518 103.379 65.9028 103.71C66.1223 103.993 66.483 104.119 66.8124 104.229C68.8983 104.937 71.0155 105.629 73.1328 106.274V106.29C71.0469 106.4 68.9767 106.51 66.8908 106.62C66.4046 106.651 65.84 106.714 65.5891 107.155C65.4636 107.375 65.4636 107.643 65.4636 107.894C65.4793 108.885 65.6048 109.876 65.7302 110.852C66.8281 119.205 68.5376 127.495 70.8116 135.613C72.8034 142.692 76.7243 149.519 81.5547 155.088L81.5704 155.104C81.445 155.214 81.3195 155.324 81.194 155.434C80.2217 156.284 79.1866 157.086 78.073 157.731C77.1007 158.297 76.0969 158.612 75.0148 158.801C74.905 161.994 74.7952 165.187 74.6854 168.365C74.6384 169.561 74.607 170.756 74.56 171.952C74.56 172.156 74.5443 172.377 74.5443 172.581C74.5129 173.289 74.4972 173.981 74.4659 174.689C74.4502 175.161 74.5756 175.995 74.1522 176.341C73.9326 176.53 73.4151 176.561 73.1328 176.64C72.7564 176.734 72.3643 176.829 71.9722 176.939C70.4352 177.332 68.8826 177.725 67.3456 178.103C64.256 178.889 61.1664 179.66 58.0925 180.447C57.8415 180.51 57.6063 180.573 57.3553 180.636C54.6421 181.312 51.9132 182.004 49.1686 182.586Z" fill="#846E64"/>
<path d="M177.223 98.3453C177.568 98.7071 177.647 99.2892 177.506 99.7768C177.364 100.265 177.051 100.689 176.69 101.051C176.408 101.35 176.094 101.617 175.812 101.932C175.874 100.674 175.937 99.3993 176 98.1408C176.392 97.9363 176.925 98.0307 177.223 98.3453Z" fill="#FFC094"/>
<path d="M97.0657 175.617C96.6109 175.633 96.1561 175.633 95.7012 175.649C94.3368 175.68 92.9723 175.68 91.6079 175.696C90.9335 175.696 90.2434 175.696 89.569 175.696C89.2867 175.696 89.0201 175.743 88.8006 175.554C88.6124 175.397 88.5653 175.161 88.5339 174.925C88.4869 174.61 88.4398 174.296 88.3928 173.965C88.2987 173.32 88.2046 172.691 88.1105 172.046C88.0791 171.873 88.0634 171.7 88.0321 171.527C88.0948 171.511 88.1575 171.48 88.2203 171.464C90.2591 170.74 92 169.403 93.9761 168.538C96.0463 167.626 98.4301 167.169 100.657 166.839C101.708 166.682 102.774 166.572 103.841 166.509C104.453 166.477 105.143 166.43 105.566 166.005L105.613 166.037C105.394 167.736 105.158 169.435 104.923 171.118C104.798 171.983 104.672 172.848 104.547 173.714C104.484 174.107 104.468 174.485 104.249 174.831C104.123 175.004 103.966 175.161 103.778 175.287C103.559 175.428 103.386 175.428 103.135 175.428C102.555 175.46 101.99 175.476 101.41 175.491C100.265 175.538 99.1202 175.57 97.9596 175.601C97.646 175.617 97.3637 175.617 97.0657 175.617Z" fill="#A15A44"/>
<path d="M85.7267 151.312C84.2839 152.508 82.9665 153.845 81.5863 155.088L81.5706 155.072C81.3824 152.477 81.1472 149.897 80.9119 147.301C80.4571 142.377 79.9082 137.469 79.2809 132.561C78.6849 127.873 78.0262 123.201 77.2891 118.529C76.6931 114.659 76.0344 110.789 75.36 106.919C75.2503 106.29 75.1405 105.66 75.0307 105.031C74.6386 102.829 74.2308 100.626 73.8231 98.424C73.7133 97.8576 73.6192 97.307 73.5408 96.7407C76.897 99.5252 81.3197 101.177 85.6326 100.548C87.8753 100.217 90.2122 99.0689 91.1375 97.0396C91.4982 99.6825 91.9216 102.31 92.2824 104.937C92.3294 105.33 92.3921 105.739 92.4392 106.132C92.7999 108.791 93.1293 111.465 93.4586 114.139C93.835 117.207 94.1644 120.29 94.4937 123.358C94.8074 126.441 95.1054 129.525 95.372 132.592C95.6386 135.613 95.8738 138.633 96.0934 141.653V141.669H84.4877V144.721H85.2719C85.3817 146.892 85.5228 149.063 85.6954 151.25L85.7267 151.312Z" fill="#FFCC00"/>
<path d="M112 213.134C111.984 216.425 111.969 219.716 111.953 222.992L50 223.007V213.148C51.5218 213.148 56.6204 213.148 58.1422 213.148C60.2444 213.148 62.3467 213.148 64.4489 213.148C66.5982 213.148 68.7475 213.148 70.8968 213.148C72.9676 213.148 75.0385 213.148 77.1093 213.148C78.3016 213.148 79.996 213.148 81.0157 212.51C81.5805 212.156 81.9413 211.602 82.1609 211.007C88.5147 211.163 90.915 211.191 97.2844 211.12C97.3629 211.347 97.457 211.574 97.5668 211.787C98.461 213.319 100.297 213.148 101.928 213.148C103.685 213.148 105.442 213.148 107.184 213.148C108.203 213.148 111.012 213.134 112 213.134Z" fill="#A9735E"/>
<path d="M99.6692 108.209C101.975 119.063 102.147 130.61 101.081 141.685H96.0777V141.669C95.8582 138.649 95.6229 135.628 95.3563 132.608C95.0897 129.525 94.7917 126.441 94.478 123.374C94.1644 120.291 93.8193 117.223 93.4429 114.155C93.1136 111.481 92.7842 108.822 92.4235 106.148H92.4549C92.5647 106.101 92.6588 106.054 92.8156 106.007C93.2234 105.865 93.6311 105.723 94.0389 105.582C94.9485 105.66 95.8582 105.739 96.7678 105.818C97.5206 105.881 98.2891 105.833 98.8694 106.384C99.3556 106.825 99.5281 107.548 99.6692 108.209Z" fill="#846E64"/>
<path d="M177.396 84.3917C177.835 84.7221 178.07 85.3041 178.07 85.8547C178.055 86.4053 177.835 86.9559 177.506 87.3964C177.239 87.7739 176.91 88.0885 176.549 88.3717C176.627 86.9559 176.706 85.5401 176.8 84.1243C177.02 84.1715 177.223 84.2501 177.396 84.3917Z" fill="#FFC094"/>
<path d="M81.5706 155.057C76.7244 149.488 72.8036 142.66 70.8118 135.581C68.5377 127.464 66.8282 119.174 65.7304 110.82C65.6049 109.845 65.4795 108.854 65.4638 107.863C65.4638 107.611 65.4638 107.344 65.5892 107.123C65.8245 106.699 66.4048 106.62 66.891 106.589C68.9768 106.478 71.047 106.368 73.1329 106.258V106.242C73.87 106.463 74.6229 106.699 75.3757 106.903C76.05 110.773 76.7087 114.643 77.3047 118.513C78.0418 123.185 78.7005 127.857 79.2965 132.545C79.9238 137.453 80.4727 142.361 80.9276 147.285C81.1628 149.881 81.3824 152.461 81.5706 155.057Z" fill="#846E64"/>
<path d="M71.5175 79.2948C71.4705 79.3105 71.4234 79.3105 71.3764 79.3105C71.0313 79.3105 70.7333 79.1218 70.4667 78.9015C68.6631 77.4228 67.2516 75.5193 66.044 73.5057C65.0716 71.8854 64.2404 70.1707 63.5347 68.4088C63.221 67.6222 63.0485 66.584 62.5937 65.8603C62.2486 65.294 61.6684 64.885 61.3076 64.3029C60.9312 63.7051 60.6333 63.0444 60.4137 62.3522C59.9118 60.7791 59.802 59.0959 59.7393 57.4441C59.5825 53.2753 60.6176 48.729 63.0171 45.331C63.7386 44.3242 64.7266 43.5377 65.5578 42.641C70.5765 37.2294 78.7162 36.0653 81.9312 35.2788C82.8879 35.0428 83.8446 34.854 84.817 34.6967C88.7535 34.0517 92.8312 34.0832 96.5952 35.3102C103.966 37.7171 109.456 45.0636 109.706 52.8348C109.738 53.9832 109.644 55.2103 108.938 56.1069C108.515 56.6261 107.934 56.9722 107.291 57.1295C106.46 57.3497 105.535 57.2868 104.719 56.9879C103.998 56.7362 103.355 56.3272 102.743 55.871C102.539 55.7294 102.382 55.5563 102.178 55.7609C102.037 55.9024 101.99 56.1227 101.88 56.28C101.677 56.5946 101.426 56.862 101.112 57.0665C100.108 57.743 98.7595 57.6171 97.5989 57.2868C94.7445 56.4688 92.2823 54.5967 90.3062 52.3629C89.0829 50.9785 88.0321 49.4683 87.044 47.8952C86.6676 50.4751 85.8207 52.9764 84.566 55.2575C83.8446 56.5631 82.9977 57.8059 82.0253 58.9386C81.5705 59.4734 80.9589 59.9454 80.5982 60.5274C80.1747 61.2196 80.0963 62.0062 79.9238 62.777C79.7356 63.5793 79.516 64.3659 79.2494 65.1367C78.7162 66.6783 77.9947 68.1728 77.1321 69.5572C76.8655 69.9976 76.4421 70.4853 75.9402 70.3752C75.6422 70.3123 75.4227 70.0448 75.2345 69.7931C74.0896 68.2829 72.4585 66.7727 70.5765 67.0244C68.7259 67.2604 67.4712 69.2425 67.4398 71.1303C67.4085 72.6405 68.0201 74.1507 69.0709 75.2361C69.9648 76.1486 71.1725 76.7306 72.4271 76.8879C72.4428 77.5801 72.2546 78.288 71.9096 78.9015C71.7998 79.106 71.7214 79.2476 71.5175 79.2948Z" fill="#4D2B1D"/>
<path d="M177.553 92.6506C177.474 92.745 177.38 92.8237 177.286 92.9181C176.957 93.217 176.596 93.4844 176.251 93.7833C176.298 92.7765 176.361 91.7697 176.408 90.7629C176.439 90.3539 176.455 89.9449 176.486 89.5201C177.004 89.2999 177.663 89.4415 178.039 89.8662C178.415 90.3067 178.478 90.9674 178.29 91.518C178.133 91.9427 177.866 92.3203 177.553 92.6506Z" fill="#FFC094"/>
<path d="M177.553 92.6506C178.227 92.8394 178.619 93.626 178.541 94.3339C178.462 95.0575 177.992 95.6868 177.458 96.1902C177.004 96.6149 176.502 96.9925 176.063 97.4172C176.125 96.2059 176.188 94.9789 176.251 93.7676C176.596 93.4844 176.957 93.217 177.286 92.9023C177.364 92.8237 177.458 92.745 177.553 92.6506Z" fill="#FFC094"/>
<path d="M74.9679 189.602C75.0463 189.681 75.0463 189.807 75.0463 189.901C75.0463 190.247 75.0463 190.578 75.0306 190.924C75.0306 191.6 75.0149 192.292 75.0149 192.969C74.9993 194.337 74.9993 195.706 74.9836 197.075C74.9679 198.443 74.9679 199.812 74.9522 201.181C74.9522 201.527 74.9522 201.873 74.9365 202.219C74.9208 203.493 74.8895 204.846 74.1524 205.884C73.5093 206.781 72.3645 207.3 71.2823 207.174H60.9156C59.8178 207.3 58.6729 206.781 58.0456 205.884C57.3084 204.846 57.2771 203.493 57.2614 202.219C57.23 197.987 57.1987 193.755 57.1673 189.524C57.2928 189.524 57.4182 189.524 57.5437 189.524C57.8887 189.524 58.2338 189.524 58.5631 189.524C59.0807 189.524 59.5982 189.524 60.1158 189.524C60.7588 189.524 61.4018 189.524 62.0605 189.524C62.7976 189.524 63.519 189.524 64.2562 189.524C65.0247 189.524 65.7931 189.524 66.5773 189.524C67.3458 189.524 68.1143 189.524 68.8828 189.524C69.6042 189.524 70.3256 189.524 71.0471 189.524C71.6744 189.524 72.3017 189.524 72.9291 189.524C73.4309 189.524 73.9171 189.524 74.419 189.524C74.5131 189.524 74.6229 189.524 74.717 189.524C74.7797 189.571 74.9052 189.555 74.9679 189.602Z" fill="#846E64"/>
<path d="M53.4973 213.073C53.0895 213.073 52.6975 213.073 52.2897 213.073C51.7565 213.073 51.2232 213.073 50.69 213.073C50.345 213.073 49.749 213.215 49.4981 212.916C49.3255 212.696 49.404 212.413 49.3883 212.161C49.3255 210.714 49.2471 196.383 49.1687 182.586C51.9133 181.988 54.6422 181.312 57.3554 180.62C57.6063 180.557 57.8573 180.494 58.0925 180.431C61.1821 179.645 64.2561 178.874 67.3457 178.087C68.8827 177.694 70.4353 177.301 71.9723 176.923C72.3644 176.829 72.7408 176.734 73.1329 176.624C73.4308 176.545 73.9327 176.514 74.1523 176.325C74.5757 175.979 74.4503 175.145 74.4659 174.673C74.4973 173.966 74.513 173.273 74.5444 172.565C74.5444 172.361 74.56 172.141 74.56 171.936C77.1007 171.747 79.7042 172.094 82.2449 172.172V172.188C82.2919 175.24 82.3233 178.307 82.3703 181.359C82.4174 184.411 82.4488 187.479 82.4958 190.531C82.5272 193.582 82.5742 196.65 82.6213 199.702C82.6683 203.037 82.8252 206.356 82.3233 209.66C82.2763 210.006 82.1978 210.352 82.0724 210.682C81.8528 211.343 81.4921 211.956 80.9275 212.35C79.9081 213.058 78.2299 213.058 77.0223 213.058C74.9521 213.058 72.8819 213.058 70.8117 213.058C68.6631 213.058 66.5145 213.058 64.3659 213.058C62.2643 213.058 60.1627 213.058 58.0612 213.058C56.5399 213.073 55.0186 213.073 53.4973 213.073ZM75.0462 189.901C75.0462 189.807 75.0619 189.681 74.9678 189.602C74.8894 189.539 74.7796 189.555 74.6855 189.555C74.5914 189.555 74.4816 189.555 74.3875 189.555C73.8857 189.555 73.3995 189.555 72.8976 189.555C72.2703 189.555 71.6429 189.555 71.0156 189.555C70.2942 189.555 69.5727 189.555 68.8513 189.555C68.0828 189.555 67.3143 189.555 66.5459 189.555C65.7774 189.555 65.0089 189.555 64.2247 189.555C63.4876 189.555 62.7662 189.555 62.029 189.555C61.386 189.555 60.743 189.555 60.0843 189.555C59.5668 189.555 59.0492 189.555 58.5317 189.555C58.1866 189.555 57.8573 189.555 57.5122 189.555C57.3868 189.555 57.2613 189.555 57.1358 189.555C57.1672 193.787 57.1986 198.019 57.2299 202.25C57.2456 203.525 57.277 204.877 58.0141 205.916C58.6571 206.812 59.802 207.331 60.8842 207.206H71.2509C72.3487 207.331 73.4936 206.812 74.1209 205.916C74.858 204.877 74.8894 203.525 74.9051 202.25C74.9051 201.904 74.9051 201.558 74.9208 201.212C74.9364 199.843 74.9364 198.475 74.9521 197.106C74.9678 195.738 74.9678 194.369 74.9835 193C74.9835 192.324 74.9992 191.632 74.9992 190.955C75.0462 190.593 75.0462 190.247 75.0462 189.901Z" fill="#846E64"/>
<path d="M97.0658 175.617C97.0658 179.157 97.0658 182.681 97.0501 186.22C97.0501 190.814 97.0345 195.392 97.0345 199.985C97.0345 202.03 97.0345 204.075 97.0345 206.105C97.0345 207.048 97.0658 208.008 97.0188 208.952C96.9874 209.581 97.0345 210.226 97.1913 210.824C90.8395 210.903 88.4243 210.871 82.0725 210.698C82.1823 210.368 82.2607 210.022 82.3235 209.676C82.8253 206.372 82.6685 203.053 82.6215 199.718C82.5744 196.666 82.543 193.598 82.496 190.546C82.4489 187.494 82.4176 184.427 82.3705 181.375C82.3392 178.323 82.2921 175.256 82.2451 172.204V172.188C84.2055 172.251 86.1345 172.156 87.9852 171.543C88.0165 171.716 88.0322 171.889 88.0636 172.062C88.1577 172.707 88.2518 173.336 88.3459 173.981C88.3929 174.296 88.44 174.611 88.487 174.941C88.5184 175.161 88.5654 175.413 88.7536 175.57C88.9889 175.759 89.2555 175.712 89.5221 175.712C90.1965 175.712 90.8866 175.712 91.561 175.712C92.9254 175.712 94.2899 175.696 95.6543 175.665C96.1562 175.633 96.611 175.633 97.0658 175.617Z" fill="#FFCC00"/>
<path d="M72.6782 91.1561L72.788 91.1404C72.788 91.1876 72.8037 91.2348 72.8037 91.282C73.0233 93.1225 73.2272 94.9316 73.5251 96.7564C73.6192 97.3228 73.7133 97.8734 73.8074 98.4397C74.2152 100.642 74.623 102.844 75.0151 105.047C75.1248 105.676 75.2346 106.305 75.3444 106.935C74.5916 106.714 73.8545 106.494 73.1017 106.274C70.9844 105.629 68.8829 104.952 66.7813 104.229C66.452 104.119 66.0912 103.993 65.8717 103.71C65.6207 103.395 65.6051 102.939 65.6521 102.53C65.8089 101.35 65.9815 100.233 66.3265 99.0847C66.5147 98.4711 66.7499 97.8891 67.0009 97.307C68.2242 94.7114 70.1219 92.5405 72.6782 91.1561Z" fill="#846E64"/>
<path d="M106.758 155.733C106.727 156.126 106.68 156.519 106.648 156.897C106.429 156.708 106.162 156.551 105.895 156.472C105.707 156.409 105.519 156.378 105.331 156.362V156.331C105.927 156.315 106.397 156.063 106.742 155.701L106.758 155.733Z" fill="#664D48"/>
<path d="M112.984 189.555C112.984 191.679 112.984 193.803 112.969 195.926C112.953 198.412 112.922 200.882 112.859 203.367C112.828 204.641 112.796 205.916 112.765 207.206H112.592H105.739C104.641 207.331 103.496 206.812 102.869 205.916C102.132 204.877 102.1 203.524 102.084 202.25C102.053 198.019 102.022 193.787 101.99 189.555L112.922 189.571H112.984V189.555Z" fill="#846E64"/>
<path d="M85.9932 151.092C85.8991 151.171 85.8207 151.234 85.7266 151.312L85.6795 151.265C85.507 149.094 85.3659 146.923 85.2561 144.737H107.573C107.464 146.923 107.323 149.094 107.15 151.265C107.087 151.942 107.04 152.634 106.977 153.31C106.632 152.791 106.036 152.414 105.409 152.225C104.468 151.926 103.464 151.973 102.476 152.036C100.861 152.146 99.2299 152.288 97.6145 152.461C96.799 152.555 95.9991 152.65 95.1993 152.76C94.8072 152.807 94.4151 152.87 94.023 152.933C93.7564 152.964 93.3173 153.137 93.1918 152.791C93.0507 152.429 93.8035 152.068 94.0387 151.91C94.4151 151.659 94.8229 151.438 95.2307 151.234C96.0462 150.841 96.8931 150.526 97.7714 150.306C99.6847 149.818 101.661 149.708 103.606 149.44C104.186 149.362 104.782 149.267 105.299 148.984C105.817 148.701 106.24 148.182 106.272 147.6C106.303 146.955 105.848 146.373 105.284 146.058C104.719 145.744 104.06 145.681 103.417 145.634C97.1911 145.162 90.8393 147.159 85.9932 151.092Z" fill="#A15A44"/>
<path d="M105.644 164.149C105.111 163.394 104.311 163.3 103.48 163.253C102.414 163.205 101.347 163.205 100.265 163.237C100.187 163.237 100.124 163.237 100.045 163.237C99.1202 163.268 98.2105 163.331 97.2852 163.426C96.8304 163.473 96.3756 163.52 95.9051 163.583C95.6385 163.614 95.3248 163.74 95.1052 163.52C94.4936 162.906 96.4383 162.277 96.7834 162.12C97.5518 161.79 98.3517 161.522 99.1515 161.286C101.096 160.751 103.104 160.468 105.048 159.917C105.488 159.792 105.974 159.603 106.366 159.335C106.178 161.034 105.974 162.718 105.77 164.417C105.754 164.322 105.691 164.228 105.644 164.149Z" fill="#A15A44"/>
<path d="M94.6505 60.7318C94.9799 60.7789 95.2308 61.0936 95.1838 61.4239C95.1367 61.7543 94.8231 62.006 94.4937 61.9588C92.7842 61.7386 90.9806 62.006 89.4123 62.7296C89.3339 62.7611 89.2398 62.7926 89.1614 62.7926C88.9261 62.7926 88.7066 62.6667 88.5968 62.4307C88.4556 62.1161 88.5811 61.7543 88.8948 61.6127C90.667 60.7789 92.7215 60.48 94.6505 60.7318Z" fill="#3D2217"/>
<path d="M92.4234 106.132C92.3764 105.739 92.3136 105.33 92.2666 104.937C91.9059 102.294 91.4824 99.6667 91.1217 97.0396C91.059 96.6463 91.0119 96.2373 90.9649 95.844C90.7923 94.4282 90.5885 93.0281 90.4787 91.6123C91.7177 92.2573 92.8469 93.091 93.8192 94.0821C94.823 95.1046 95.3876 96.5519 96.0933 97.8104C96.1874 97.9677 96.2658 98.1408 96.3599 98.2981C96.7363 98.9903 97.1127 99.6824 97.5205 100.375C97.9596 101.098 98.3988 101.901 98.634 102.719C98.8536 103.458 98.1322 103.898 97.5519 104.166C96.407 104.685 95.2307 105.157 94.0545 105.582C93.6467 105.723 93.2389 105.881 92.8312 106.006C92.69 106.054 92.5802 106.101 92.4705 106.148L92.4234 106.132Z" fill="#846E64"/>
<path d="M105.289 69.4768C106.152 69.1154 106.559 68.1204 106.199 67.2545C105.839 66.3886 104.847 65.9797 103.984 66.3412C103.12 66.7026 102.713 67.6975 103.073 68.5634C103.433 69.4293 104.425 69.8382 105.289 69.4768Z" fill="#3D2217"/>
<path d="M94.3007 68.1436C94.4265 67.2138 93.7771 66.3578 92.8501 66.2316C91.9232 66.1054 91.0697 66.7568 90.9439 67.6866C90.8181 68.6164 91.4675 69.4724 92.3945 69.5986C93.3214 69.7248 94.1749 69.0734 94.3007 68.1436Z" fill="#3D2217"/>
<path d="M94.0401 90.0708C94.0238 90.0708 94.0074 90.0708 94.0074 90.0708C94.0074 90.0872 94.0238 90.0872 94.0401 90.0708Z" fill="#FFC094"/>
<path d="M77.587 82.9602C77.587 82.9602 80.0023 93.39 91.0747 97.1341C91.0904 97.1026 91.1061 97.0711 91.1218 97.0397C91.059 96.6464 91.012 96.2374 90.9649 95.8441C90.7924 94.4283 90.5885 93.0282 90.4787 91.6124C90.4631 91.5023 90.4631 91.3922 90.4474 91.282C90.4317 90.9674 90.4003 90.6528 90.3846 90.3382V90.2595C89.4907 90.1966 88.5967 90.055 87.7185 89.8348C83.6879 88.8122 80.1277 86.248 77.587 82.9602Z" fill="#FA886C"/>
<path d="M112.404 150.085L112.388 150.164C112.451 153.955 112.529 157.762 112.592 161.554C114.066 164.149 115.65 166.698 117.705 168.853C119.556 170.819 121.892 172.455 124.433 173.305C118.254 168.051 114.223 156.394 112.404 150.085Z" fill="#756158"/>
<path d="M159.266 127.417C158.654 126.803 158.043 126.205 157.431 125.592C155.8 124.003 154.153 122.414 152.553 120.794C149.558 117.758 151.675 119.992 147.629 115.713C147.252 116.326 146.766 116.987 145.919 118.529C141.073 127.338 135.615 135.77 130.079 144.139L130.064 144.123C126.645 136.572 123.382 128.958 120.324 121.266C118.223 115.996 116.09 110.506 111.996 106.589C110.146 104.811 107.934 103.427 105.676 102.2C102.712 100.611 99.5908 99.2892 96.3914 98.251L96.36 98.2667C96.7364 98.9589 97.1128 99.6511 97.5206 100.343C97.9597 101.067 98.3989 101.869 98.6341 102.687C98.8537 103.427 98.1322 103.867 97.552 104.134C96.4071 104.654 95.2308 105.126 94.0546 105.55C94.9642 105.629 95.8738 105.708 96.7835 105.786C97.5363 105.849 98.3048 105.802 98.885 106.353C99.3869 106.825 99.5594 107.532 99.7006 108.209C102.006 119.063 102.179 130.61 101.112 141.685H108.577V144.737H107.605C107.495 146.923 107.354 149.094 107.182 151.265C107.119 151.942 107.072 152.634 107.009 153.31C107.182 153.562 107.291 153.845 107.323 154.176C107.385 154.695 107.182 155.293 106.758 155.717L106.789 155.749C106.758 156.142 106.711 156.535 106.68 156.913C107.025 157.212 107.26 157.621 107.244 158.077C107.229 158.612 106.884 159.037 106.429 159.335C106.241 161.034 106.037 162.718 105.833 164.417C106.052 164.904 106.021 165.518 105.66 165.911C105.629 165.943 105.613 165.974 105.582 165.99L105.629 166.021C105.409 167.72 105.174 169.419 104.939 171.102C104.813 171.968 104.688 172.833 104.562 173.698C104.5 174.091 104.484 174.469 104.264 174.815C104.139 174.988 103.982 175.145 103.794 175.271C103.574 175.413 103.402 175.413 103.151 175.413C102.571 175.444 102.006 175.46 101.426 175.476C100.281 175.523 99.136 175.554 97.9754 175.586C97.6774 175.586 97.3951 175.602 97.0971 175.602C97.0971 179.141 97.0971 182.665 97.0815 186.204C97.0815 190.798 97.0658 195.376 97.0658 199.969C97.0658 202.014 97.0658 204.059 97.0658 206.089C97.0658 207.033 97.0971 207.992 97.0501 208.936C97.0187 209.565 97.0658 210.21 97.2226 210.808C97.301 211.06 97.3951 211.312 97.5049 211.547C98.3989 213.246 100.234 213.058 101.865 213.058C103.621 213.058 105.378 213.058 107.119 213.058C108.107 213.058 109.111 213.058 110.099 213.058C110.271 213.058 110.459 213.058 110.632 213.058C110.93 213.058 111.228 213.058 111.526 213.058C111.761 213.058 112.012 213.089 112.232 213.01C112.577 212.885 112.577 212.507 112.592 212.192C112.608 211.721 112.639 211.249 112.655 210.777C112.702 209.581 112.749 208.385 112.78 207.174H112.608H105.754C104.657 207.3 103.512 206.781 102.884 205.884C102.147 204.846 102.116 203.493 102.1 202.219C102.069 197.987 102.037 193.755 102.006 189.524L112.937 189.539H113.016C113.016 189.193 113.016 188.832 113.016 188.47C113 185.984 112.984 183.514 112.953 181.029C112.922 178.543 112.89 176.073 112.843 173.588C112.796 171.118 112.765 168.648 112.718 166.194C112.686 164.637 112.655 163.079 112.639 161.522C112.577 157.731 112.498 153.924 112.435 150.133L112.451 150.054C114.27 156.362 118.301 168.035 124.496 173.289C126.127 173.84 127.837 174.06 129.562 173.84C132.808 173.415 135.678 171.464 137.858 169.026C140.038 166.588 141.606 163.677 143.159 160.798C144.759 157.825 146.343 154.868 147.943 151.895C149.385 149.205 150.828 146.53 152.24 143.824C153.683 141.056 155.11 138.271 156.474 135.455C157.149 134.055 157.823 132.639 158.466 131.208C158.795 130.5 159.109 129.776 159.423 129.069C159.611 128.534 159.752 127.92 159.266 127.417Z" fill="#846E64"/>
<path d="M169.962 112.079C169.931 112.079 169.915 112.079 169.884 112.079C167.751 112.079 165.618 112.11 163.485 112.173C162.857 112.189 162.23 112.204 161.603 112.22C163.94 112.849 166.292 113.353 168.676 113.746C169.162 113.243 169.601 112.692 169.962 112.079Z" fill="#FA886C"/>
<path d="M161.587 112.22C161.305 112.22 161.023 112.236 160.74 112.236C159.736 112.267 158.748 112.142 158.043 111.324C157.572 110.773 157.368 110.018 157.353 109.279C157.337 108.649 157.525 108.051 157.541 107.438C157.556 106.982 157.462 106.557 157.494 106.101C157.588 104.811 157.698 103.521 157.807 102.247C158.027 99.8712 158.278 97.4801 158.56 95.1204C158.748 94.9002 158.952 94.6799 159.14 94.4754C160.332 93.1855 161.399 91.7696 162.324 90.2752C162.732 89.6145 163.124 88.8908 163.171 88.1043C163.202 87.3177 162.779 86.4682 162.026 86.248C161.101 85.9963 160.238 86.7514 159.595 87.4593C159.282 87.7896 158.984 88.12 158.686 88.4661C157.682 89.583 156.678 90.6999 155.706 91.8326C154.373 93.39 153.055 94.9788 152.13 96.8036C149.73 101.492 150.107 107.076 148.868 112.205C148.366 114.297 148.084 114.973 147.629 115.713C151.675 119.992 149.558 117.773 152.553 120.794C154.153 122.414 155.8 123.987 157.431 125.592L157.447 125.576C158.952 122.776 161.085 120.212 163.375 118.041C165.006 116.483 167.092 115.351 168.66 113.73C166.292 113.353 163.924 112.85 161.587 112.22Z" fill="#FFC094"/>
<path d="M74.7011 168.365C74.6541 169.561 74.6227 170.756 74.5757 171.952C75.4383 171.889 76.3009 171.889 77.1791 171.905C76.2381 167.877 75.501 163.787 74.9835 159.681C74.8894 162.576 74.7952 165.471 74.7011 168.365Z" fill="#FA886C"/>
<path d="M106.633 156.897C106.413 156.708 106.162 156.551 105.88 156.472C105.692 156.409 105.503 156.378 105.315 156.362V156.331C105.911 156.315 106.382 156.063 106.727 155.702C107.134 155.277 107.338 154.679 107.291 154.16C107.26 153.845 107.15 153.546 106.978 153.295C106.633 152.776 106.037 152.398 105.409 152.209C104.468 151.91 103.465 151.957 102.476 152.02C100.861 152.131 99.23 152.272 97.6146 152.445C96.7991 152.54 95.9992 152.634 95.1994 152.744C94.8073 152.791 94.4152 152.854 94.0231 152.917C93.7565 152.949 93.3174 153.122 93.1919 152.776C93.0508 152.414 93.8036 152.052 94.0388 151.895C94.4152 151.643 94.823 151.423 95.2308 151.218C96.0463 150.825 96.8932 150.51 97.7715 150.29C99.6848 149.802 101.661 149.692 103.606 149.425C104.186 149.346 104.782 149.252 105.299 148.969C105.817 148.685 106.24 148.166 106.272 147.584C106.303 146.939 105.848 146.357 105.284 146.043C104.719 145.728 104.06 145.665 103.417 145.618C97.2069 145.177 90.8551 147.159 86.009 151.092C85.9149 151.171 85.8364 151.234 85.7423 151.313C84.2995 152.508 82.9821 153.845 81.6019 155.088C81.4765 155.198 81.351 155.308 81.2255 155.418C80.2532 156.268 79.2181 157.07 78.1045 157.715C77.1322 158.281 76.1284 158.596 75.0463 158.785C75.0306 159.084 75.0306 159.383 75.0149 159.682C75.5325 163.787 76.2696 167.877 77.2106 171.905C78.9044 171.952 80.6139 172.125 82.3077 172.188C84.2681 172.251 86.1972 172.156 88.0478 171.543C88.1105 171.527 88.1733 171.496 88.236 171.48C90.2748 170.756 92.0157 169.419 93.9918 168.554C96.062 167.642 98.4458 167.185 100.673 166.855C101.724 166.698 102.79 166.588 103.857 166.525C104.468 166.493 105.158 166.446 105.582 166.021C105.613 165.99 105.629 165.974 105.66 165.943C106.005 165.549 106.037 164.936 105.833 164.448C105.786 164.354 105.739 164.259 105.676 164.181C105.143 163.426 104.343 163.331 103.512 163.284C102.445 163.237 101.379 163.237 100.296 163.268C100.218 163.268 100.155 163.268 100.077 163.268C99.1516 163.3 98.242 163.363 97.3166 163.457C96.8618 163.504 96.407 163.551 95.9365 163.614C95.6699 163.646 95.3562 163.772 95.1367 163.551C94.525 162.938 96.4697 162.309 96.8148 162.151C97.5833 161.821 98.3831 161.554 99.183 161.318C101.128 160.783 103.135 160.5 105.08 159.949C105.519 159.823 106.005 159.634 106.397 159.367C106.852 159.052 107.181 158.643 107.213 158.108C107.213 157.621 106.993 157.196 106.633 156.897Z" fill="#FFC094"/>
<path d="M54.611 138.146L53.7484 161.506L49.8275 161.931L54.611 138.146Z" fill="#756158"/>
<path d="M159.172 97.48C160.207 96.253 161.132 94.9316 161.932 93.5472C162.481 92.5876 162.998 91.5808 163.155 90.4953C163.249 89.929 163.218 89.3155 163.077 88.7649C162.92 89.2998 162.638 89.8032 162.34 90.2751C161.493 91.6437 160.52 92.9494 159.438 94.1607L159.391 95.4979C159.329 96.1586 159.25 96.8193 159.172 97.48Z" fill="#E3E3E3"/>
<path d="M163.171 90.4954C162.998 91.5808 162.497 92.5876 161.948 93.5472C161.132 94.9316 160.207 96.253 159.187 97.48C158.999 99.1161 158.842 100.752 158.701 102.325C158.576 103.647 158.482 104.937 158.388 106.164C158.372 106.352 158.388 106.557 158.403 106.761C158.419 106.966 158.435 107.202 158.435 107.454C158.419 107.784 158.372 108.099 158.325 108.398C158.278 108.696 158.231 108.98 158.231 109.247C158.246 109.861 158.419 110.395 158.717 110.741C159.109 111.198 159.705 111.386 160.74 111.355C161.242 111.339 161.744 111.324 162.246 111.324C162.653 111.324 163.077 111.308 163.485 111.292C165.618 111.229 166.919 111.198 169.052 111.198H169.57C170.276 111.198 170.777 111.182 171.499 111.229C171.938 111.261 172.55 111.213 172.942 110.883C173.177 110.679 173.35 110.332 173.444 109.923C173.553 109.436 173.585 108.854 173.6 108.303L173.616 108.02C173.647 107.501 173.663 106.997 173.695 106.494C173.71 106.195 173.726 105.912 173.742 105.613C173.804 104.386 173.851 103.143 173.914 101.901V101.885C173.977 100.626 174.04 99.3521 174.102 98.0936L174.165 96.898C174.228 95.844 174.275 94.7743 174.338 93.7203L174.353 93.563C174.4 92.6033 174.463 91.6437 174.51 90.6841L174.588 89.4414C174.604 89.0638 174.636 88.6863 174.651 88.3087C174.73 86.8929 174.808 85.4771 174.902 84.0613L174.918 83.8725C174.949 83.4478 174.965 83.0388 174.996 82.614C175.028 82.1893 175.059 81.7645 175.09 81.3398C175.153 80.4746 175.232 79.5779 175.232 78.7127C175.232 78.5553 175.232 78.3823 175.232 78.225C175.247 77.3126 175.232 76.7777 174.839 76.2429C174.149 75.3304 172.879 75.3776 171.17 75.5507C170.903 75.5821 170.652 75.5979 170.417 75.6293C168.566 75.7709 167.703 75.944 165.586 76.1327C165.335 76.1642 165.053 76.1799 164.771 76.1957C163.657 76.2743 162.387 76.353 161.697 76.9193C161.258 77.2811 160.913 77.8474 160.677 78.5553C160.27 79.7824 160.191 81.1667 160.113 82.5039C160.081 82.9286 160.066 83.3376 160.019 83.7624L159.815 86.1221L159.768 87.3491C160.411 86.6727 161.226 85.9962 162.105 86.2322C162.857 86.4367 163.281 87.3019 163.249 88.0885C163.234 88.3087 163.202 88.529 163.14 88.7335C163.234 89.3155 163.249 89.9133 163.171 90.4954Z" fill="white"/>
<path d="M159.407 95.4822L159.454 94.145C159.36 94.2551 159.266 94.3653 159.172 94.4596C158.968 94.6799 158.78 94.8844 158.592 95.1046C158.45 96.253 158.325 97.4171 158.199 98.5812C158.544 98.2194 158.874 97.8419 159.188 97.4643C159.25 96.8193 159.329 96.1586 159.407 95.4822Z" fill="#292710"/>
<path d="M176.549 75.7396C175.357 74.135 173.067 74.6541 171.358 74.78C169.382 74.9373 167.406 75.1103 165.429 75.2834C164.081 75.4092 162.167 75.3463 161.069 76.2587C160.442 76.7779 160.034 77.5172 159.783 78.2881C159.219 80.0028 159.234 81.9063 159.093 83.6839C158.968 85.2727 158.827 86.8459 158.701 88.4347C158.999 88.1044 159.313 87.7583 159.611 87.4279C159.642 87.3965 159.674 87.365 159.705 87.3335L159.752 86.1065L159.956 83.7468C159.987 83.3378 160.019 82.9131 160.05 82.4883C160.128 81.1512 160.223 79.7511 160.615 78.5398C160.85 77.8319 161.195 77.2655 161.634 76.9037C162.308 76.3374 163.579 76.2587 164.708 76.1801C164.99 76.1643 165.273 76.1486 165.524 76.1171C167.656 75.9126 168.503 75.7553 170.354 75.6138C170.589 75.598 170.856 75.5666 171.107 75.5351C172.832 75.3621 174.102 75.2991 174.777 76.2273C175.169 76.7621 175.184 77.297 175.169 78.2094C175.169 78.3667 175.169 78.524 175.169 78.6971C175.169 79.5623 175.106 80.459 175.028 81.3242C174.996 81.7489 174.965 82.1737 174.934 82.5984C174.902 83.0232 174.886 83.4322 174.855 83.8569L174.839 84.0457C174.761 85.4615 174.667 86.8773 174.588 88.2931C174.557 88.6707 174.541 89.0482 174.526 89.4258L174.447 90.6686C174.4 91.6282 174.338 92.5878 174.291 93.5474L174.275 93.7047C174.212 94.7587 174.165 95.8284 174.102 96.8824L174.04 98.078C173.977 99.3365 173.914 100.611 173.851 101.869V101.885C173.789 103.128 173.726 104.355 173.679 105.598C173.663 105.896 173.647 106.18 173.632 106.478C173.616 106.982 173.585 107.501 173.553 108.004L173.538 108.288C173.506 108.838 173.475 109.42 173.381 109.908C173.287 110.333 173.114 110.663 172.879 110.868C172.487 111.198 171.875 111.245 171.436 111.214C170.715 111.166 170.197 111.166 169.507 111.182H168.99C166.857 111.182 165.555 111.214 163.422 111.277C163.014 111.292 162.591 111.292 162.183 111.308C161.681 111.324 161.179 111.324 160.677 111.339C159.642 111.371 159.062 111.198 158.654 110.726C158.356 110.38 158.184 109.845 158.168 109.231C158.168 108.964 158.199 108.681 158.262 108.382C158.309 108.083 158.356 107.768 158.372 107.438C158.372 107.186 158.356 106.95 158.341 106.746C158.325 106.526 158.309 106.337 158.325 106.148C158.419 104.921 158.513 103.615 158.639 102.31C158.78 100.721 158.952 99.1005 159.125 97.4645C158.811 97.842 158.482 98.2196 158.137 98.5814C158.011 99.8084 157.886 101.02 157.776 102.247C157.666 103.537 157.556 104.827 157.462 106.101C157.431 106.557 157.525 106.982 157.509 107.438C157.494 108.052 157.305 108.649 157.321 109.279C157.337 110.018 157.541 110.757 158.011 111.324C158.701 112.142 159.705 112.268 160.709 112.236C161.618 112.205 162.528 112.205 163.438 112.173C165.571 112.11 167.704 112.079 169.836 112.079C169.868 112.079 169.883 112.079 169.915 112.079C170.762 112.079 171.609 112.063 172.456 112.11C173.177 112.157 173.945 112.047 174.51 111.56C174.934 111.198 175.169 110.663 175.294 110.128C175.435 109.467 175.451 108.744 175.482 108.083C175.53 107.281 175.561 106.478 175.592 105.66C175.655 104.418 175.718 103.175 175.765 101.932C175.827 100.674 175.89 99.3994 175.953 98.1409C175.969 97.9049 175.984 97.6532 175.984 97.4173C176.047 96.206 176.11 94.9789 176.173 93.7676C176.22 92.7608 176.282 91.754 176.329 90.7472C176.361 90.3382 176.376 89.9292 176.408 89.5045C176.423 89.1269 176.455 88.7494 176.471 88.3718C176.549 86.956 176.627 85.5402 176.721 84.1244C176.753 83.6367 176.784 83.1648 176.8 82.6771C176.878 81.3557 177.035 80.0342 177.035 78.7128C177.098 77.6431 177.239 76.6677 176.549 75.7396Z" fill="#292710"/>
<path d="M229.778 40.1397C225.214 42.8926 222.407 48.3199 222.768 53.6528C222.846 54.7855 223.066 55.9496 223.646 56.9249C224.226 57.9003 225.214 58.6868 226.344 58.7969C227.598 58.9228 228.774 58.2464 229.888 57.6643C231.268 56.9407 232.742 56.3429 234.279 56.0912C235.816 55.8237 237.432 55.9181 238.875 56.5159C240.019 56.9879 241.07 57.8059 242.309 57.8531C243.532 57.9003 244.693 57.1452 245.415 56.1541C246.136 55.1473 246.465 53.936 246.685 52.7089C247.061 50.601 247.108 48.3986 246.606 46.3063C246.105 44.2141 245.038 42.2319 243.407 40.8318C241.948 39.5733 240.098 38.8182 238.2 38.4722C236.302 38.1261 234.358 38.189 232.444 38.3935L229.778 40.1397Z" fill="#453D3F"/>
<path d="M247.657 64.7905C248.567 64.7905 249.288 65.5299 249.288 66.4266C249.288 67.339 248.551 68.0626 247.657 68.0626C246.763 68.0626 246.026 67.3233 246.026 66.4266C246.026 65.5142 246.763 64.7905 247.657 64.7905Z" fill="#211D1E"/>
<path d="M245.775 58.7969C245.43 58.9699 245.038 59.0486 244.771 58.6395C244.599 58.3721 244.63 58.0103 244.771 57.7114C244.771 57.6957 244.787 57.6957 244.787 57.6799C245.116 58.0732 245.446 58.4508 245.775 58.7969Z" fill="#211D1E"/>
<path d="M254.621 185.906C255.436 194.117 256.252 202.345 257.067 210.556H257.036C253.194 208.071 250.81 203.776 249.68 199.324C248.583 194.982 248.551 190.468 248.567 185.984C250.59 185.968 252.598 185.937 254.621 185.906Z" fill="#786A6E"/>
<path d="M222.58 146.2C222.627 150.148 221.544 154.081 218.596 156.96C217.702 157.841 216.494 158.47 215.287 158.596C214.754 151.533 214.393 144.454 214.22 137.375C214.126 133.678 214.079 129.965 214.079 126.268C214.079 125.529 214.173 124.79 214.299 124.066C214.503 125.796 215.177 127.275 215.695 128.927C216.196 130.469 216.777 131.853 217.639 133.253C219.302 135.974 221.403 138.554 222.078 141.748C222.391 143.195 222.564 144.69 222.58 146.2Z" fill="#96404E"/>
<path d="M253.272 129.021C252.252 129.053 251.233 129.1 250.229 129.131C249.21 129.163 248.19 129.21 247.187 129.241C247.014 129.241 246.826 129.241 246.622 129.226C246.606 128.88 246.591 128.534 246.559 128.187C246.544 127.873 246.34 127.212 246.685 127.008C246.842 126.913 247.03 126.913 247.202 126.913C248.034 126.913 248.865 126.898 249.68 126.898C250.323 126.898 251.296 126.693 251.813 127.149C252.362 127.653 252.817 128.423 253.272 129.021Z" fill="white"/>
<path d="M250.261 57.3338C250.323 57.5855 250.214 57.8529 250.01 58.0103C249.696 58.2462 249.226 58.0732 248.865 58.0575C248.457 58.026 248.034 58.0417 247.642 58.1204C247.046 58.2148 246.465 58.435 245.932 58.7339C245.885 58.7654 245.838 58.7968 245.775 58.8126C245.43 58.4507 245.101 58.0889 244.787 57.7114C245.148 57.0664 246.073 56.8304 246.748 56.6574C247.563 56.4529 248.41 56.4371 249.226 56.6102C249.665 56.6888 250.151 56.9091 250.261 57.3338Z" fill="#211D1E"/>
<path d="M226.563 101.617C226.077 99.1318 226.312 96.5204 226.438 93.972C226.469 93.4214 226.485 92.8865 226.5 92.3359C226.61 87.7896 226.312 83.2432 225.606 78.7441C225.246 76.4945 224.791 74.2764 224.242 72.074C224.022 71.2088 223.913 70.0919 223.379 69.3683C222.925 68.7548 222.329 68.3615 221.67 67.9997C220.917 67.5592 220.211 67.04 219.537 66.4894C218.204 65.3568 217.059 64.0039 216.149 62.5094C214.346 59.552 213.452 56.0124 213.86 52.5673C214.267 49.1221 215.977 45.8972 218.423 43.4589C220.996 40.8947 223.991 39.6047 227.488 38.944C227.975 38.8496 228.633 38.6451 229.01 38.3148C235.205 32.8245 244.207 30.7008 252.205 32.8403C260.188 34.9797 266.948 41.3194 269.598 49.1693C271.825 55.7765 271.261 63.1072 273.597 69.6829C274.727 72.8921 276.515 75.8181 278.036 78.8542C279.557 81.8904 280.859 85.1625 280.89 88.5604C280.922 91.6123 279.745 94.8215 277.393 96.6935C275.37 96.1901 273.299 95.8597 271.261 95.8125C271.606 98.4868 270.884 101.806 268.814 103.537C268.046 104.182 267.136 104.669 266.179 104.952C264.674 105.393 263.058 105.283 261.725 104.37C259.467 102.829 258.761 100.202 258.777 97.543C258.808 95.4664 259.326 93.2641 259.702 91.219C260.063 89.2054 260.471 87.1918 260.769 85.1782C261.067 83.1646 261.067 81.0881 261.239 79.0587C261.364 77.6744 261.584 74.7326 261.066 73.6L261.098 73.5842C263.09 74.1191 265.677 72.1212 266.854 70.5481C267.81 69.2582 268.155 67.3232 267.356 65.8759C265.709 62.9185 260.988 63.5949 260.502 66.867C259.545 66.4108 259.357 65.2939 258.651 64.5073C258.04 63.8309 256.91 63.3589 256.032 62.7139C254.119 62.887 252.174 62.6825 250.668 62.1162C248.739 61.4083 247.171 60.2127 245.822 58.7811C245.869 58.7497 245.932 58.7339 245.979 58.7025C246.512 58.4036 247.077 58.1991 247.689 58.089C248.096 58.026 248.504 57.9946 248.912 58.026C249.273 58.0575 249.743 58.2148 250.057 57.9788C250.261 57.8215 250.355 57.5541 250.308 57.3024C250.214 56.8619 249.727 56.6574 249.288 56.563C248.473 56.39 247.61 56.4057 246.81 56.6102C246.136 56.7833 245.211 57.0192 244.85 57.6642C244.223 56.8934 243.627 56.0911 243.062 55.2731C240.851 52.0796 239.251 48.5558 236.867 45.4725C235.079 43.1443 232.821 40.8003 229.825 42.6566C227.645 43.9937 225.999 46.6681 225.324 49.0907C223.74 54.8798 225.763 60.2913 226.312 66.0332C226.892 72.0426 228.21 78.3666 232.601 82.8657C236.005 86.3738 240.662 88.4818 245.556 88.466C245.979 88.466 246.403 88.4503 246.826 88.4031C246.967 89.8189 247.124 91.2347 247.281 92.6663C247.328 93.091 247.375 93.5158 247.422 93.9562H247.406C243.925 97.2913 241.98 101.712 238.78 105.251C238.106 106.006 237.306 106.683 236.444 107.218C235.346 107.878 234.123 108.272 232.852 108.193C229.966 108.02 227.708 105.409 226.893 102.624C226.72 102.294 226.626 101.963 226.563 101.617Z" fill="#453D3F"/>
<path d="M201.234 124.019C200.952 123.641 200.623 123.264 200.231 122.918C197.047 120.039 194.836 116.09 194.004 111.859C193.926 111.481 193.863 111.119 193.785 110.742L193.926 110.71C194.475 108.98 195.353 107.359 196.498 105.944C198.866 103.018 202.317 100.972 206.049 100.469C206.755 100.375 207.571 100.375 208.072 100.878C210.048 102.939 204.716 104.465 203.603 105.094C201.266 106.415 199.258 108.35 197.863 110.663C201.454 108.35 205.798 107.218 210.048 107.517C210.786 107.564 211.68 107.784 211.915 108.492C212.087 109.058 211.711 109.688 211.193 109.971C210.362 110.443 209.155 110.395 208.245 110.521C204.936 110.978 201.893 111.953 199.415 114.187C202.709 113.101 206.253 112.708 209.703 113.086C210.299 113.148 210.989 113.322 211.178 113.888C211.335 114.376 210.989 114.895 210.535 115.131C210.08 115.351 209.562 115.367 209.045 115.382C205.908 115.508 202.818 116.342 200.027 117.789C200.027 118.167 200.309 118.529 200.67 118.686C201.109 118.875 201.627 118.827 202.113 118.765C206.128 118.277 210.143 117.789 214.158 117.286C214.471 117.254 214.785 117.207 215.083 117.144L215.099 117.191C215.538 119.567 214.738 121.753 214.314 124.019C214.189 124.742 214.095 125.466 214.095 126.221C214.095 129.918 214.142 133.631 214.236 137.327C214.408 144.406 214.769 151.486 215.302 158.549C214.659 158.612 214.016 158.549 213.405 158.297C211.335 157.448 210.503 155.009 209.892 152.854C208.402 147.506 206.896 142.157 205.406 136.808C204.669 134.165 203.932 131.523 203.179 128.88C202.662 127.086 202.27 125.45 201.234 124.019Z" fill="#FFC094"/>
<path d="M254.621 185.906C252.613 185.937 250.59 185.968 248.582 186C243.564 186.079 238.545 186.157 233.526 186.236C233.464 184.081 233.417 181.925 233.354 179.77C232.758 157.589 232.178 135.204 235.377 113.306C245.493 114.234 255.781 113.384 265.63 110.836C265.238 116.751 265.285 122.65 265.426 128.565C264.642 128.597 263.858 128.628 263.074 128.659C260.878 128.738 258.667 128.832 256.471 128.911C255.42 128.958 254.354 128.99 253.287 129.037C252.833 128.423 252.378 127.668 251.845 127.196C251.327 126.74 250.339 126.945 249.712 126.945C248.88 126.945 248.049 126.96 247.234 126.96C247.061 126.96 246.873 126.96 246.716 127.055C246.371 127.259 246.575 127.904 246.591 128.235C246.606 128.581 246.622 128.927 246.653 129.273C245.995 129.242 245.211 129.179 244.771 129.603C244.473 129.902 244.317 130.327 244.285 130.752C244.254 131.176 244.317 131.601 244.379 132.01C244.411 132.199 244.442 132.403 244.552 132.561C244.646 132.734 244.881 132.86 245.085 132.875C245.164 132.875 245.258 132.875 245.336 132.86C245.556 132.844 245.775 132.844 246.01 132.828C246.606 138.067 247.202 143.305 247.798 148.528C248.096 151.124 248.394 153.719 248.692 156.315C248.833 157.605 248.99 158.879 249.131 160.169C249.21 160.814 249.288 161.459 249.351 162.088C249.414 162.749 249.539 163.142 250.261 163.174C251.186 163.205 252.111 163.174 253.021 163.174C254.887 163.174 256.753 163.174 258.635 163.174C260.047 163.174 261.474 163.174 262.886 163.174C263.356 163.174 264.14 163.331 264.454 162.922C265.113 162.104 264.956 160.688 265.066 159.713C265.222 158.486 265.364 157.259 265.52 156.032L265.615 155.937C265.756 156.11 265.913 156.268 266.069 156.425C266.32 166.194 266.618 175.948 266.948 185.717C262.807 185.78 258.714 185.843 254.621 185.906Z" fill="#4D3C40"/>
<path d="M277.361 96.7092C278.945 97.1182 280.498 97.6216 281.972 98.2037C287.618 100.422 292.715 103.993 296.856 108.413C303.098 115.068 307.222 123.374 310.5 131.821C314.013 140.883 317.558 149.802 321.322 158.769C322.608 161.852 323.172 163.756 322.953 167.044C322.78 169.592 322.2 172.093 321.306 174.485C317.887 183.75 309.104 192.969 298.471 191.978C297.358 191.868 296.26 191.679 295.178 191.411C287.618 189.555 280.937 184.285 273.252 182.665C273.472 182.555 273.707 182.382 273.927 182.146C275.448 180.604 275.793 178.701 275.966 176.624C276.405 171.134 276.483 165.628 276.232 160.122C276.138 158.045 275.997 155.969 275.793 153.892C275.621 152.115 275.636 150.07 275.056 148.386L275.072 148.371C274.146 147.694 273.346 146.892 272.703 145.917C271.072 143.415 269.457 140.93 267.606 138.617C267.873 136.415 268.14 134.213 268.406 132.01C268.955 131.994 269.457 131.884 269.645 131.302C269.739 131.035 269.739 130.736 269.755 130.453C269.771 130.091 269.771 129.729 269.692 129.383C269.614 129.037 269.426 128.691 269.128 128.486C268.72 128.219 268.406 128.408 267.983 128.486C267.45 128.581 266.869 128.534 266.336 128.549C266.022 128.565 265.709 128.581 265.379 128.581C265.254 122.65 265.207 116.767 265.583 110.852C265.709 108.901 265.881 106.935 266.116 104.984C267.073 104.716 267.983 104.213 268.751 103.568C270.821 101.838 271.543 98.5183 271.198 95.844C273.284 95.8755 275.354 96.1901 277.361 96.7092Z" fill="#FF647C"/>
<path d="M246.622 129.241C246.826 129.257 247.014 129.257 247.187 129.257C248.206 129.226 249.226 129.179 250.229 129.147C251.249 129.116 252.268 129.068 253.272 129.037C254.323 128.99 255.389 128.958 256.456 128.911C258.651 128.832 260.863 128.754 263.058 128.659C263.843 128.628 264.627 128.596 265.411 128.565C265.725 128.549 266.038 128.549 266.368 128.534C266.901 128.518 267.481 128.565 268.014 128.471C268.422 128.392 268.751 128.203 269.159 128.471C269.457 128.675 269.645 129.005 269.724 129.367C269.802 129.713 269.787 130.075 269.787 130.437C269.771 130.72 269.771 131.019 269.677 131.287C269.489 131.869 268.987 131.979 268.438 131.994C268.124 131.994 267.795 131.979 267.512 131.979C266.462 132.026 265.395 132.057 264.344 132.105C262.227 132.183 260.126 132.262 258.008 132.341C254.009 132.482 250.01 132.639 245.995 132.797C245.775 132.797 245.556 132.812 245.32 132.828C245.242 132.828 245.148 132.828 245.07 132.844C244.881 132.844 244.63 132.702 244.536 132.529C244.442 132.356 244.395 132.167 244.364 131.979C244.285 131.554 244.223 131.129 244.27 130.72C244.301 130.295 244.458 129.871 244.756 129.572C245.179 129.147 245.948 129.194 246.622 129.241Z" fill="white"/>
<path d="M273.252 182.665C271.935 183.341 270.649 182.256 269.943 180.919C268.955 179.062 269.19 176.482 269.081 174.406C268.798 169.136 268.72 163.835 268.861 158.549C271.166 159.681 273.707 159.839 276.232 160.122C276.483 165.628 276.389 171.134 275.966 176.624C275.809 178.701 275.448 180.62 273.927 182.146C273.707 182.382 273.472 182.539 273.252 182.665Z" fill="#96404E"/>
<path d="M268.422 132.01C268.155 134.212 267.889 136.415 267.622 138.617C267.418 138.35 267.199 138.098 266.979 137.846C264.956 135.455 262.572 134.684 259.655 133.851C259.278 133.741 258.886 133.646 258.479 133.662C257.789 133.709 256.973 134.448 257.161 135.219C257.255 135.597 257.569 135.896 257.867 136.132C258.777 136.84 259.718 137.249 260.815 137.516C261.803 137.768 262.588 138.082 263.293 138.837C264.062 139.671 264.658 140.694 265.285 141.638C264.893 141.229 264.47 140.851 263.983 140.568C262.635 139.781 253.632 137.673 254.683 141.056C255.075 142.298 256.189 142.424 257.271 142.346C258.4 142.267 260.047 142.267 261.098 142.77C262.117 143.274 263.09 144.564 263.936 145.507C261.239 145.146 258.573 144.8 255.828 144.768C255.358 144.768 254.856 144.768 254.448 145.004C253.821 145.382 253.538 146.436 254.025 147.033C254.589 147.741 256.189 147.773 257.004 147.836C258.4 147.93 259.78 148.087 261.16 148.308C261.851 148.418 262.541 148.559 263.215 148.717C263.529 148.795 264.015 148.764 264.281 148.968C264.971 149.503 263.497 149.393 263.199 149.393C261.333 149.44 259.467 149.535 257.616 149.692C257.224 149.723 256.832 149.755 256.471 149.897C255.624 150.211 255.107 151.36 256.048 151.957C256.393 152.178 256.816 152.225 257.224 152.272C258.965 152.461 262.101 152.02 263.387 153.373C264.172 154.207 264.862 155.072 265.599 155.89L265.505 155.985C265.348 157.212 265.207 158.439 265.05 159.666C264.924 160.641 265.097 162.057 264.438 162.875C264.125 163.284 263.34 163.127 262.87 163.127C261.458 163.127 260.031 163.127 258.62 163.127C256.753 163.127 254.871 163.127 253.005 163.127C252.08 163.127 251.154 163.158 250.245 163.127C249.523 163.095 249.398 162.702 249.335 162.041C249.272 161.396 249.194 160.751 249.116 160.122C248.975 158.832 248.818 157.558 248.677 156.268C248.379 153.672 248.081 151.076 247.783 148.481C247.187 143.242 246.591 138.004 245.995 132.781C249.994 132.624 253.993 132.482 258.008 132.325C260.125 132.246 262.243 132.167 264.344 132.089C265.395 132.057 266.461 132.01 267.512 131.963C267.763 131.979 268.092 132.01 268.422 132.01Z" fill="#A15A44"/>
<path d="M263.921 145.539C263.074 144.595 262.102 143.29 261.082 142.802C260.031 142.298 258.385 142.283 257.255 142.377C256.189 142.456 255.06 142.33 254.668 141.087C253.601 137.705 262.603 139.813 263.968 140.599C264.454 140.883 264.878 141.26 265.27 141.669C264.642 140.725 264.046 139.687 263.278 138.869C262.572 138.114 261.788 137.784 260.8 137.548C259.702 137.28 258.761 136.871 257.851 136.163C257.538 135.927 257.24 135.628 257.146 135.251C256.957 134.496 257.773 133.741 258.463 133.693C258.855 133.662 259.247 133.772 259.639 133.882C262.541 134.7 264.94 135.487 266.963 137.878C267.183 138.13 267.387 138.397 267.606 138.649C269.473 140.961 271.072 143.447 272.704 145.948C273.331 146.923 274.146 147.726 275.072 148.402L275.056 148.418C275.636 150.101 275.621 152.146 275.793 153.924C275.981 156 276.138 158.077 276.232 160.153C273.707 159.886 271.167 159.713 268.861 158.58C268.72 158.517 268.595 158.439 268.453 158.376C267.497 157.857 266.728 157.196 266.038 156.472C265.881 156.315 265.724 156.142 265.583 155.985C264.846 155.167 264.172 154.301 263.372 153.468C262.086 152.115 258.949 152.555 257.208 152.366C256.801 152.319 256.377 152.272 256.032 152.052C255.107 151.454 255.609 150.306 256.456 149.991C256.816 149.849 257.208 149.818 257.6 149.787C259.451 149.629 261.317 149.535 263.184 149.488C263.482 149.488 264.94 149.598 264.266 149.063C263.999 148.858 263.513 148.874 263.199 148.811C262.509 148.654 261.835 148.528 261.145 148.402C259.765 148.182 258.385 148.025 256.989 147.93C256.173 147.867 254.574 147.836 254.009 147.128C253.523 146.514 253.805 145.46 254.432 145.099C254.84 144.863 255.342 144.863 255.813 144.863C258.557 144.831 261.223 145.177 263.921 145.539Z" fill="#FFC094"/>
<path d="M266.901 185.717C266.587 175.948 266.274 166.194 266.023 156.425C266.713 157.149 267.481 157.809 268.438 158.329C268.579 158.407 268.704 158.47 268.846 158.533C268.704 163.819 268.783 169.104 269.065 174.39C269.175 176.467 268.924 179.047 269.928 180.903C270.649 182.24 271.92 183.325 273.237 182.649C280.922 184.269 287.603 189.555 295.162 191.396C296.338 201.81 297.515 212.208 298.691 222.622H268.108C267.748 210.32 267.309 198.018 266.901 185.717Z" fill="#FF647C"/>
<path d="M268.124 222.638H258.275C257.867 218.611 257.475 214.584 257.067 210.572C256.252 202.36 255.436 194.133 254.621 185.921C258.714 185.858 262.807 185.795 266.916 185.732C267.308 198.019 267.748 210.32 268.124 222.638Z" fill="#786A6E"/>
<path d="M194.02 98.4868C194.851 100.972 195.683 103.458 196.514 105.959C195.369 107.375 194.491 108.98 193.942 110.726L193.801 110.757C192.922 106.337 192.06 101.979 191.872 97.4328C191.856 96.9609 191.84 96.4732 192.044 96.0484C192.217 95.6866 192.593 95.4192 192.969 95.4192C193.314 96.4417 193.675 97.4643 194.02 98.4868Z" fill="#FFC094"/>
<path d="M192.969 95.4036C192.452 93.8777 191.981 92.3203 191.699 90.7471C191.621 90.3067 191.558 89.819 191.715 89.41C192.044 88.5605 192.922 88.2773 193.738 88.183C194.867 88.0571 195.996 87.8054 197.11 87.6009C199.321 87.2233 201.517 86.8458 203.728 86.4682C204.512 86.3424 205.312 86.2008 206.081 86.3739C207.602 86.7199 207.994 88.2616 208.418 89.5516C209.013 91.3449 209.594 93.154 210.19 94.9474C211.366 98.5499 212.527 102.152 213.703 105.739C214.346 107.721 214.989 109.688 215.648 111.67C215.914 112.472 216.573 113.778 216.73 114.895C216.839 115.65 216.714 116.342 216.087 116.767C215.789 116.971 215.444 117.097 215.099 117.176C214.801 117.254 214.487 117.286 214.173 117.317C210.158 117.805 206.143 118.293 202.128 118.796C201.642 118.859 201.14 118.906 200.686 118.717C200.325 118.56 200.043 118.182 200.043 117.821C202.819 116.373 205.924 115.555 209.061 115.414C209.562 115.398 210.096 115.382 210.55 115.162C211.005 114.942 211.35 114.407 211.193 113.919C211.021 113.353 210.315 113.18 209.719 113.117C206.253 112.755 202.724 113.133 199.431 114.218C201.909 111.984 204.951 111.009 208.261 110.553C209.186 110.427 210.378 110.458 211.209 110.002C211.727 109.703 212.119 109.09 211.931 108.523C211.711 107.816 210.817 107.595 210.064 107.548C205.814 107.249 201.47 108.366 197.878 110.694C199.274 108.382 201.282 106.447 203.618 105.126C204.732 104.496 210.064 102.955 208.088 100.91C207.586 100.39 206.771 100.406 206.065 100.501C202.332 101.004 198.882 103.049 196.514 105.975C195.683 103.489 194.851 101.004 194.02 98.5027C193.675 97.4644 193.314 96.4419 192.969 95.4036Z" fill="#786A6E"/>
<path d="M257.067 210.556C257.475 214.584 257.867 218.611 258.275 222.622H234.514C234.185 210.493 233.856 198.349 233.526 186.22C238.545 186.141 243.564 186.063 248.582 185.984C248.567 190.452 248.598 194.982 249.696 199.324C250.825 203.776 253.209 208.071 257.051 210.556H257.067Z" fill="#786A6E"/>
<path d="M215.083 117.191C215.444 117.113 215.773 116.987 216.071 116.782C216.698 116.357 216.808 115.681 216.714 114.91H216.73C218.706 109.971 221.921 105.519 226.014 102.136C226.344 101.869 226.406 101.727 226.563 101.602C226.626 101.948 226.704 102.294 226.814 102.624C227.63 105.409 229.888 108.02 232.774 108.193C234.044 108.272 235.267 107.878 236.365 107.218C236.005 109.231 235.675 111.261 235.377 113.29C232.178 135.188 232.758 157.573 233.354 179.754C233.417 181.91 233.464 184.065 233.527 186.22C233.856 198.349 234.185 210.493 234.515 222.622H226.704C228.304 210.037 228.806 197.326 228.179 184.647C227.818 177.112 226.924 169.639 226.14 162.151C224.117 169.435 220.384 176.891 214.252 181.438C211.899 183.184 208.841 184.222 206.002 183.53C200.764 182.24 199.007 175.428 197.737 170.898C196.137 165.156 195.541 159.115 196.028 153.169C196.373 148.858 198.6 144.705 199.494 140.379C200.607 134.936 200.842 129.509 201.25 124.003C202.285 125.434 202.677 127.07 203.179 128.895C203.916 131.538 204.653 134.181 205.406 136.824C206.896 142.172 208.402 147.521 209.892 152.87C210.503 155.025 211.335 157.463 213.405 158.313C214.016 158.564 214.659 158.627 215.302 158.564C216.526 158.439 217.718 157.809 218.612 156.928C221.544 154.05 222.642 150.117 222.595 146.168C222.58 144.674 222.407 143.164 222.093 141.716C221.419 138.523 219.317 135.943 217.655 133.221C216.808 131.821 216.212 130.437 215.71 128.895C215.177 127.244 214.518 125.765 214.314 124.034C214.738 121.769 215.538 119.582 215.099 117.207L215.083 117.191Z" fill="#FF647C"/>
<path d="M259.592 80.7578L259.702 80.8207C258.008 86.5941 253.052 91.282 247.218 92.6978C247.061 91.282 246.92 89.8662 246.763 88.4347C251.782 88.0256 257.24 85.2727 259.592 80.7578Z" fill="#FA886C"/>
<path d="M232.099 66.4265C232.993 66.4265 233.73 67.1659 233.73 68.0626C233.73 68.9592 232.993 69.6986 232.099 69.6986C231.19 69.6986 230.468 68.9592 230.468 68.0626C230.468 67.1501 231.205 66.4265 232.099 66.4265Z" fill="#211D1E"/>
<path d="M232.538 59.0959C232.601 59.3476 232.491 59.615 232.287 59.7723C231.974 60.0083 231.503 59.8353 231.143 59.8195C230.735 59.7881 230.327 59.8038 229.919 59.8825C229.323 59.9768 228.743 60.1971 228.21 60.496C227.833 60.7162 227.347 60.8893 227.065 60.4173C226.892 60.1499 226.908 59.7881 227.065 59.4892C227.41 58.8127 228.351 58.5768 229.041 58.4037C229.857 58.1992 230.703 58.1835 231.519 58.3565C231.958 58.4509 232.444 58.6711 232.538 59.0959Z" fill="#211D1E"/>
<path d="M247.359 93.972C247.312 93.5472 247.265 93.1225 247.218 92.682C253.052 91.2662 257.993 86.5783 259.702 80.8049L259.592 80.742C257.24 85.2568 251.782 88.0098 246.763 88.4188C246.34 88.4503 245.916 88.466 245.493 88.4818C240.584 88.4975 235.942 86.3895 232.538 82.8814C228.163 78.3823 226.83 72.0583 226.249 66.049C225.701 60.3071 223.662 54.9112 225.261 49.1064C225.873 46.8883 227.363 43.805 229.857 43.333C231.284 43.0656 232.774 43.5061 233.997 44.2927C235.22 45.0792 236.224 46.1647 237.134 47.2973C238.765 49.2795 240.223 51.3874 241.619 53.5426C242.262 54.5337 242.811 55.7607 243.627 56.6102C243.893 56.8777 244.301 57.0507 244.505 57.3653C244.819 57.8215 244.442 58.1519 244.756 58.6238C245.007 59.0328 245.415 58.9542 245.76 58.7811C247.124 60.2127 248.692 61.4083 250.606 62.1162C252.111 62.6825 254.072 62.887 255.969 62.714C256.848 63.3589 257.977 63.8309 258.589 64.5073C259.294 65.2939 259.482 66.4108 260.439 66.867C260.925 63.5949 265.646 62.9027 267.293 65.8759C268.093 67.3232 267.748 69.2582 266.791 70.5481C265.615 72.1212 263.027 74.1191 261.035 73.5842L261.004 73.6C261.521 74.7326 261.302 77.6901 261.176 79.0587C261.004 81.0881 261.004 83.1646 260.706 85.1782C260.408 87.2075 260.016 89.2054 259.639 91.219C259.279 93.2483 258.745 95.4664 258.714 97.543C258.683 100.202 259.404 102.829 261.662 104.37C262.996 105.283 264.611 105.393 266.117 104.952C265.881 106.919 265.709 108.869 265.583 110.82C255.734 113.384 245.462 114.218 235.33 113.29C235.628 111.261 235.957 109.231 236.318 107.218C237.181 106.699 237.981 106.006 238.655 105.251C241.854 101.712 243.799 97.2913 247.281 93.9562L247.359 93.972ZM249.288 66.4265C249.288 65.5298 248.551 64.7905 247.657 64.7905C246.763 64.7905 246.026 65.5298 246.026 66.4265C246.026 67.3389 246.763 68.0626 247.657 68.0626C248.567 68.0626 249.288 67.3232 249.288 66.4265ZM233.73 68.0626C233.73 67.1502 232.993 66.4265 232.099 66.4265C231.19 66.4265 230.468 67.1659 230.468 68.0626C230.468 68.9593 231.205 69.6986 232.099 69.6986C233.009 69.6986 233.73 68.9593 233.73 68.0626ZM232.303 59.7722C232.507 59.6149 232.601 59.3475 232.554 59.0958C232.46 58.6553 231.974 58.4508 231.535 58.3564C230.719 58.1834 229.857 58.1991 229.057 58.4036C228.382 58.5766 227.426 58.8126 227.081 59.489C226.94 59.7722 226.908 60.134 227.081 60.4172C227.379 60.8734 227.849 60.7004 228.226 60.4958C228.759 60.197 229.323 59.9924 229.935 59.8823C230.343 59.8194 230.751 59.7879 231.158 59.8194C231.503 59.8509 231.99 60.0082 232.303 59.7722Z" fill="#FFC094"/>
<path d="M195.447 91.1089C195.447 91.7224 194.93 92.2258 194.287 92.2258C193.644 92.2258 193.126 91.7224 193.126 91.1089C193.126 90.4953 193.644 89.9919 194.287 89.9919C194.93 89.9919 195.447 90.4796 195.447 91.1089Z" fill="white"/>
<path d="M106.993 61.0621C106.272 60.6059 105.394 60.3385 104.421 60.3228C103.668 60.307 102.869 60.4171 101.912 60.6846C101.583 60.779 101.394 61.1093 101.473 61.4397C101.567 61.77 101.896 61.9588 102.226 61.8801C103.072 61.6442 103.763 61.5498 104.39 61.5655C105.127 61.5813 105.801 61.77 106.319 62.1004C106.429 62.1633 106.538 62.1948 106.648 62.1948C106.852 62.1948 107.056 62.1004 107.166 61.9116C107.354 61.6285 107.276 61.2509 106.993 61.0621Z" fill="#4D2B1D"/>
<path d="M101.096 141.685H96.0775H92.1567L91.3098 139.955H86.793V141.685H84.4718V144.737H85.256H107.589H108.561V141.685H101.096Z" fill="white"/>
<path d="M72.1136 74.5124C72.0666 74.5124 72.0038 74.4967 71.9568 74.4652C71.6902 74.3079 71.1569 74.009 71.0942 73.4427C71.0785 73.2382 71.1099 73.0337 71.2197 72.7977C71.3922 72.4202 71.6431 72.0898 71.9725 71.8538L71.9882 71.8381C72.0038 71.8224 72.0195 71.8224 72.0195 71.8066C72.0195 71.5235 71.847 71.2089 71.5333 70.8942C71.251 70.6111 71.0001 70.438 70.7335 70.3751C70.4512 70.3122 70.1689 70.3908 70.0277 70.5639C69.918 70.7055 69.7298 70.7212 69.5886 70.6111C69.4475 70.501 69.4318 70.3122 69.5416 70.1706C69.8395 69.7931 70.3728 69.6357 70.8903 69.7459C71.2667 69.8402 71.6274 70.0605 71.9882 70.438C72.4116 70.8785 72.6312 71.3347 72.6469 71.7752C72.6469 71.8538 72.6469 71.9482 72.5998 72.0584C72.5371 72.1999 72.4273 72.2786 72.3489 72.3415C72.0979 72.5303 71.8941 72.782 71.7686 73.0494C71.7059 73.1753 71.6902 73.2854 71.6902 73.364C71.7215 73.5685 71.9725 73.7573 72.2391 73.9146C72.3959 74.009 72.443 74.1978 72.3489 74.3394C72.3332 74.4652 72.2234 74.5124 72.1136 74.5124Z" fill="#F38857"/>
<path d="M98.1791 78.7127C97.9595 78.7127 97.7556 78.697 97.5361 78.6498C96.3912 78.4453 95.3404 77.7059 94.6503 76.6204C94.5562 76.4789 94.6033 76.2744 94.7444 76.18C94.8856 76.0856 95.0895 76.1328 95.1836 76.2744C95.7795 77.2025 96.6892 77.8475 97.6615 78.0205C98.6966 78.2093 99.7945 77.8317 100.375 77.0766C100.485 76.9351 100.673 76.9193 100.814 77.0295C100.955 77.1396 100.971 77.3283 100.861 77.4699C100.249 78.2408 99.2142 78.7127 98.1791 78.7127Z" fill="#F38857"/>
<path d="M56.3282 127.86L49.3798 161.97L49.9945 162.096L56.9429 127.986L56.3282 127.86Z" fill="#5F4D45"/>
<path d="M49.6707 182.806L49.5295 182.193C52.133 181.626 54.7521 180.966 57.2771 180.321L73.0702 176.325C73.1643 176.294 73.2741 176.278 73.3839 176.262C73.5721 176.231 73.8701 176.183 73.9799 176.089C74.1994 175.9 74.1838 175.381 74.1838 175.004C74.1838 174.878 74.1838 174.768 74.1838 174.658L74.2622 172.55L74.8895 172.565L74.7954 174.689C74.7954 174.783 74.7954 174.878 74.7954 174.988C74.8111 175.491 74.8268 176.199 74.372 176.577C74.1367 176.766 73.7917 176.828 73.4937 176.876C73.3996 176.891 73.3055 176.907 73.2271 176.923L57.4496 180.919C54.9089 181.564 52.2741 182.24 49.6707 182.806Z" fill="#5F4D45"/>
<path d="M34.8969 169.686L34.3637 169.34C36.4966 166.053 39.9313 164.291 42.4406 163.394C45.6243 162.246 49.0119 161.821 52.2897 161.396L74.1994 158.58C74.513 158.549 74.7797 158.502 75.062 158.454L75.1717 159.068C74.8894 159.115 74.5915 159.162 74.2778 159.209L52.3682 162.025C49.1217 162.434 45.7812 162.875 42.6602 163.992C40.2449 164.857 36.9357 166.556 34.8969 169.686Z" fill="#5F4D45"/>
<path d="M93.6937 158.093C93.5368 158.093 93.3957 157.967 93.38 157.809C93.3643 157.636 93.4898 157.479 93.6623 157.463C96.1403 157.212 98.6496 156.85 101.081 156.504C101.943 156.378 102.79 156.252 103.653 156.142C104.343 156.048 105.19 155.922 105.989 156.173C106.162 156.221 106.24 156.409 106.193 156.567C106.146 156.74 105.958 156.818 105.801 156.771C105.143 156.567 104.39 156.661 103.747 156.755C102.9 156.881 102.037 156.991 101.19 157.117C98.7594 157.463 96.2344 157.825 93.7407 158.077C93.7094 158.093 93.6937 158.093 93.6937 158.093Z" fill="#F38857"/>
<path d="M43.2719 162.639C40.6998 162.088 38.1905 162.151 35.9791 162.23C35.5713 162.246 35.1793 162.261 34.7872 162.261L34.7715 161.632C35.1479 161.632 35.5557 161.616 35.9634 161.601C38.2061 161.538 40.7625 161.459 43.3973 162.025L43.2719 162.639Z" fill="#5F4D45"/>
<path d="M75.3599 107.249C72.4742 106.4 69.5571 105.487 66.7027 104.512C66.3734 104.402 65.9343 104.244 65.652 103.883C65.3853 103.537 65.2912 103.065 65.3697 102.467C65.5422 101.177 65.7147 100.107 66.0597 98.9745C66.2636 98.3452 66.4989 97.7317 66.7655 97.1497L67.3301 97.4171C67.0791 97.9834 66.8439 98.5655 66.6557 99.1633C66.3107 100.249 66.1538 101.287 65.9813 102.545C65.9186 102.97 65.9813 103.285 66.1381 103.489C66.295 103.694 66.5773 103.804 66.9066 103.914C69.7453 104.889 72.6467 105.802 75.5325 106.636L75.3599 107.249Z" fill="#5F4D45"/>
<path d="M81.3668 155.308C76.2854 149.456 72.4273 142.487 70.5139 135.676C68.2398 127.558 66.5303 119.221 65.4168 110.867C65.2756 109.813 65.1659 108.854 65.1345 107.878C65.1345 107.58 65.1345 107.265 65.2913 106.982C65.6364 106.368 66.4519 106.321 66.844 106.29L73.0859 105.959L73.1173 106.588L66.8753 106.919C66.4519 106.935 65.9971 106.997 65.8246 107.281C65.7461 107.422 65.7305 107.642 65.7461 107.847C65.7618 108.791 65.8716 109.735 66.0128 110.773C67.1106 119.095 68.8201 127.401 71.0785 135.487C72.9605 142.22 76.7715 149.094 81.7902 154.883L81.3668 155.308Z" fill="#5F4D45"/>
<path d="M112.294 161.805L112.059 149.063C111.886 139.734 111.714 130.091 110.961 120.637L111.588 120.589C112.325 130.06 112.514 139.719 112.686 149.047L112.921 161.79L112.294 161.805Z" fill="#5F4D45"/>
<path d="M101.394 141.716L100.767 141.653C101.943 129.43 101.457 118.198 99.3555 108.272C99.2143 107.579 99.0575 106.966 98.634 106.573C98.2263 106.179 97.693 106.148 97.0971 106.116C96.9716 106.116 96.8461 106.101 96.7207 106.085L93.9918 105.849L94.0388 105.22L96.7677 105.456C96.8932 105.471 97.003 105.471 97.1284 105.487C97.8028 105.534 98.4929 105.566 99.0575 106.116C99.6535 106.683 99.826 107.516 99.9514 108.13C102.1 118.135 102.571 129.43 101.394 141.716Z" fill="#5F4D45"/>
<path d="M155.188 107.249C155.125 107.249 155.047 107.233 155 107.186C154.859 107.076 154.843 106.887 154.937 106.746C156.647 104.543 157.556 101.68 157.431 98.8802C157.431 98.7386 157.415 98.5813 157.399 98.4397C157.352 97.6689 157.305 96.8666 157.588 96.1272C157.744 95.7339 157.98 95.3564 158.356 94.9159C158.466 94.79 158.67 94.7743 158.795 94.8844C158.921 94.9946 158.936 95.1991 158.827 95.3249C158.497 95.7182 158.293 96.0328 158.168 96.3474C157.933 96.9767 157.98 97.6689 158.011 98.4082C158.027 98.5655 158.027 98.7071 158.042 98.8644C158.168 101.806 157.211 104.811 155.408 107.139C155.361 107.202 155.282 107.249 155.188 107.249Z" fill="#F38857"/>
<path d="M127.507 148.607L126.99 148.26L127.005 148.229C127.946 146.813 128.872 145.413 129.813 143.997L130.33 144.343C129.389 145.759 128.464 147.159 127.523 148.575L127.507 148.607Z" fill="#5F4D45"/>
<path d="M125.359 158.785H124.731C124.747 155.796 125.186 152.838 126.017 149.959L126.613 150.133C125.798 152.948 125.374 155.859 125.359 158.785Z" fill="#5F4D45"/>
<path d="M123.625 149.832L118.809 154.898L119.263 155.333L124.079 150.266L123.625 149.832Z" fill="#5F4D45"/>
<path d="M60.602 207.52C59.5041 207.52 58.422 206.97 57.7946 206.073C57.0418 205.003 56.9634 203.698 56.9634 202.235L56.8693 189.225L74.717 189.256H74.7484C74.8581 189.256 75.0463 189.241 75.1875 189.366C75.3757 189.524 75.3757 189.76 75.3757 189.886V189.917C75.3757 190.137 75.3757 190.373 75.3757 190.593L75.2816 202.235C75.2659 203.698 75.2032 205.003 74.4504 206.073C73.7446 207.064 72.5056 207.63 71.298 207.505H60.9627C60.8215 207.52 60.7117 207.52 60.602 207.52ZM57.481 189.854L57.5751 202.235C57.5908 203.603 57.6535 204.799 58.2965 205.711C58.8611 206.513 59.9119 206.985 60.8843 206.875H60.9156H71.3137C72.2861 206.985 73.3368 206.513 73.9014 205.711C74.5445 204.799 74.6072 203.587 74.6229 202.235L74.717 190.593C74.717 190.357 74.717 190.137 74.717 189.901V189.886C74.7013 189.886 74.6856 189.886 74.6856 189.886L57.481 189.854Z" fill="#5F4D45"/>
<path d="M105.425 207.52C104.327 207.52 103.245 206.97 102.618 206.073C101.865 205.003 101.786 203.698 101.786 202.235L101.692 189.54H102.32L102.414 202.235C102.429 203.603 102.492 204.799 103.135 205.711C103.7 206.514 104.751 206.985 105.723 206.875H105.754H112.592V207.505H105.754C105.66 207.52 105.535 207.52 105.425 207.52Z" fill="#5F4D45"/>
<path d="M101.993 189.216L101.992 189.845L112.923 189.864L112.924 189.235L101.993 189.216Z" fill="#5F4D45"/>
<path d="M92.596 106.416L92.3294 105.849C92.4392 105.802 92.5489 105.739 92.7215 105.692C94.3055 105.157 95.8895 104.528 97.4265 103.851C98.3988 103.411 98.4145 103.033 98.3361 102.782C98.1322 102.121 97.7872 101.397 97.2539 100.516C96.8932 99.9342 96.5796 99.3364 96.2659 98.7701L96.0934 98.4398L96.6423 98.1409L96.8148 98.4712C97.1442 99.069 97.4421 99.6353 97.7872 100.202C98.3518 101.13 98.7125 101.901 98.9321 102.609C99.1516 103.348 98.7282 103.961 97.6774 104.433C96.1247 105.126 94.525 105.755 92.9253 106.29C92.7685 106.337 92.6901 106.368 92.596 106.416Z" fill="#5F4D45"/>
<path d="M176.329 94.0193C176.235 94.0193 176.157 93.9878 176.094 93.9092C175.984 93.7833 176 93.5788 176.141 93.4687C176.251 93.3743 176.361 93.2957 176.471 93.2013C176.674 93.0282 176.894 92.8709 177.082 92.6821C177.208 92.572 177.302 92.4776 177.396 92.3675C177.506 92.2417 177.71 92.2259 177.835 92.3518C177.961 92.4619 177.976 92.6664 177.851 92.7923C177.741 92.9024 177.631 93.0282 177.49 93.1541C177.286 93.3428 177.067 93.5159 176.847 93.6889C176.737 93.7676 176.627 93.862 176.533 93.9564C176.471 93.9878 176.392 94.0193 176.329 94.0193Z" fill="#F38857"/>
<path d="M110.428 132.655L110.114 132.64C108.358 132.561 107.119 132.545 105.927 132.529C104.719 132.514 103.48 132.482 101.724 132.419L101.755 131.79C103.512 131.869 104.751 131.884 105.943 131.9C107.072 131.916 108.232 131.932 109.832 132.01L109.863 131.051C108.264 130.988 107.056 130.956 105.88 130.909C104.625 130.878 103.339 130.83 101.583 130.752L101.614 130.123C103.37 130.201 104.657 130.233 105.911 130.264C107.166 130.296 108.452 130.343 110.208 130.421L110.522 130.437L110.428 132.655Z" fill="#5F4D45"/>
<path d="M100.595 74.3708C100.485 74.3708 100.375 74.3079 100.312 74.1978C100.234 74.0404 100.297 73.8517 100.453 73.773C100.94 73.537 101.316 73.0651 101.504 72.483C101.692 71.901 101.645 71.3032 101.379 70.8313C101.191 70.4852 100.924 70.202 100.626 69.9031C100.422 69.6829 100.218 69.4627 100.03 69.2267C99.3713 68.3457 99.1047 67.1659 99.3085 66.0962C99.3399 65.9231 99.5124 65.813 99.6693 65.8445C99.8418 65.8759 99.9516 66.049 99.9202 66.2063C99.7477 67.1187 99.9672 68.1098 100.532 68.8491C100.689 69.0694 100.877 69.2581 101.081 69.4784C101.379 69.793 101.708 70.1391 101.928 70.5481C102.273 71.1774 102.335 71.9482 102.1 72.6876C101.865 73.4269 101.363 74.0247 100.736 74.3393C100.689 74.3551 100.642 74.3708 100.595 74.3708Z" fill="#F38857"/>
<path d="M263.043 70.674C262.917 70.674 262.792 70.5953 262.745 70.4537C262.698 70.2807 262.776 70.1076 262.949 70.0604C263.262 69.966 263.529 69.4941 263.482 69.1166C263.45 68.8649 263.341 68.7862 263.121 68.6446C262.964 68.5502 262.776 68.4244 262.619 68.2199C262.353 67.8581 262.368 67.4176 262.682 67.0086C263.137 66.3793 264.266 65.8287 264.987 66.0804C265.144 66.1434 265.238 66.3164 265.176 66.4737C265.113 66.631 264.94 66.7254 264.783 66.6625C264.423 66.5366 263.544 66.867 263.184 67.3704C262.98 67.6378 263.09 67.7794 263.121 67.8266C263.199 67.9367 263.325 68.0154 263.45 68.094C263.701 68.2513 264.046 68.4558 264.109 69.0222C264.187 69.62 263.811 70.438 263.137 70.6425C263.105 70.674 263.074 70.674 263.043 70.674Z" fill="#F38857"/>
<path d="M271.559 87.5851C271.182 84.4231 270.304 81.3712 268.987 78.4767L269.551 78.2092C270.9 81.151 271.794 84.2815 272.17 87.5064L271.559 87.5851Z" fill="#231F20"/>
<path d="M238.624 75.3462C238.592 75.3462 238.577 75.3462 238.545 75.3305C237.651 75.1102 236.851 74.5754 236.334 73.8675C235.754 73.0809 235.957 72.0426 236.177 71.3347C236.271 71.0044 236.397 70.674 236.522 70.3751C236.663 70.0133 236.789 69.6829 236.883 69.3369C237.228 68.1255 237.102 66.7727 236.538 65.64C236.459 65.4827 236.522 65.2939 236.679 65.2153C236.836 65.1366 237.024 65.1995 237.102 65.3568C237.73 66.6311 237.871 68.1413 237.494 69.4942C237.385 69.8717 237.244 70.2335 237.102 70.5954C236.977 70.91 236.867 71.2089 236.773 71.5078C236.491 72.4202 236.522 73.0494 236.836 73.4899C237.259 74.072 237.965 74.5282 238.702 74.7169C238.875 74.7641 238.969 74.9372 238.937 75.0945C238.906 75.2518 238.765 75.3462 238.624 75.3462Z" fill="#F38857"/>
<path d="M239.502 79.3734C239.329 79.3734 239.188 79.2475 239.188 79.0745C239.188 78.9014 239.314 78.7598 239.486 78.7441C241.352 78.6655 243.203 77.58 244.175 75.9754C244.269 75.8338 244.458 75.7866 244.599 75.8653C244.74 75.9597 244.787 76.1484 244.709 76.29C243.611 78.0991 241.619 79.279 239.502 79.3734Z" fill="#F38857"/>
<path d="M193.942 111.025C193.91 111.025 193.879 111.025 193.848 111.009C193.675 110.962 193.597 110.773 193.644 110.616C194.177 108.901 195.04 107.281 196.216 105.833C196.326 105.692 196.529 105.676 196.655 105.786C196.796 105.896 196.812 106.101 196.702 106.227C195.588 107.627 194.757 109.168 194.24 110.804C194.193 110.946 194.067 111.025 193.942 111.025Z" fill="#F38857"/>
<path d="M221.199 170.804L220.588 170.678C222.47 161.727 222.956 152.587 222.031 143.494L222.658 143.431C223.583 152.587 223.097 161.79 221.199 170.804Z" fill="#96404E"/>
<path d="M225.904 162.938C225.34 157.558 224.713 151.281 224.493 145.083C224.226 137.375 224.665 129.556 225.105 122.005C225.261 119.378 225.418 116.657 225.528 113.998L226.155 114.03C226.03 116.704 225.873 119.425 225.732 122.052C225.293 129.603 224.854 137.39 225.12 145.067C225.34 151.265 225.967 157.511 226.532 162.891L225.904 162.938Z" fill="#96404E"/>
<path d="M266.932 143.919C266.838 143.919 266.76 143.887 266.697 143.809C266.477 143.557 266.242 143.274 266.038 143.022C265.599 142.471 265.128 141.905 264.611 141.449C264.485 141.339 264.47 141.134 264.58 141.008C264.689 140.883 264.893 140.867 265.019 140.977C265.568 141.465 266.054 142.047 266.509 142.613C266.728 142.88 266.948 143.148 267.152 143.384C267.261 143.51 267.261 143.714 267.12 143.824C267.089 143.887 267.01 143.919 266.932 143.919Z" fill="#F38857"/>
<path d="M310.767 159.98C309.167 158.517 306.956 157.432 304.196 156.771C302.408 156.346 300.557 156.11 298.754 155.89C298.111 155.812 297.436 155.717 296.778 155.639C292.292 155.009 287.822 153.94 283.525 152.445C283.133 152.303 282.741 152.178 282.333 152.036C279.636 151.124 276.844 150.18 274.648 148.465L275.041 147.962C277.158 149.598 279.887 150.526 282.537 151.423C282.945 151.564 283.337 151.69 283.729 151.832C287.995 153.31 292.418 154.38 296.872 155.009C297.53 155.104 298.205 155.182 298.848 155.261C300.667 155.481 302.533 155.717 304.353 156.158C307.223 156.85 309.528 157.967 311.191 159.508L310.767 159.98Z" fill="#96404E"/>
<path d="M306.674 166.179C304.698 163.347 302.424 160.704 299.898 158.344L300.322 157.888C302.863 160.279 305.184 162.954 307.176 165.832L306.674 166.179Z" fill="#96404E"/>
<path d="M303.568 154.679L303.38 154.081C305.937 153.295 308.681 153.09 311.332 153.468L311.237 154.097C308.697 153.719 306.031 153.924 303.568 154.679Z" fill="#96404E"/>
<path d="M286.286 127.172L285.68 127.334L293.011 154.728L293.618 154.566L286.286 127.172Z" fill="#96404E"/>
<path d="M295.005 191.695C291.367 190.782 287.885 189.083 284.529 187.431C280.639 185.528 276.625 183.561 272.374 182.806L272.484 182.193C276.828 182.948 280.89 184.946 284.811 186.865C288.152 188.501 291.602 190.2 295.162 191.081L295.005 191.695Z" fill="#96404E"/>
<path d="M254.91 185.535L254.285 185.596L258.077 223.13L258.701 223.068L254.91 185.535Z" fill="#5F4D45"/>
<path d="M256.879 210.824C253.335 208.527 250.668 204.468 249.382 199.403C248.237 194.888 248.253 190.184 248.253 185.654H248.881C248.865 190.153 248.865 194.825 249.978 199.261C251.217 204.17 253.789 208.102 257.193 210.305L256.879 210.824Z" fill="#5F4D45"/>
<path d="M254.285 211.572L245.894 216.624L246.217 217.163L254.608 212.112L254.285 211.572Z" fill="#5F4D45"/>
</g>
<defs>
<clipPath id="clip0">
<rect width="294" height="192" fill="white" transform="translate(29 32.0066)"/>
</clipPath>
</defs>
</svg>
