<svg width="18" height="4" viewBox="0 0 18 4" fill="none" xmlns="http://www.w3.org/2000/svg">
<path d="M9 3.14282C9.55228 3.14282 10 2.69511 10 2.14282C10 1.59054 9.55228 1.14282 9 1.14282C8.44772 1.14282 8 1.59054 8 2.14282C8 2.69511 8.44772 3.14282 9 3.14282Z" stroke="#0084F4" stroke-linecap="round" stroke-linejoin="round"/>
<path d="M16 3.14282C16.5523 3.14282 17 2.69511 17 2.14282C17 1.59054 16.5523 1.14282 16 1.14282C15.4477 1.14282 15 1.59054 15 2.14282C15 2.69511 15.4477 3.14282 16 3.14282Z" stroke="#0084F4" stroke-linecap="round" stroke-linejoin="round"/>
<path d="M2 3.14282C2.55228 3.14282 3 2.69511 3 2.14282C3 1.59054 2.55228 1.14282 2 1.14282C1.44772 1.14282 1 1.59054 1 2.14282C1 2.69511 1.44772 3.14282 2 3.14282Z" stroke="#0084F4" stroke-linecap="round" stroke-linejoin="round"/>
</svg>
