<svg width="344" height="191" viewBox="0 0 344 191" fill="none" xmlns="http://www.w3.org/2000/svg">
<g clip-path="url(#clip0)">
<path d="M21.9766 190.908C21.9766 190.908 -20.0476 146.14 14.8669 97.6734C45.8432 54.6752 81.9602 57.6126 108.457 75.0531C119.742 82.4883 152.278 75.9711 179.977 32.2123C217.746 -27.4658 348.655 8.7266 324.789 100.545C313.239 144.973 359.941 146.586 336.141 191L21.9766 190.908Z" fill="#ECECF1"/>
<path d="M231.376 190.257H162.84C160.69 190.257 158.927 188.508 158.927 186.376V50.4339C158.927 48.3015 160.69 46.5526 162.84 46.5526H231.376C233.525 46.5526 235.289 48.3015 235.289 50.4339V186.388C235.289 188.52 233.525 190.257 231.376 190.257Z" fill="#483D78"/>
<path d="M239.322 50.4339V186.388C239.322 188.52 237.559 190.257 235.409 190.257H166.873C164.724 190.257 162.972 188.508 162.972 186.388V50.4339C162.972 48.3015 164.724 46.5526 166.873 46.5526H235.409C237.559 46.5526 239.322 48.3015 239.322 50.4339Z" fill="#2D2064"/>
<path opacity="0.4" d="M212.33 51.9912H192.476C192.053 51.9912 191.703 51.6438 191.703 51.2245C191.703 50.8052 192.053 50.4578 192.476 50.4578H212.33C212.753 50.4578 213.103 50.8052 213.103 51.2245C213.103 51.6438 212.765 51.9912 212.33 51.9912Z" fill="#5657E0"/>
<path opacity="0.4" d="M188.962 51.9912C188.539 51.9912 188.189 51.6438 188.189 51.2245C188.189 50.8052 188.539 50.4578 188.962 50.4578C189.385 50.4578 189.735 50.8052 189.735 51.2245C189.735 51.6438 189.385 51.9912 188.962 51.9912Z" fill="#5657E0"/>
<path d="M207.077 182.327C207.077 183.681 206.522 184.914 205.628 185.801C204.722 186.699 203.478 187.262 202.089 187.262C199.336 187.262 197.114 185.046 197.114 182.327C197.114 180.578 198.032 179.033 199.42 178.158C200.193 177.667 201.111 177.391 202.089 177.391C204.843 177.379 207.077 179.596 207.077 182.327Z" fill="#5657E0"/>
<path d="M235.24 55.4053H167.538V174.948H235.24V55.4053Z" fill="#EBE9FD"/>
<path d="M205.628 185.801C204.722 186.699 203.478 187.262 202.089 187.262C199.336 187.262 197.114 185.046 197.114 182.327C197.114 180.578 198.032 179.033 199.42 178.158C199.916 180.254 201.353 183.776 205.628 185.801Z" fill="#6263CD"/>
<path opacity="0.9" d="M234.274 69.6968H234.117H202.766H171.257C170.726 69.6968 170.279 70.2598 170.279 70.9426V110.906C170.279 111.589 170.714 112.152 171.257 112.152H202.766H234.117H234.274C234.806 112.152 235.253 111.589 235.253 110.906V70.9546C235.253 70.2598 234.806 69.6968 234.274 69.6968Z" fill="#E6E1FF"/>
<path opacity="0.9" d="M217.249 118H217.13H193H168.751C168.334 118 168 118.57 168 119.262V159.738C168 160.43 168.334 161 168.751 161H193H217.13H217.249C217.666 161 218 160.43 218 159.738V119.262C218 118.57 217.666 118 217.249 118Z" fill="#E4DFFF"/>
<path d="M258.236 67.3488V107.312C258.236 107.995 257.668 108.558 256.967 108.558H175.388C174.7 108.558 174.132 107.995 174.132 107.312V67.3488C174.132 66.654 174.7 66.0909 175.388 66.0909H256.967C257.668 66.1029 258.236 66.666 258.236 67.3488Z" fill="#FCECDB"/>
<path d="M258.223 67.3488V107.312C258.223 107.995 257.558 108.558 256.761 108.558H216.171V66.1029H256.761C257.571 66.1029 258.223 66.6659 258.223 67.3488Z" fill="#FFCC00"/>
<path d="M236.098 81.6043H221.738C221.231 81.6043 220.821 81.197 220.821 80.6938C220.821 80.1907 221.231 79.7834 221.738 79.7834H236.098C236.605 79.7834 237.016 80.1907 237.016 80.6938C237.016 81.197 236.605 81.6043 236.098 81.6043Z" fill="white"/>
<path d="M232.547 84.3356H221.63C221.183 84.3356 220.821 83.9762 220.821 83.533V83.3173C220.821 82.8741 221.183 82.5147 221.63 82.5147H232.547C232.994 82.5147 233.356 82.8741 233.356 83.3173V83.533C233.356 83.9762 232.994 84.3356 232.547 84.3356Z" fill="white"/>
<path d="M221.932 71.4457C222.27 70.9905 222.729 70.7749 223.285 70.7749C223.84 70.7749 224.287 71.0025 224.625 71.4457C224.963 71.889 225.132 72.44 225.132 73.1109C225.132 73.7817 224.963 74.3208 224.625 74.776C224.287 75.2193 223.828 75.4469 223.285 75.4469C222.729 75.4469 222.282 75.2193 221.932 74.776C221.594 74.3328 221.425 73.7817 221.425 73.1109C221.413 72.44 221.582 71.889 221.932 71.4457ZM224.275 71.7572C224.021 71.3978 223.683 71.2181 223.285 71.2181C222.886 71.2181 222.548 71.3978 222.294 71.7572C222.041 72.1166 221.908 72.5718 221.908 73.0989C221.908 73.638 222.041 74.0932 222.294 74.4526C222.548 74.812 222.886 74.9916 223.297 74.9916C223.707 74.9916 224.033 74.812 224.287 74.4526C224.54 74.0932 224.673 73.638 224.673 73.0989C224.661 72.5718 224.528 72.1166 224.275 71.7572Z" fill="white"/>
<path d="M228.84 71.326C229.142 71.6973 229.299 72.2124 229.299 72.8713C229.323 74.2729 228.562 75.4349 227.33 75.4229C226.956 75.4229 226.642 75.3271 226.376 75.1474V74.6922C226.666 74.8838 226.968 74.9797 227.294 74.9797C228.369 74.9797 228.816 74.0093 228.84 73.051C228.598 73.4583 228.127 73.7218 227.511 73.7218C227.101 73.7218 226.75 73.5901 226.473 73.3265C226.195 73.051 226.05 72.7036 226.05 72.2963C226.05 71.853 226.195 71.4937 226.497 71.2062C226.799 70.9187 227.161 70.7749 227.596 70.7749C228.103 70.7749 228.526 70.9546 228.84 71.326ZM226.823 71.5296C226.618 71.7333 226.509 71.9848 226.509 72.2963C226.509 72.6077 226.618 72.8473 226.823 73.039C227.04 73.2307 227.294 73.3145 227.62 73.3145C227.886 73.3145 228.127 73.2307 228.357 73.063C228.586 72.8953 228.731 72.6916 228.816 72.44C228.743 71.6734 228.308 71.2181 227.608 71.2181C227.294 71.2181 227.028 71.314 226.823 71.5296Z" fill="white"/>
<path d="M230.253 72.4281C230.386 72.2963 230.603 72.2963 230.736 72.4281C230.869 72.5598 230.869 72.7755 230.736 72.9072C230.603 73.039 230.386 73.039 230.253 72.9072C230.12 72.7755 230.12 72.5478 230.253 72.4281ZM230.253 74.812C230.386 74.6802 230.603 74.6802 230.736 74.812C230.869 74.9437 230.869 75.1594 230.736 75.2911C230.603 75.4229 230.386 75.4229 230.253 75.2911C230.12 75.1594 230.12 74.9437 230.253 74.812Z" fill="white"/>
<path d="M232.499 75.351V71.3619L231.484 71.9369V71.4817L232.559 70.8468H232.982V75.351H232.499Z" fill="white"/>
<path d="M234.625 71.4457C234.963 70.9905 235.422 70.7749 235.977 70.7749C236.533 70.7749 236.98 71.0025 237.318 71.4457C237.656 71.889 237.825 72.44 237.825 73.1109C237.825 73.7817 237.656 74.3208 237.318 74.776C236.98 75.2193 236.521 75.4469 235.977 75.4469C235.434 75.4469 234.975 75.2193 234.625 74.776C234.286 74.3328 234.117 73.7817 234.117 73.1109C234.117 72.44 234.286 71.889 234.625 71.4457ZM236.968 71.7572C236.714 71.3978 236.376 71.2181 235.977 71.2181C235.579 71.2181 235.241 71.3978 234.987 71.7572C234.733 72.1166 234.6 72.5718 234.6 73.0989C234.6 73.638 234.733 74.0932 234.987 74.4526C235.241 74.812 235.579 74.9916 235.989 74.9916C236.4 74.9916 236.726 74.812 236.98 74.4526C237.233 74.0932 237.366 73.638 237.366 73.0989C237.354 72.5718 237.221 72.1166 236.968 71.7572Z" fill="white"/>
<path d="M240.627 75.351V70.8468H242.535C243.441 70.8468 243.984 71.3499 243.984 72.0927C243.984 72.8593 243.441 73.3625 242.535 73.3625H241.11V75.351H240.627ZM241.11 72.9312H242.499C243.139 72.9312 243.513 72.6317 243.513 72.1046C243.513 71.5656 243.139 71.2781 242.499 71.2781H241.11V72.9312Z" fill="white"/>
<path d="M244.938 75.351V70.8468H245.409L247.052 73.027L248.694 70.8468H249.165V75.351H248.694V71.5656L247.209 73.5302H246.919L245.421 71.5656V75.351H244.938Z" fill="white"/>
<path d="M198.334 108.558H175.376C174.687 108.558 174.12 107.995 174.12 107.312V80.1547C180.375 87.4861 192.633 101.861 198.334 108.558Z" fill="#F9E5D1"/>
<path d="M194.988 71.3619C190.399 71.3619 186.667 75.0515 186.667 79.6157C186.667 84.1678 194.988 94.3024 194.988 94.3024C194.988 94.3024 203.309 84.1678 203.309 79.6157C203.309 75.0515 199.59 71.3619 194.988 71.3619ZM194.988 83.3772C192.839 83.3772 191.1 81.6522 191.1 79.5198C191.1 77.3875 192.839 75.6625 194.988 75.6625C197.138 75.6625 198.877 77.3875 198.877 79.5198C198.877 81.6522 197.138 83.3772 194.988 83.3772Z" fill="#FFCC00"/>
<path d="M194.301 101.143H179.941C179.434 101.143 179.023 100.735 179.023 100.232C179.023 99.729 179.434 99.3217 179.941 99.3217H194.301C194.808 99.3217 195.219 99.729 195.219 100.232C195.206 100.735 194.796 101.143 194.301 101.143Z" fill="#EFCBAB"/>
<path d="M190.749 103.862H179.82C179.373 103.862 179.011 103.502 179.011 103.059V102.844C179.011 102.4 179.373 102.041 179.82 102.041H190.737C191.184 102.041 191.547 102.4 191.547 102.844V103.059C191.547 103.502 191.184 103.862 190.749 103.862Z" fill="#EFCBAB"/>
<path d="M217.947 116.428V156.392C217.947 157.074 217.38 157.637 216.691 157.637H135.112C134.412 157.637 133.844 157.074 133.844 156.392V116.428C133.844 115.746 134.412 115.182 135.112 115.182H216.691C217.38 115.182 217.947 115.746 217.947 116.428Z" fill="#FCECDB"/>
<path d="M217.946 116.428V156.392C217.946 157.074 217.379 157.637 216.69 157.637H180.399V115.182H216.69C217.379 115.182 217.946 115.746 217.946 116.428Z" fill="#FFCC00"/>
<path d="M198.889 145.071C198.165 145.071 197.5 144.688 197.138 144.077L191.776 134.984C191.208 134.026 191.535 132.78 192.501 132.217C193.467 131.654 194.723 131.978 195.29 132.936L198.732 138.77L205.206 125.545C205.701 124.538 206.92 124.119 207.923 124.61C208.937 125.101 209.36 126.311 208.865 127.306L200.725 143.921C200.399 144.592 199.723 145.023 198.974 145.059C198.95 145.059 198.926 145.071 198.889 145.071Z" fill="#FCECDB"/>
<path d="M198.901 149.743C191.933 149.743 186.269 144.125 186.269 137.213C186.269 130.301 191.933 124.682 198.901 124.682C205.87 124.682 211.534 130.301 211.534 137.213C211.522 144.125 205.858 149.743 198.901 149.743ZM198.901 126.156C192.754 126.156 187.754 131.115 187.754 137.213C187.754 143.31 192.754 148.27 198.901 148.27C205.048 148.27 210.048 143.31 210.048 137.213C210.048 131.115 205.048 126.156 198.901 126.156Z" fill="#FCECDB"/>
<path d="M157.731 157.637H135.099C134.399 157.637 133.831 157.074 133.831 156.392V125.473L157.731 157.637Z" fill="#F9E5D1"/>
<path d="M144.785 122.107C142.285 122.107 140.256 124.119 140.256 126.599C140.256 129.079 142.285 131.091 144.785 131.091C147.285 131.091 149.314 129.079 149.314 126.599C149.302 124.119 147.285 122.107 144.785 122.107ZM147.913 126.743H144.785C144.7 126.743 144.64 126.683 144.64 126.599V123.257C144.64 123.173 144.7 123.113 144.785 123.113C144.869 123.113 144.93 123.173 144.93 123.257V126.455H147.925C148.009 126.455 148.07 126.515 148.07 126.599C148.058 126.683 147.997 126.743 147.913 126.743Z" fill="#FACA0B"/>
<path d="M168.057 124.934H153.698C153.19 124.934 152.78 124.526 152.78 124.023C152.78 123.52 153.19 123.113 153.698 123.113H168.057C168.564 123.113 168.975 123.52 168.975 124.023C168.975 124.514 168.564 124.934 168.057 124.934Z" fill="#EFCBAB"/>
<path d="M164.519 127.653H153.601C153.154 127.653 152.792 127.294 152.792 126.85V126.635C152.792 126.192 153.154 125.832 153.601 125.832H164.519C164.965 125.832 165.328 126.192 165.328 126.635V126.85C165.316 127.294 164.953 127.653 164.519 127.653Z" fill="#EFCBAB"/>
<path d="M144.326 139.477C142.08 139.477 140.256 141.286 140.256 143.514C140.256 145.742 144.326 150.701 144.326 150.701C144.326 150.701 148.396 145.742 148.396 143.514C148.408 141.286 146.584 139.477 144.326 139.477ZM144.326 145.371C143.275 145.371 142.418 144.52 142.418 143.478C142.418 142.436 143.275 141.585 144.326 141.585C145.377 141.585 146.234 142.436 146.234 143.478C146.234 144.52 145.389 145.371 144.326 145.371Z" fill="#FACA0B"/>
<path d="M166.97 142.424H152.611C152.104 142.424 151.693 142.016 151.693 141.513C151.693 141.01 152.104 140.603 152.611 140.603H166.97C167.477 140.603 167.888 141.01 167.888 141.513C167.888 142.016 167.477 142.424 166.97 142.424Z" fill="#EFCBAB"/>
<path d="M163.42 145.143H152.502C152.055 145.143 151.693 144.784 151.693 144.34V144.125C151.693 143.682 152.055 143.322 152.502 143.322H163.42C163.866 143.322 164.229 143.682 164.229 144.125V144.34C164.229 144.784 163.866 145.143 163.42 145.143Z" fill="#EFCBAB"/>
<path d="M56.2131 139.237C55.9112 131.942 55.2711 125.593 54.4982 121.172C53.2664 114.116 52.1553 110.055 52.1432 110.019C51.9862 109.396 49.6433 106.893 44.4382 106.965C39.2331 107.037 39.7282 110.331 39.7282 110.331C39.7282 110.439 39.7403 110.546 39.7645 110.618C39.8128 110.786 44.5952 127.965 44.3899 150.15C44.3899 150.462 44.3537 151.001 44.3778 151.36C44.3778 151.36 56.4305 151.672 56.4426 151.36C56.8653 149.42 56.66 144.053 56.2131 139.237Z" fill="#B7D3F3"/>
<path d="M57.7349 150.043C57.7349 150.354 57.5658 150.594 57.3605 150.594C57.1552 150.594 56.9982 150.342 56.9982 150.043H46.6604C46.6604 150.354 46.4914 150.594 46.2861 150.594C46.0807 150.594 45.9237 150.33 45.9237 150.019C45.9841 143.669 45.6218 137.74 45.0663 132.505C43.6895 119.459 41.1534 110.738 41.1172 110.618C41.093 110.546 41.0809 110.439 41.0809 110.331C41.0809 110.331 40.5858 107.037 45.7909 106.965C50.996 106.893 53.3389 109.396 53.4959 110.019C53.508 110.055 54.136 112.355 54.9693 116.476C55.2471 117.842 55.549 119.411 55.8509 121.172C56.6238 125.593 57.2639 131.942 57.5658 139.237C58.0006 144.053 58.1576 148.102 57.7349 150.043Z" fill="#D2E3FC"/>
<path d="M45.1628 150.594H85.6807C85.6807 150.594 84.7387 146.808 61.2734 147.371C44.6677 147.778 45.1628 150.594 45.1628 150.594Z" fill="#C5DCF8"/>
<path d="M41.8659 190.149C46.5638 166.562 45.3561 152.091 45.344 151.911C45.332 151.552 46.0083 151.217 46.3706 151.205C46.7329 151.193 48.3633 151.097 48.5444 151.408C48.7859 151.815 49.74 169.653 42.7354 190.149H41.8659Z" fill="#B7D3F3"/>
<path d="M79.6905 190.149C74.9926 166.562 76.2003 152.091 76.2123 151.911C76.2244 151.552 75.5481 151.217 75.1858 151.205C74.8235 151.193 73.1931 151.097 73.012 151.408C72.7704 151.815 71.8163 169.653 78.8209 190.149H79.6905Z" fill="#B7D3F3"/>
<path d="M87.1903 190.149C82.4924 166.562 83.7001 152.091 83.7122 151.911C83.7243 151.552 83.048 151.217 82.6857 151.205C82.3234 151.193 80.693 151.097 80.5118 151.408C80.2703 151.815 79.3162 169.653 86.3208 190.149H87.1903Z" fill="#B7D3F3"/>
<path d="M49.414 190.149C54.1119 166.562 52.9042 152.091 52.8921 151.911C52.8801 151.552 53.5564 151.217 53.9187 151.205C54.281 151.193 55.9114 151.097 56.0925 151.408C56.334 151.815 57.2881 169.653 50.2835 190.149H49.414Z" fill="#B7D3F3"/>
<path d="M85.7047 151.803H45.1868C44.7279 151.803 44.3535 151.432 44.3535 150.977V150.438C44.3535 149.983 44.7279 149.611 45.1868 149.611H85.7047C86.1636 149.611 86.538 149.983 86.538 150.438V150.977C86.5259 151.432 86.1515 151.803 85.7047 151.803Z" fill="#B7D3F3"/>
<path d="M84.2797 115.518L97.7454 112.619L98.5424 114.536C98.5424 114.536 83.6879 123.305 82.287 122.873C80.8982 122.454 84.2797 115.518 84.2797 115.518Z" fill="#FFC094"/>
<path d="M72.0337 175.93C71.6956 176.313 71.6593 176.745 71.8163 177.2C71.8163 177.2 71.8163 177.2 71.8163 177.212C72.1303 178.062 73.1448 179.009 74.3283 179.943C74.4853 180.063 74.6182 180.171 74.7268 180.278C74.7631 180.302 74.7872 180.326 74.8235 180.362C74.8476 180.386 74.8718 180.41 74.8959 180.422C75.9949 181.428 75.5843 181.668 77.5649 183.717C79.8233 186.053 81.3812 186.088 81.828 185.885C82.2024 185.705 81.4416 184.459 80.5962 183.07C80.56 182.998 80.5117 182.938 80.4754 182.866C80.3667 182.686 80.246 182.495 80.1373 182.303C79.147 180.626 79.4006 179.835 79.6421 177.344C79.8354 175.319 82.8183 166.023 82.8183 166.023L78.4828 165.28C78.4828 165.28 77.1784 172.684 75.7413 173.822C74.9684 174.433 74.1109 174.433 73.3742 174.888C73.3259 174.924 73.2655 174.948 73.2172 174.984C72.7945 175.259 72.3719 175.547 72.0337 175.93Z" fill="#FFC094"/>
<path d="M72.0337 175.93C71.6956 176.313 71.6593 176.745 71.8163 177.2C71.8163 177.2 71.8163 177.2 71.8163 177.212C72.1907 178.062 73.1931 178.997 74.3283 179.943C74.4732 180.063 74.6061 180.183 74.7268 180.29C74.7631 180.314 74.7872 180.338 74.8235 180.374C74.8476 180.398 74.8718 180.422 74.8959 180.434C75.9949 181.44 75.5843 181.68 77.5649 183.729C79.8233 186.064 81.3812 186.1 81.828 185.897C82.2024 185.717 81.4416 184.471 80.5962 183.082C80.1614 182.926 78.1084 182.099 76.5625 180.135C75.1978 178.41 74.2921 176.193 73.3622 174.912C73.3139 174.948 73.2535 174.972 73.2052 175.008C72.7946 175.259 72.3719 175.547 72.0337 175.93Z" fill="#1C468A"/>
<path d="M106.996 173.247C107.262 174.576 109.17 174.349 111.308 173.834C113.445 173.318 112.938 173.929 115.97 173.594C119.001 173.259 119.919 172.144 120.015 171.689C120.1 171.294 118.602 171.15 116.996 170.97C116.791 170.947 116.585 170.923 116.392 170.899C114.581 170.671 113.252 169.509 111.598 168.551C110.04 167.652 107.709 163.963 107.709 163.963L103.542 164.286C103.542 164.286 105.728 167.58 106.574 169.006C107.069 169.844 107.045 170.958 106.984 171.821C106.936 172.3 106.912 172.779 106.996 173.247Z" fill="#FFC094"/>
<path d="M111.308 173.834C113.445 173.318 112.938 173.929 115.969 173.594C119.001 173.259 119.919 172.144 120.015 171.689C120.1 171.294 118.602 171.15 116.996 170.97L116.984 171.006C116.984 171.006 115.16 172.288 112.636 172.348C110.583 172.396 108.397 171.809 106.972 171.833C106.936 172.3 106.912 172.779 107.008 173.247C107.274 174.564 109.182 174.349 111.308 173.834Z" fill="#1C468A"/>
<path d="M97.7454 112.619C97.7454 112.619 98.7357 110.211 99.8226 110.115C100.91 110.019 104.388 109.48 104.629 109.971C104.883 110.463 104.629 112.236 103.88 112.87C103.132 113.505 98.5304 114.548 98.5304 114.548L97.7454 112.619Z" fill="#FFC094"/>
<path d="M91.0548 146.856L82.0817 170.791C82.0817 170.791 80.7049 170.923 79.3885 170.551C78.1688 170.204 76.7799 169.293 76.7799 169.293C76.7799 169.293 79.0021 146.305 83.084 141.525C87.166 136.733 91.0548 146.856 91.0548 146.856Z" fill="#163560"/>
<path d="M55.5852 137.165C55.5852 137.165 81.3572 128.528 87.0937 130.36C92.8423 132.193 110.1 166.251 110.1 166.251C110.1 166.251 109.714 166.766 108.651 167.161C107.661 167.532 105.269 167.508 105.269 167.508C105.269 167.508 89.7023 154.271 87.8424 150.402C85.9826 146.545 85.2459 142.867 83.3982 143.226C81.5383 143.598 59.486 152.235 54.4741 147.084C49.4743 141.932 50.7786 135.248 50.7786 135.248L55.5852 137.165Z" fill="#1C468A"/>
<path d="M70.2826 76.2255C69.1716 75.6026 67.831 75.5307 66.9011 75.5786C67.1426 75.3271 67.6136 75.2432 67.6136 75.2432C67.034 75.1593 65.7417 75.7224 65.7417 75.7224C57.6865 72.6437 56.4184 84.4074 56.5875 87.1387C56.7565 89.87 56.7807 93.0206 52.7591 95.4644C44.8488 100.292 51.5273 108.702 51.5273 108.702C51.5876 108.738 55.2107 114.823 55.2107 114.823C55.0054 112.619 65.2828 100.963 70.6329 97.4769C71.9372 95.5722 72.3961 92.206 72.4323 91.9425C72.2029 94.6139 71.7439 96.1113 71.3333 96.9499C75.8742 92.817 73.2294 77.8907 70.2826 76.2255Z" fill="#B5453C"/>
<path d="M70.3067 97.6567C70.3309 97.6686 67.7223 99.0103 65.7537 98.4832C63.906 97.9801 62.6983 95.6082 62.7224 95.5962C63.5074 95.4405 63.7369 94.3743 63.7127 89.7862L64.063 89.8581L70.0169 91.032C70.0169 91.032 69.884 92.8889 69.8719 94.6379C69.884 96.1113 69.9686 97.5009 70.3067 97.6567Z" fill="#FFC094"/>
<path d="M70.029 91.0321C70.029 91.0321 69.8961 92.8889 69.8841 94.6379C66.5509 94.542 64.7876 91.5352 64.0751 89.8581L70.029 91.0321Z" fill="#ED975D"/>
<path d="M63.4593 89.2232C63.4593 89.2232 61.7082 86.4919 61.2976 84.1439C60.9957 82.4788 61.8531 76.2854 68.1331 77.1719C68.1331 77.1719 69.9567 77.3516 71.6716 78.5016C73.0363 79.4121 75.0048 81.3887 72.8068 86.7914L72.2392 88.6122L63.4593 89.2232Z" fill="#B5453C"/>
<path d="M71.1401 92.6852C71.1401 92.6852 63.2539 92.817 63.2539 87.9414C63.2539 83.0657 62.2274 79.8073 67.2634 79.5198C72.2995 79.2323 73.2777 81.0891 73.6763 82.7183C74.0748 84.3475 73.1932 92.5295 71.1401 92.6852Z" fill="#FFC094"/>
<path d="M70.8502 79.4C70.8502 79.4 68.6884 85.1142 65.3794 85.9647C62.0703 86.8153 60.6332 85.9288 60.6332 85.9288C60.6332 85.9288 63.1693 83.9282 63.7007 80.4303C63.6886 80.4303 69.2198 76.6807 70.8502 79.4Z" fill="#B5453C"/>
<path d="M70.3068 79.8673C70.3068 79.8673 71.913 81.1371 72.3116 82.3829C72.7101 83.6288 72.8792 86.1804 73.628 86.0846C73.628 86.0846 75.2583 82.2032 73.4226 79.999C71.4904 77.675 70.3068 79.8673 70.3068 79.8673Z" fill="#B5453C"/>
<path d="M52.7592 118.704C51.9863 115.47 54.6311 109.193 57.3847 103.994C59.8846 99.2858 62.4932 95.4644 62.7226 95.5961C69.3287 99.4894 69.9325 96.255 69.9325 96.255C69.9325 96.255 75.9347 97.0456 77.6375 99.9447C79.751 103.55 82.0214 113.601 84.2798 115.506C83.9296 116.56 84.0866 117.123 84.4489 118.429C84.5334 118.704 84.618 118.98 84.7146 119.231C85.0527 120.154 85.4875 120.897 85.8498 121.544C84.7025 122.238 82.4804 123.556 80.8379 122.61C78.338 121.16 76.3936 116.752 75.3067 115.003C75.3067 114.991 75.2946 114.991 75.2946 114.979C72.9155 128.348 76.1521 131.391 74.5096 132.792C72.7826 134.278 70.3069 132.085 64.8723 134.421C61.3096 135.955 56.3581 138.171 53.0249 138.566C51.2738 138.77 49.9695 138.47 49.5468 137.296C48.3029 133.894 54.2447 124.862 52.7592 118.704Z" fill="#FF75B6"/>
<path d="M69.3889 89.7383C69.3889 89.7383 69.5338 90.3612 71.0918 90.2654C71.0918 90.2654 72.3961 90.1815 72.3598 89.5106C72.3477 89.4987 71.0797 89.0195 69.3889 89.7383Z" fill="white"/>
<path d="M49.5468 137.296C49.9695 138.47 51.2738 138.77 53.0249 138.566C55.3316 137.572 65.295 133.739 65.1863 131.151C65.0172 127.306 63.2661 127.186 64.51 122.442C65.5003 118.633 56.2977 111.553 54.8244 110.019C52.0588 115.218 51.9863 115.458 52.7592 118.692C54.2447 124.862 48.3029 133.894 49.5468 137.296Z" fill="#FF5F99"/>
<path d="M48.4115 123.448C50.1747 120.993 52.0225 119.687 53.2301 119.028C52.9524 118.321 60.6574 108.941 60.6574 107.492C60.6574 106.018 62.7105 95.6082 62.7105 95.6082C62.7105 95.6082 56.2856 96.0035 54.0634 99.0822C51.2978 102.916 45.513 117.734 48.4115 123.448Z" fill="#FF75B6"/>
<path d="M53.2302 119.028L66.0679 122.346L64.8603 124.49C64.8603 124.49 49.2328 124.383 48.4116 123.436C47.5904 122.502 53.2302 119.028 53.2302 119.028Z" fill="#FFC094"/>
<path d="M75.3067 115.003C76.4057 116.764 78.3501 121.16 80.8379 122.61C82.4683 123.556 84.6904 122.238 85.8498 121.544C85.4875 120.897 85.0527 120.154 84.7146 119.232C83.7967 119.435 82.6736 119.711 81.949 119.926C80.5481 120.346 75.3067 115.003 75.3067 115.003Z" fill="#FF5F99"/>
<path d="M66.0678 122.358C66.0678 122.358 70.1015 121.232 71.0556 121.496C72.0217 121.759 75.3066 123.915 74.8477 124.502C74.3888 125.089 71.4903 124.155 70.1498 124.323C68.8214 124.502 67.7827 125.149 66.8287 125.018C65.8625 124.874 64.8601 124.502 64.8601 124.502L66.0678 122.358Z" fill="#FFC094"/>
<path d="M66.0678 122.358C66.0678 122.358 68.0363 121.352 68.6039 120.777C68.6764 120.705 68.7972 120.717 68.8455 120.801C68.9904 121.04 69.1353 121.496 68.4469 121.939C67.4566 122.598 66.0678 122.358 66.0678 122.358Z" fill="#FFC094"/>
<path d="M84.7025 127.977H65.8989C65.8989 127.15 66.5752 126.491 67.3964 126.491H84.7025V127.977Z" fill="#8A7B7F"/>
<path d="M84.6542 107.659H113.735L106.755 127.976H77.4926L84.6542 107.659Z" fill="#8A7B7F"/>
<path d="M114.158 107.659L107.19 127.976H77.9153L85.0768 107.659H114.158Z" fill="#786A6E"/>
<path d="M98.4822 117.638C98.301 118.417 97.516 119.04 96.7431 119.04C95.9581 119.04 95.475 118.405 95.6562 117.638C95.8373 116.86 96.6223 116.237 97.3952 116.237C98.1682 116.225 98.6633 116.86 98.4822 117.638Z" fill="#F9DDBF"/>
<path d="M114.158 107.659L107.178 127.976H87.8063C100.644 123.628 104.062 110.379 104.641 107.659H114.158Z" fill="#706669"/>
<path d="M29.7287 190.149C30.091 190.149 30.405 189.898 30.4775 189.538L34.1247 169.006L39.3781 139.477L40.8515 131.223L37.1077 131.115L36.4555 135.907L31.9026 169.593L29.1974 189.562C29.1611 189.874 29.4147 190.149 29.7287 190.149Z" fill="#95C0F4"/>
<path d="M36.4676 135.907C38.8951 136.973 39.3902 139.477 39.3902 139.477L40.8636 131.223L37.1198 131.115L36.4676 135.907Z" fill="#78ACEA"/>
<path d="M122.805 190.149C122.443 190.149 122.129 189.898 122.056 189.538L118.409 169.006L113.155 139.477L111.682 131.223L115.426 131.115L116.078 135.907L120.631 169.593L123.336 189.562C123.385 189.874 123.131 190.149 122.805 190.149Z" fill="#95C0F4"/>
<path d="M116.078 135.907C113.651 136.973 113.155 139.477 113.155 139.477L111.682 131.223L115.426 131.115L116.078 135.907Z" fill="#78ACEA"/>
<path d="M27.2409 134.457H123.059C124.315 134.457 125.341 133.439 125.341 132.193V130.241C125.341 128.995 124.315 127.976 123.059 127.976H27.2409C25.9849 127.976 24.9584 128.995 24.9584 130.241V132.193C24.9584 133.439 25.9849 134.457 27.2409 134.457Z" fill="#78ACEA"/>
<path d="M336.626 191H7.37438C7.16908 191 7 190.832 7 190.629V190.497C7 190.293 7.16908 190.125 7.37438 190.125H336.626C336.831 190.125 337 190.293 337 190.497V190.629C337 190.844 336.831 191 336.626 191Z" fill="#2E3552"/>
<path d="M250.192 84.3356C250.192 84.3356 248.851 80.0589 248.09 79.5917C247.329 79.1365 244.165 77.5792 243.972 77.9985C243.779 78.4178 245.687 80.4542 246.11 81.1251C246.532 81.8079 246.738 82.4788 246.448 82.1793C246.158 81.8918 244.552 80.9095 244.383 81.1251C244.214 81.3407 245.18 82.1793 245.651 82.8501C246.11 83.521 246.617 84.647 248.271 84.8986C249.914 85.1621 250.192 84.3356 250.192 84.3356Z" fill="#E79370"/>
<path d="M298.958 120.382C298.958 120.382 298.559 124.251 298.113 124.982C297.678 125.712 295.794 128.048 294.997 128.504C294.2 128.959 295.48 125.425 295.323 124.73C295.166 124.047 294.671 125.988 294.308 126.036C293.958 126.084 294.043 124.335 294.031 123.688C294.019 123.053 295.746 121.484 296.349 120.118C296.977 118.776 298.958 120.382 298.958 120.382Z" fill="#E79370"/>
<path d="M286.736 80.6938C286.736 80.6938 283.5 96.4707 265.65 101.634C260.083 103.239 247.426 85.0543 247.426 85.0543C247.426 85.0543 247.873 83.3772 250.663 83.7606C250.663 83.7606 262.981 91.8466 264.527 92.7331C265.904 93.5118 274.949 82.7064 279.079 80.9694C283.21 79.2324 286.736 80.6938 286.736 80.6938Z" fill="#233862"/>
<path d="M308.028 179.907C308.028 179.907 310.238 181.908 309.803 183.333C309.368 184.759 307.375 185.705 307.11 187.442C306.844 189.179 305.757 190.126 304.791 190.126C303.825 190.126 300.153 190.126 300.153 190.126C300.153 190.126 299.441 188.904 301.168 188.532C302.895 188.161 303.547 186.124 303.438 184.22C303.33 182.327 303.595 179.787 303.595 179.787L307.267 178.949L308.028 179.907Z" fill="#233862"/>
<path d="M280.879 185.094C280.879 185.094 281.278 189.658 280.299 190.126L267.86 190.102C267.86 190.102 267.86 188.676 269.853 188.365C271.846 188.053 275.36 186.891 275.952 184.304C276.568 181.716 280.879 185.094 280.879 185.094Z" fill="#233862"/>
<path d="M270.384 120.693C270.384 120.693 271.036 128.683 271.809 138.291C272.86 151.336 274.116 167.365 274.237 170.407C274.454 175.678 275.311 184.112 275.311 184.112C275.311 184.112 277.365 186.112 281.471 185.274C281.471 185.274 285.13 173.235 286.169 160.489C286.181 160.285 286.205 160.069 286.217 159.854C287.183 146.88 288.705 119.579 288.705 119.579L270.384 120.693Z" fill="#846E64"/>
<path d="M270.384 120.693C270.384 120.693 271.036 128.683 271.809 138.291L286.181 160.489C286.193 160.285 286.217 160.069 286.229 159.854C287.195 146.88 288.717 119.579 288.717 119.579L270.384 120.693Z" fill="#756158"/>
<path d="M273.379 121.639C273.379 121.639 285.203 150.582 292.968 164.178C300.745 177.775 303.173 181.572 303.173 181.572C303.173 181.572 307.629 179.835 308.028 178.649C308.028 178.649 305.057 152.39 299.852 145.993C296.905 142.376 293.451 131.522 293.294 127.725C293.137 123.927 292.243 116.416 292.243 116.416L273.379 121.639Z" fill="#846E64"/>
<path d="M288.934 77.0402C288.934 77.0402 280.939 80.8736 276.326 79.448C276.326 79.448 277.461 78.0225 279.442 76.9683C279.285 76.0459 279.164 75.2552 279.091 74.5724C278.898 73.0151 278.898 72.1286 278.898 72.1286L281.978 69.7208L284.9 67.4207C284.671 73.9016 288.934 77.0402 288.934 77.0402Z" fill="#E79370"/>
<path d="M293.149 117.902C293.161 118.393 292.123 118.944 291.664 119.148C288.246 120.633 285.045 121.675 281.434 122.023C277.159 122.454 272.111 121.508 270.372 121.544C270.191 121.544 270.034 121.472 269.889 121.352C269.768 121.268 269.672 116.153 269.768 109.732C269.768 109.468 269.768 109.217 269.78 108.953V108.869C269.817 106.354 269.901 103.73 270.034 101.095C270.288 95.3087 270.747 89.7263 271.519 86.6476C272.461 83.0059 274.587 80.598 276.519 78.849L278.113 77.4594C279.708 77.7709 281.398 77.687 283.077 76.8724C284.925 75.9859 286.905 75.0396 287.231 75.2792C289.647 77.0281 291.277 80.9574 292.147 85.9887C292.147 86.0127 292.159 86.0366 292.159 86.0606C292.642 88.9357 292.895 92.1461 292.871 95.5123C292.871 96.7582 292.835 98.04 292.763 99.3098C292.412 105.036 292.642 110.139 292.883 113.673C292.932 114.368 292.98 115.003 293.016 115.578C293.077 116.572 293.125 117.351 293.149 117.902Z" fill="#2A4E96"/>
<path d="M292.871 113.661C279.611 98.4832 287.835 87.4382 287.835 87.4382L292.147 86.0486C292.63 88.9237 292.883 92.1342 292.859 95.5004C292.859 96.7462 292.823 98.028 292.751 99.2978C292.4 105.024 292.642 110.127 292.871 113.661Z" fill="#233862"/>
<path d="M284.961 69.9005C284.961 69.9005 282.944 73.5542 279.092 74.5724C278.898 73.0151 278.898 72.1286 278.898 72.1286L281.978 69.7208L284.961 69.9005Z" fill="#ED985F"/>
<path d="M277.485 72.0327C277.485 72.0327 285.118 73.2666 285.831 68.6186C286.543 63.9706 288.016 60.9877 283.174 60.0054C278.331 59.0231 277.111 60.6523 276.483 62.1498C275.867 63.6472 275.517 71.5895 277.485 72.0327Z" fill="#E79370"/>
<path d="M288.608 59.4424C288.681 59.3586 288.838 59.2987 289.188 59.2867C289.188 59.2867 288.898 59.107 288.524 59.107C288.451 58.6159 288.186 57.7533 287.34 57.5377C287.34 57.5377 287.799 57.7773 287.859 58.3044C286.869 57.2981 284.768 56.5674 278.91 57.0226C271.205 57.6216 273.742 62.5211 274.744 63.1081C275.746 63.6951 278.258 62.0899 280.106 62.2336C281.966 62.3774 282.316 65.0488 282.944 65.4082C283.572 65.7795 283.331 65.1326 284.176 64.7493C285.033 64.366 285.106 65.7675 284.864 66.678C284.623 67.5884 285.794 68.7983 285.794 68.7983C285.794 68.7983 285.794 68.7983 286.978 67.5285C288.161 66.2587 289.284 60.9039 288.741 59.7659C288.705 59.6461 288.657 59.5502 288.608 59.4424Z" fill="#4D2B1D"/>
<path d="M287.219 75.2432C287.219 75.2432 292.05 77.5073 294.357 80.9933C297.944 86.396 302.11 106.102 302.183 107.935C302.255 109.768 299.139 122.646 299.139 122.646C299.139 122.646 295.975 122.442 295.166 120.861C295.166 120.861 295.794 107.624 295.395 106.773C294.997 105.922 282.232 89.0195 283.657 85.4137C285.118 81.796 287.219 75.2432 287.219 75.2432Z" fill="#2A4E96"/>
<path d="M247.184 104.868H228.139C226.485 104.868 225.132 103.527 225.132 101.885V101.047C225.132 99.4057 226.485 98.064 228.139 98.064H247.184C248.839 98.064 250.192 99.4057 250.192 101.047V101.885C250.192 103.527 248.839 104.868 247.184 104.868Z" fill="#FFFAF5"/>
<path d="M237.62 102.951C237.487 102.951 237.366 102.88 237.294 102.76L236.291 101.059C236.182 100.879 236.243 100.651 236.424 100.544C236.605 100.436 236.835 100.496 236.943 100.675L237.583 101.766L238.791 99.2978C238.888 99.1061 239.105 99.0342 239.298 99.1181C239.492 99.2139 239.564 99.4296 239.479 99.6212L237.958 102.724C237.897 102.844 237.777 102.928 237.632 102.94C237.632 102.951 237.632 102.951 237.62 102.951Z" fill="#F99746"/>
<path d="M237.62 103.827C236.315 103.827 235.265 102.773 235.265 101.491C235.265 100.197 236.327 99.1552 237.62 99.1552C238.912 99.1552 239.975 100.209 239.975 101.491C239.975 102.773 238.924 103.827 237.62 103.827ZM237.62 99.4188C236.472 99.4188 235.542 100.341 235.542 101.479C235.542 102.617 236.472 103.54 237.62 103.54C238.767 103.54 239.697 102.617 239.697 101.479C239.709 100.341 238.767 99.4188 237.62 99.4188Z" fill="#F99746"/>
<path d="M130.196 80.3704H109.846C107.177 80.3704 104.992 82.5386 104.992 85.1861V92.8169C104.992 94.0269 105.45 95.141 106.199 95.9915L104.992 101.478L111.96 97.6446H130.196C132.865 97.6446 135.051 95.4764 135.051 92.8289V85.1981C135.051 82.5506 132.865 80.3704 130.196 80.3704Z" fill="#D6CFFB"/>
<path d="M130.57 86.1923H109.484C109.049 86.1923 108.699 85.8449 108.699 85.4137C108.699 84.9824 109.049 84.635 109.484 84.635H130.582C131.017 84.635 131.367 84.9824 131.367 85.4137C131.367 85.8449 131.005 86.1923 130.57 86.1923Z" fill="#F5F5F5"/>
<path d="M130.57 89.6184H109.484C109.049 89.6184 108.699 89.271 108.699 88.8398C108.699 88.4085 109.049 88.0611 109.484 88.0611H130.582C131.017 88.0611 131.367 88.4085 131.367 88.8398C131.367 89.271 131.005 89.6184 130.57 89.6184Z" fill="#F5F5F5"/>
<path d="M130.57 92.9128H109.484C109.049 92.9128 108.699 92.5654 108.699 92.1341C108.699 91.7029 109.049 91.3555 109.484 91.3555H130.582C131.017 91.3555 131.367 91.7029 131.367 92.1341C131.367 92.5654 131.005 92.9128 130.57 92.9128Z" fill="#F5F5F5"/>
</g>
<defs>
<clipPath id="clip0">
<rect width="344" height="191" fill="white"/>
</clipPath>
</defs>
</svg>
