<svg width="28" height="24" viewBox="0 0 28 24" fill="none" xmlns="http://www.w3.org/2000/svg">
<path d="M18.7681 0.333313C17.9177 0.333313 17.1 0.671016 16.4986 1.27325L16.2718 1.49998H12.9348C12.0844 1.49998 11.2667 1.83768 10.6652 2.43992L0.939966 12.1663C-0.305647 13.4119 -0.305647 15.4575 0.939966 16.7031L6.96357 22.7278C8.20918 23.9735 10.2559 23.9735 11.5015 22.7278L12.732 21.4962L12.7969 21.5612C14.0425 22.8068 16.0892 22.8068 17.3348 21.5612L27.0612 11.8348C27.6626 11.2334 28.0012 10.417 28.0012 9.56639V2.95831C28.0003 1.51922 26.8144 0.333313 25.375 0.333313H18.7681ZM18.7681 2.08331H25.375C25.8688 2.08331 26.2509 2.46424 26.2512 2.95831V9.56639C26.2512 9.95249 26.0964 10.3239 25.8228 10.5975L16.0975 20.3227C15.5208 20.8995 14.6121 20.8995 14.0353 20.3227L8.0106 14.2991C7.43388 13.7224 7.43388 12.8137 8.0106 12.237L17.737 2.51056C18.0106 2.23663 18.3806 2.08331 18.7681 2.08331ZM12.9348 3.24998H14.5218L6.7733 10.9997C5.52769 12.2453 5.52769 14.2908 6.7733 15.5364L11.4947 20.2589L10.2642 21.4894C9.68746 22.0661 8.77873 22.0661 8.20201 21.4894L2.17727 15.4658C1.60055 14.8891 1.60055 13.9803 2.17727 13.4036L11.9037 3.67723C12.1772 3.4033 12.5473 3.24998 12.9348 3.24998ZM22.75 3.83331C22.2859 3.83331 21.8408 4.01769 21.5126 4.34588C21.1844 4.67406 21 5.11918 21 5.58331C21 6.04744 21.1844 6.49256 21.5126 6.82075C21.8408 7.14894 22.2859 7.33331 22.75 7.33331C23.2142 7.33331 23.6593 7.14894 23.9875 6.82075C24.3157 6.49256 24.5 6.04744 24.5 5.58331C24.5 5.11918 24.3157 4.67406 23.9875 4.34588C23.6593 4.01769 23.2142 3.83331 22.75 3.83331Z" fill="#999999"/>
</svg>
