<svg width="334" height="319" viewBox="0 0 334 319" fill="none" xmlns="http://www.w3.org/2000/svg">
<path d="M270.329 148.565L259.711 175.572L299.724 191.306L310.342 164.299L270.329 148.565Z" fill="#EBEBEB"/>
<path d="M310.348 164.677C310.348 164.677 310.197 164.752 309.819 164.904C309.441 165.055 308.912 165.206 308.308 165.433C306.948 165.886 305.059 166.566 302.792 167.322C298.031 168.909 291.608 171.101 284.429 173.519L284.278 173.595L284.202 173.444C284.127 173.368 284.051 173.217 283.976 173.141C280.197 166.491 276.721 160.52 274.228 156.061C273.019 153.87 272.036 152.132 271.281 150.847C270.978 150.242 270.676 149.789 270.525 149.411C270.374 149.109 270.298 148.882 270.298 148.882C270.298 148.882 270.449 149.033 270.601 149.335C270.827 149.713 271.054 150.167 271.432 150.696C272.187 151.98 273.17 153.719 274.454 155.835C277.024 160.218 280.5 166.188 284.278 172.839C284.354 172.99 284.429 173.066 284.505 173.141L284.278 173.066C291.457 170.723 297.955 168.531 302.716 167.02C305.059 166.264 306.948 165.659 308.308 165.206C308.912 164.979 309.441 164.828 309.819 164.752C310.197 164.677 310.348 164.677 310.348 164.677Z" fill="#E0E0E0"/>
<path d="M259.719 175.937C259.643 175.862 264.102 173.292 269.694 170.345C275.285 167.322 279.819 164.979 279.819 165.055C279.895 165.13 275.437 167.7 269.845 170.647C264.328 173.67 259.795 176.013 259.719 175.937Z" fill="#E0E0E0"/>
<path d="M293.27 169.891C293.346 169.891 294.933 174.728 296.671 180.699C298.484 186.669 299.844 191.581 299.693 191.657C299.618 191.657 298.031 186.82 296.293 180.85C294.555 174.879 293.195 169.967 293.27 169.891Z" fill="#E0E0E0"/>
<path d="M137.983 262.101L99.5139 281.306L112.473 307.271L150.942 288.066L137.983 262.101Z" fill="#EBEBEB"/>
<path d="M138.285 262.395C138.285 262.395 138.209 262.546 138.134 262.924C137.983 263.302 137.756 263.755 137.529 264.435C137 265.72 136.169 267.609 135.262 269.801C133.298 274.411 130.577 280.684 127.555 287.561L127.479 287.712H127.328C127.177 287.712 127.101 287.637 126.95 287.637C119.469 286.05 112.668 284.538 107.756 283.48C105.338 282.951 103.374 282.498 101.938 282.195C101.258 282.044 100.729 281.893 100.351 281.817C99.9732 281.742 99.822 281.666 99.822 281.666C99.822 281.666 100.049 281.666 100.351 281.742C100.729 281.817 101.258 281.893 101.938 282.044C103.374 282.346 105.338 282.724 107.756 283.253C112.744 284.311 119.469 285.747 126.95 287.334C127.101 287.334 127.177 287.41 127.328 287.41L127.101 287.485C130.124 280.533 132.92 274.335 134.884 269.725C135.867 267.458 136.698 265.644 137.303 264.36C137.605 263.755 137.832 263.302 137.983 262.924C138.209 262.546 138.285 262.395 138.285 262.395Z" fill="#E0E0E0"/>
<path d="M112.744 307.513C112.668 307.513 113.726 302.449 115.237 296.328C116.749 290.206 118.033 285.218 118.109 285.218C118.185 285.218 117.127 290.282 115.615 296.403C114.18 302.6 112.819 307.588 112.744 307.513Z" fill="#E0E0E0"/>
<path d="M130.729 278.568C130.804 278.492 135.414 280.608 141.081 283.253C146.748 285.974 151.282 288.241 151.207 288.317C151.131 288.392 146.522 286.276 140.854 283.631C135.262 280.91 130.729 278.643 130.729 278.568Z" fill="#E0E0E0"/>
<path d="M74.8099 164.752C89.4697 155.003 93.0213 136.488 92.719 119.861C92.6434 117.065 93.0213 114.117 91.7366 111.699C90.452 109.205 87.3538 107.542 84.7846 108.676C82.6688 109.583 81.762 112.001 80.5529 113.966C78.966 116.611 76.6235 118.728 73.8276 120.088C72.014 120.995 69.8226 121.524 68.009 120.541C65.5909 119.181 65.3642 115.856 65.4398 113.135C65.5154 107.996 65.6665 102.857 65.7421 97.7178C65.8176 94.9216 65.8932 92.1253 65.062 89.4802C64.2308 86.8351 62.3416 84.3411 59.6968 83.5854C57.052 82.8296 53.7271 84.2655 53.1226 86.9862C52.8959 88.1198 53.1226 89.2535 52.9715 90.4627C52.8959 91.5963 52.2914 92.881 51.2335 93.1833C50.1 93.4856 48.9665 92.6543 48.2108 91.8986C45.3394 89.0267 43.4502 85.4747 41.7122 81.8472C39.8986 78.2196 38.2362 74.592 35.667 71.4935C33.0977 68.3949 29.4706 65.9765 25.4656 65.6742C21.4606 65.3719 17.1534 67.7903 16.0955 71.6446C15.0375 75.4989 17.2289 79.5044 19.7226 82.6785C23.3498 87.4397 27.7326 91.5963 32.5688 95.1483C33.4755 95.7529 34.3823 96.433 34.6846 97.4911C35.2891 99.3049 33.4755 101.119 31.5864 101.723C29.4706 102.403 27.2036 102.101 25.0122 102.328C22.8208 102.555 20.4783 103.461 19.5715 105.502C18.3624 108.298 20.705 111.321 23.0475 113.286C27.7326 117.216 33.0222 120.39 38.7651 122.582C40.8054 123.338 42.9968 124.018 44.5837 125.529C46.2461 126.965 47.1529 129.459 46.1706 131.424C45.1127 133.389 42.5434 133.918 40.4276 133.54C38.3117 133.087 36.347 131.953 34.3068 131.122C30.4529 129.61 25.5412 129.837 22.9719 133.087C21.3095 135.203 21.1584 138.226 21.914 140.795C22.6697 143.365 24.3321 145.632 26.0701 147.673C32.1154 154.928 39.8986 160.747 48.8154 163.997C57.581 166.868 65.8932 167.775 74.8099 164.752Z" fill="#EBEBEB"/>
<path d="M70.5782 154.248C68.2356 145.783 64.8352 136.79 61.0569 127.419C60.0746 125.076 59.1678 122.809 58.1854 120.541C57.2031 118.274 56.2963 116.007 55.2383 113.891C53.1225 109.583 50.78 105.653 48.4374 101.95C46.0949 98.2468 43.7524 94.846 41.4854 91.6718C39.2184 88.4977 37.1026 85.5503 35.0623 82.9808C30.9818 77.7661 27.1279 73.9874 24.4076 71.4934C23.0474 70.2087 21.9895 69.3018 21.2338 68.6972C20.856 68.3949 20.5537 68.1682 20.4026 68.017C20.1759 67.8659 20.1003 67.7903 20.1003 67.7903C20.1003 67.7903 20.1759 67.8659 20.4026 68.017C20.6293 68.1682 20.856 68.4705 21.2338 68.7728C21.9895 69.4529 23.0474 70.3598 24.332 71.6446C27.0524 74.2141 30.7551 77.9928 34.8356 83.2075C36.8759 85.777 38.9917 88.7244 41.2587 91.8986C43.4501 95.0727 45.7926 98.5491 48.1352 102.252C50.4777 105.955 52.8202 109.885 54.8605 114.193C55.9184 116.309 56.8252 118.576 57.8076 120.844C58.7144 123.111 59.6967 125.378 60.6791 127.721C64.5329 137.017 67.8578 146.085 70.2759 154.474" fill="#E0E0E0"/>
<path d="M55.0874 113.815C55.0874 113.815 55.2385 113.437 55.3897 112.606C55.5408 111.85 55.7675 110.717 55.9186 109.356C56.372 106.636 56.8254 102.781 57.3544 98.6247C57.8833 94.3925 58.4123 90.6138 58.8657 87.8931C59.0924 86.5328 59.3191 85.3991 59.4702 84.6434C59.6213 83.8876 59.6969 83.4342 59.6969 83.4342C59.6969 83.4342 59.5458 83.8121 59.3191 84.5678C59.0924 85.3236 58.8657 86.3816 58.5634 87.8175C58.0345 90.5382 57.4299 94.3169 56.901 98.5491C56.372 102.706 55.9186 106.484 55.6164 109.356C55.4652 110.641 55.3141 111.775 55.163 112.606C55.0874 113.437 55.0874 113.815 55.0874 113.815Z" fill="#E0E0E0"/>
<path d="M19.1936 106.636C19.1936 106.636 19.3447 106.636 19.5714 106.711C19.8737 106.711 20.2515 106.787 20.6293 106.787C21.5361 106.862 22.8963 107.013 24.5588 107.24C27.8836 107.618 32.4176 108.374 37.3294 109.356C42.3167 110.339 46.7751 111.472 49.9488 112.379C51.5357 112.833 52.8203 113.211 53.7271 113.437C54.1049 113.588 54.4827 113.664 54.785 113.74C55.0117 113.815 55.1628 113.815 55.1628 113.815C55.1628 113.815 55.0873 113.74 54.785 113.664C54.4827 113.588 54.1805 113.437 53.8027 113.286C52.8959 112.984 51.6868 112.53 50.0244 112.077C46.8506 111.095 42.3922 109.961 37.4049 108.903C32.4176 107.92 27.8836 107.24 24.5588 106.938C22.8963 106.787 21.5361 106.711 20.6293 106.636C20.176 106.636 19.8737 106.636 19.5714 106.636C19.3447 106.636 19.1936 106.636 19.1936 106.636Z" fill="#E0E0E0"/>
<path d="M70.2003 153.567C70.2003 153.567 70.2759 153.416 70.427 153.114C70.5781 152.812 70.8048 152.358 71.0315 151.829C71.5605 150.696 72.3161 149.108 73.2229 147.068C75.0365 142.987 77.3035 137.319 79.7971 131.046C82.2908 124.773 84.4822 119.105 86.2202 115.024C87.0514 113.059 87.8071 111.397 88.2605 110.188C88.4872 109.659 88.6383 109.205 88.7894 108.903C88.9406 108.601 88.9406 108.449 88.9406 108.449C88.9406 108.449 88.865 108.601 88.7139 108.903C88.5627 109.205 88.336 109.659 88.1093 110.188C87.5804 111.321 86.8247 112.908 85.9179 114.949C84.1044 119.03 81.8374 124.698 79.3437 130.971C76.8501 137.243 74.6587 142.911 72.9207 146.992C72.0894 148.957 71.3338 150.62 70.8804 151.829C70.6537 152.358 70.5026 152.812 70.3514 153.114C70.2003 153.416 70.1247 153.567 70.2003 153.567Z" fill="#E0E0E0"/>
<path d="M22.594 137.621C22.594 137.621 22.7451 137.697 23.0474 137.848C23.4252 137.999 23.8786 138.15 24.4076 138.301C25.6922 138.755 27.4302 139.284 29.546 140.04C33.8533 141.475 39.7474 143.516 46.3216 145.859C52.8958 148.126 58.7899 150.167 63.1727 151.527C65.3641 152.207 67.1021 152.736 68.3112 153.114C68.9157 153.265 69.3691 153.416 69.7469 153.492C70.0492 153.567 70.2759 153.643 70.2759 153.567C70.2759 153.567 70.1248 153.492 69.8225 153.341C69.4447 153.189 68.9913 153.038 68.4623 152.887C67.1777 152.434 65.4397 151.905 63.3239 151.225C59.0166 149.789 53.1225 147.748 46.5483 145.405C39.9741 143.138 34.08 141.098 29.6972 139.737C27.5058 139.057 25.7678 138.528 24.5587 138.15C23.9542 137.999 23.5008 137.848 23.123 137.772C22.7451 137.697 22.594 137.621 22.594 137.621Z" fill="#E0E0E0"/>
<path d="M75.4901 31.7413H32.8711C29.9241 31.7413 27.5815 29.3229 27.5815 26.4511V5.29022C27.5815 2.34281 29.9996 0 32.8711 0H75.4901C78.4372 0 80.7797 2.41838 80.7797 5.29022V26.3755C80.8553 29.3229 78.4372 31.7413 75.4901 31.7413Z" fill="#E0E0E0"/>
<path d="M59.9236 30.6832L72.543 41.8683L73.601 30.91" fill="#E0E0E0"/>
<path d="M47.2286 16.3241C47.2286 18.0623 45.8684 19.4226 44.1304 19.4226C42.3924 19.4226 41.0322 18.0623 41.0322 16.3241C41.0322 14.5859 42.3924 13.2255 44.1304 13.2255C45.8684 13.2255 47.2286 14.5859 47.2286 16.3241Z" fill="white"/>
<path d="M57.9588 16.3241C57.9588 18.0623 56.5986 19.4226 54.8606 19.4226C53.1226 19.4226 51.7625 18.0623 51.7625 16.3241C51.7625 14.5859 53.1226 13.2255 54.8606 13.2255C56.5986 13.2255 57.9588 14.5859 57.9588 16.3241Z" fill="white"/>
<path d="M68.6139 16.3241C68.6139 18.0623 67.2537 19.4226 65.5157 19.4226C63.7777 19.4226 62.4175 18.0623 62.4175 16.3241C62.4175 14.5859 63.7777 13.2255 65.5157 13.2255C67.2537 13.2255 68.6139 14.5859 68.6139 16.3241Z" fill="white"/>
<path d="M229.812 33.9724L219.195 60.9789L259.208 76.7133L269.825 49.7068L229.812 33.9724Z" fill="#EBEBEB"/>
<path d="M269.845 50.1059C269.845 50.1059 269.694 50.1814 269.316 50.3326C268.938 50.4837 268.409 50.6349 267.804 50.8616C266.444 51.3151 264.555 51.9952 262.288 52.751C257.527 54.338 251.104 56.5297 243.926 58.9481L243.775 59.0237L243.699 58.8725C243.623 58.7969 243.548 58.6458 243.472 58.5702C239.694 51.9196 236.218 45.9493 233.724 41.4904C232.515 39.2987 231.533 37.5605 230.777 36.2757C230.475 35.6711 230.173 35.2177 230.022 34.8398C229.87 34.5375 229.795 34.3108 229.795 34.3108C229.795 34.3108 229.946 34.4619 230.097 34.7642C230.324 35.1421 230.551 35.5956 230.928 36.1246C231.684 37.4093 232.666 39.1476 233.951 41.2636C236.52 45.647 239.996 51.6173 243.775 58.2679C243.85 58.4191 243.926 58.4946 244.001 58.5702L243.775 58.4946C250.953 56.1518 257.452 53.9602 262.213 52.4487C264.555 51.6929 266.444 51.0883 267.804 50.6349C268.409 50.4082 268.938 50.257 269.316 50.1814C269.618 50.1059 269.845 50.1059 269.845 50.1059Z" fill="#E0E0E0"/>
<path d="M219.216 61.3665C219.14 61.2909 223.599 58.7214 229.19 55.774C234.782 52.751 239.316 50.4082 239.316 50.4838C239.392 50.5593 234.933 53.1289 229.342 56.0763C223.75 59.0993 219.216 61.4421 219.216 61.3665Z" fill="#E0E0E0"/>
<path d="M252.767 55.3205C252.842 55.3205 254.429 60.1573 256.167 66.1277C257.981 72.098 259.341 77.0104 259.19 77.086C259.114 77.086 257.528 72.2492 255.79 66.2788C254.052 60.3084 252.691 55.3961 252.767 55.3205Z" fill="#E0E0E0"/>
<path d="M170.778 161.956C176.162 161.956 180.526 157.591 180.526 152.207C180.526 146.823 176.162 142.458 170.778 142.458C165.395 142.458 161.03 146.823 161.03 152.207C161.03 157.591 165.395 161.956 170.778 161.956Z" fill="#FF647C"/>
<path d="M204.329 161.956C209.713 161.956 214.077 157.591 214.077 152.207C214.077 146.823 209.713 142.458 204.329 142.458C198.946 142.458 194.582 146.823 194.582 152.207C194.582 157.591 198.946 161.956 204.329 161.956Z" fill="#FFCC00"/>
<path d="M269.24 101.799C269.24 101.799 269.467 101.799 269.845 101.799C270.223 101.799 270.827 101.799 271.507 101.95C272.263 102.101 273.17 102.403 274.152 102.932C275.134 103.461 276.192 104.293 277.099 105.426C278.006 106.56 278.762 108.147 279.064 109.961C279.139 110.414 279.139 110.868 279.215 111.321C279.215 111.775 279.215 112.228 279.215 112.757C279.215 113.74 279.215 114.722 279.215 115.78C279.215 119.937 279.291 124.773 279.291 130.215C279.366 141.022 279.442 154.172 279.517 169.287C279.517 173.066 279.517 176.995 279.593 181.001C279.593 183.041 279.593 185.082 279.593 187.122C279.593 188.181 279.593 189.239 279.593 190.221C279.593 190.75 279.593 191.279 279.593 191.808C279.593 192.413 279.517 192.942 279.442 193.546C279.064 195.814 277.93 198.005 276.117 199.517C274.379 201.104 272.036 202.086 269.618 202.162C265.16 202.162 260.55 202.162 255.865 202.237L256.696 201.482C255.79 211.155 254.883 221.358 253.9 232.014L253.749 233.676L252.465 232.618C240.828 223.02 228.435 212.818 215.513 202.162L216.118 202.389C192.39 202.389 166.849 202.389 140.401 202.389C135.565 202.389 130.804 202.389 126.043 202.389C124.834 202.389 123.701 202.389 122.492 202.389C121.887 202.389 121.358 202.389 120.678 202.389C119.998 202.389 119.394 202.313 118.714 202.162C116.144 201.633 113.877 200.121 112.366 198.005C111.61 196.947 111.081 195.738 110.779 194.529C110.477 193.32 110.401 191.959 110.401 190.826C110.401 188.483 110.401 186.216 110.401 183.873C110.401 179.263 110.401 174.728 110.401 170.194C110.401 152.056 110.477 134.598 110.477 117.972C110.477 115.856 110.477 113.815 110.477 111.775C110.477 110.717 110.552 109.583 110.93 108.525C111.233 107.467 111.762 106.409 112.366 105.502C113.651 103.688 115.464 102.252 117.505 101.572C118.562 101.194 119.62 100.968 120.678 100.968C121.736 100.968 122.643 100.968 123.701 100.968C131.56 100.968 139.267 100.968 146.673 101.043C161.484 101.119 175.237 101.119 187.856 101.194C213.019 101.345 233.422 101.421 247.477 101.497C254.505 101.572 259.946 101.648 263.724 101.648C265.538 101.723 266.973 101.723 267.956 101.723C268.711 101.723 269.24 101.723 269.24 101.799C269.24 101.799 268.787 101.874 267.805 101.874C266.822 101.874 265.462 101.95 263.573 101.95C259.87 102.026 254.429 102.026 247.326 102.101C233.271 102.177 212.868 102.252 187.705 102.403C175.086 102.403 161.333 102.479 146.522 102.555C139.116 102.555 131.484 102.555 123.55 102.63C122.567 102.63 121.585 102.63 120.603 102.63C119.696 102.63 118.789 102.857 117.958 103.084C116.22 103.688 114.709 104.897 113.651 106.333C112.593 107.845 112.064 109.659 112.139 111.624C112.139 113.664 112.139 115.78 112.139 117.821C112.139 134.447 112.139 151.98 112.215 170.043C112.215 174.577 112.215 179.112 112.215 183.722C112.215 185.989 112.215 188.332 112.215 190.674C112.215 191.884 112.215 192.866 112.517 193.924C112.744 194.907 113.197 195.889 113.802 196.72C115.011 198.459 116.9 199.668 118.94 200.121C119.469 200.197 119.998 200.272 120.527 200.272C121.056 200.272 121.661 200.272 122.265 200.272C123.474 200.272 124.608 200.272 125.817 200.272C130.577 200.272 135.338 200.272 140.174 200.272C166.622 200.272 192.163 200.272 215.891 200.272H216.269L216.495 200.499C229.417 211.155 241.81 221.433 253.371 231.031L251.936 231.636C252.918 221.055 253.9 210.777 254.883 201.104L254.958 200.348H255.714C260.399 200.348 264.933 200.348 269.467 200.348C271.507 200.348 273.548 199.517 274.983 198.156C276.495 196.872 277.477 194.982 277.855 193.093C277.93 192.639 277.93 192.11 278.006 191.657C278.006 191.128 278.006 190.599 278.006 190.07C278.006 189.012 278.006 187.954 278.006 186.971C278.006 184.931 278.006 182.89 278.006 180.85C278.006 176.844 278.006 172.914 278.081 169.136C278.157 154.021 278.233 140.871 278.308 130.064C278.384 124.622 278.384 119.861 278.384 115.629C278.384 114.571 278.384 113.588 278.384 112.606C278.384 112.153 278.384 111.624 278.384 111.17C278.384 110.717 278.384 110.263 278.308 109.885C278.081 108.147 277.401 106.711 276.57 105.578C275.739 104.444 274.757 103.613 273.85 103.084C272.943 102.555 272.036 102.177 271.356 102.026C269.996 101.799 269.24 101.874 269.24 101.799Z" fill="#FFCC00"/>
<path d="M206.672 249.925H59.5457C53.9539 249.925 49.4199 245.39 49.4199 239.798V160.445C49.4199 154.852 53.9539 150.318 59.5457 150.318H206.748C212.339 150.318 216.873 154.852 216.873 160.445V239.873C216.798 245.39 212.264 249.925 206.672 249.925Z" fill="#FFCC00"/>
<path d="M151.207 246.751L190.803 281.893L194.052 247.355" fill="#FFCC00"/>
<path d="M101.56 211.306C106.944 211.306 111.308 206.941 111.308 201.557C111.308 196.173 106.944 191.808 101.56 191.808C96.1766 191.808 91.8123 196.173 91.8123 201.557C91.8123 206.941 96.1766 211.306 101.56 211.306Z" fill="white"/>
<path d="M135.111 211.306C140.495 211.306 144.859 206.941 144.859 201.557C144.859 196.173 140.495 191.808 135.111 191.808C129.728 191.808 125.363 196.173 125.363 201.557C125.363 206.941 129.728 211.306 135.111 211.306Z" fill="white"/>
<path d="M168.662 211.306C174.046 211.306 178.41 206.941 178.41 201.557C178.41 196.173 174.046 191.808 168.662 191.808C163.279 191.808 158.914 196.173 158.914 201.557C158.914 206.941 163.279 211.306 168.662 211.306Z" fill="white"/>
<g opacity="0.3">
<path opacity="0.3" d="M210.601 150.696L194.884 150.242H73.2231C83.3489 160.294 97.782 165.659 111.988 166.944C126.195 168.153 140.477 166.037 154.532 163.619C168.587 161.2 182.718 158.48 196.924 158.555C199.947 158.555 203.045 158.706 205.841 157.573C208.561 156.515 210.979 153.719 210.601 150.696Z" fill="black"/>
</g>
<path d="M237.881 161.956C243.264 161.956 247.629 157.591 247.629 152.207C247.629 146.823 243.264 142.458 237.881 142.458C232.497 142.458 228.133 146.823 228.133 152.207C228.133 157.591 232.497 161.956 237.881 161.956Z" fill="#FFCC00"/>
<path d="M153.852 8.84218C145.993 8.7666 138.512 14.4347 136.32 21.9166C135.187 25.7709 135.414 29.9275 134.733 33.8573C134.053 37.8628 132.013 42.0194 128.235 43.4553C125.741 44.3622 122.945 43.9843 120.527 44.9668C118.26 45.8737 116.522 47.9898 116.069 50.4082C115.615 52.8265 116.447 55.3961 118.185 57.1343C115.237 59.7038 114.406 64.3894 116.371 67.7903C118.26 71.1911 122.718 72.9294 126.421 71.7202C124.985 73.9118 125.514 77.0104 127.101 79.0509C128.764 81.0914 131.333 82.225 133.978 82.5273C136.623 82.8296 139.192 82.3762 141.761 81.8472C147.504 80.5624 153.247 78.5219 157.554 74.592C162.315 70.2087 164.809 64.0116 166.698 57.8145C170.325 46.0248 172.214 33.4039 169.267 21.4631" fill="#263238"/>
<path d="M127.555 74.3653L121.207 88.271L107.228 57.5122C106.548 55.0182 105.868 52.222 105.716 51.693C105.49 50.8616 105.414 49.9547 105.49 49.0478C105.565 47.9898 105.716 46.5539 106.094 45.7981C106.472 44.8912 105.565 43.9088 104.81 44.3622C103.978 44.8157 102.769 47.3096 102.845 50.6349C102.845 53.8846 91.6612 46.176 89.8477 47.9898L91.2078 58.797C92.4169 59.9306 95.8929 63.0291 97.8576 64.7673L111.006 97.4911C112.215 100.816 115.011 103.461 118.411 104.444C123.399 105.88 128.764 103.688 131.258 99.1537L139.721 84.19L127.555 74.3653Z" fill="#FFBE9D"/>
<path d="M98.0088 38.0895C98.2355 38.014 98.4622 38.1651 98.5377 38.3918L105.792 59.855C105.943 60.2329 105.792 60.6863 105.414 60.913L96.8753 65.7498C96.4975 65.9765 96.1196 65.7498 95.9685 65.3719L87.8074 43.0775C87.6563 42.624 87.8074 42.1706 88.1853 42.0194L98.0088 38.0895Z" fill="#263238"/>
<path d="M98.2355 39.6766L104.885 58.7969L96.4219 63.3314L89.092 43.3042L98.2355 39.6766Z" fill="#F5F5F5"/>
<path d="M90.679 44.589C90.9057 45.2691 91.3591 46.3272 91.6614 46.9318C91.8125 47.2341 92.1904 47.3852 92.4926 47.3097L97.0266 45.4203L98.6134 45.647L98.16 44.8157L98.689 44.589C98.9913 44.4378 99.1424 44.0599 99.0668 43.7577L98.16 41.6416C98.0089 41.3393 97.6311 41.1881 97.3288 41.3393L91.1324 43.8332C90.7546 43.9088 90.6035 44.2867 90.679 44.589Z" fill="#E0E0E0"/>
<path d="M94.5328 55.9252C94.7595 56.6053 95.2129 57.6634 95.5152 58.268C95.6663 58.5703 96.0441 58.7214 96.3464 58.6458L100.88 56.7565L102.467 56.9832L102.014 56.1519L102.543 55.9252C102.845 55.774 102.996 55.3961 102.921 55.0938L102.014 52.9777C101.863 52.6754 101.485 52.5243 101.183 52.6754L94.9862 55.1694C94.6084 55.245 94.4572 55.6229 94.5328 55.9252Z" fill="#E0E0E0"/>
<path d="M99.8224 47.3096C100.125 47.9142 100.578 48.9722 100.88 49.6524C101.031 49.9547 100.88 50.3326 100.578 50.4837L96.0441 52.3731L95.1373 53.6579L94.835 52.751L94.3061 52.9777C94.0038 53.1288 93.626 52.9777 93.4749 52.6754L92.5681 50.4837C92.4169 50.1814 92.5681 49.8036 92.8703 49.6524L98.9912 47.0073C99.2934 46.8562 99.6712 46.9317 99.8224 47.3096Z" fill="#E0E0E0"/>
<path d="M89.6968 48.5188C91.1325 48.7455 92.9461 48.8967 94.3818 49.1234C94.7597 49.199 95.2131 49.2745 95.5909 49.5013C95.8932 49.728 96.1199 50.257 95.8932 50.6349C95.6665 51.0883 95.0619 51.0883 94.6085 51.0883C93.5506 51.0883 92.3416 51.3151 91.2837 51.2395C92.6438 51.3906 93.9285 51.4662 95.4398 51.6929C96.0443 51.7685 96.7244 52.2975 96.7244 52.9777C96.7244 53.5067 96.1954 53.9602 95.6665 54.0357C95.1375 54.1113 94.004 54.0357 94.004 54.0357C94.004 54.0357 91.8126 54.0357 91.6615 54.338C93.0217 54.338 94.8352 54.6403 96.271 54.7159C96.6488 54.7159 96.7999 55.2449 96.8755 55.6228C96.9511 56.0007 96.7999 56.4541 96.4977 56.6053C96.3466 56.6808 96.1199 56.6808 95.9687 56.6808C94.1552 56.6053 93.2484 56.7564 91.4348 56.6808" fill="#FFBE9D"/>
<path d="M122.87 98.2469C122.719 98.2469 123.248 95.9041 122.719 93.0322C122.19 90.236 120.83 88.1954 120.981 88.1199C120.981 88.1199 121.434 88.5733 121.888 89.4046C122.341 90.236 122.87 91.5207 123.172 92.9566C123.475 94.3926 123.399 95.7529 123.323 96.7354C123.097 97.6423 122.946 98.2469 122.87 98.2469Z" fill="#EB996E"/>
<path d="M96.6486 54.9427C96.6486 55.0182 95.2129 54.9427 93.5505 54.7915C92.7192 54.7159 91.888 54.5648 91.3591 54.5648C90.8301 54.5648 90.6034 54.8671 90.5278 54.7915C90.5278 54.7915 90.5278 54.7159 90.679 54.5648C90.8301 54.4136 91.0568 54.3381 91.3591 54.2625C91.9636 54.1869 92.7192 54.3381 93.626 54.4136C95.2885 54.6404 96.6486 54.8671 96.6486 54.9427Z" fill="#EB996E"/>
<path d="M96.1198 51.8441C96.1198 51.9197 94.7596 51.8441 93.0216 51.693C92.1904 51.6174 91.4348 51.4663 90.9058 51.4663C90.3768 51.4663 90.1501 51.7686 90.0746 51.693C89.999 51.693 90.2257 51.2395 90.8302 51.164C91.1325 51.0884 91.5103 51.164 91.8126 51.164C92.1904 51.2395 92.5682 51.2395 93.0216 51.3151C94.8352 51.4663 96.1954 51.693 96.1198 51.8441Z" fill="#EB996E"/>
<path d="M139.267 116.611C139.267 116.611 93.2479 113.135 79.9484 123.564C66.6488 133.994 72.9963 150.771 72.9963 150.771H148.184L151.056 116.082L139.267 116.611Z" fill="#263238"/>
<path d="M147.957 140.493C147.957 140.493 147.731 140.493 147.277 140.417C146.824 140.342 146.219 140.266 145.388 140.191C143.726 139.964 141.307 139.662 138.36 139.133C132.466 138.15 124.305 136.412 115.54 133.842C111.157 132.558 107.001 131.197 103.147 130.29C99.293 129.384 95.817 128.779 92.7943 128.628C89.8473 128.477 87.4292 128.703 85.7667 129.006C84.9355 129.081 84.331 129.308 83.8776 129.384C83.4242 129.459 83.1975 129.535 83.1975 129.535C83.1975 129.535 83.4242 129.459 83.802 129.308C84.2554 129.232 84.86 129.006 85.6912 128.855C87.3536 128.477 89.7717 128.25 92.7943 128.326C95.817 128.401 99.3686 129.006 103.222 129.913C107.076 130.819 111.232 132.18 115.615 133.465C124.381 136.034 132.466 137.772 138.36 138.83C141.307 139.359 143.726 139.737 145.312 140.04C146.144 140.191 146.748 140.266 147.202 140.342C147.731 140.417 147.957 140.493 147.957 140.493Z" fill="#455A64"/>
<path d="M104.507 130.139C104.432 130.215 102.845 128.552 100.351 127.267C97.8575 125.983 95.5906 125.605 95.5906 125.529C95.5906 125.454 96.1951 125.529 97.1019 125.68C98.0087 125.832 99.2177 126.285 100.502 126.89C101.787 127.57 102.769 128.326 103.449 129.006C104.205 129.61 104.583 130.064 104.507 130.139Z" fill="#455A64"/>
<path d="M172.592 112.228C172.592 112.228 130.502 113.362 117.202 123.791C103.903 134.22 110.25 150.998 110.25 150.998L189.141 152.207V142.005L178.939 140.871L178.864 140.417C182.869 136.034 179.846 120.919 173.196 112.908L172.592 112.228Z" fill="#263238"/>
<path d="M184.38 141.551C184.38 141.551 184.153 141.551 183.7 141.475C183.247 141.4 182.642 141.324 181.811 141.249C180.148 141.022 177.73 140.72 174.783 140.191C168.889 139.208 160.728 137.47 151.962 134.901C147.58 133.616 143.424 132.255 139.57 131.349C135.716 130.442 132.24 129.837 129.217 129.686C126.27 129.535 123.852 129.761 122.19 130.064C121.358 130.139 120.754 130.366 120.3 130.442C119.847 130.517 119.62 130.593 119.62 130.593C119.62 130.593 119.847 130.517 120.225 130.366C120.678 130.29 121.283 130.064 122.114 129.913C123.776 129.535 126.195 129.308 129.217 129.384C132.24 129.459 135.791 130.064 139.645 130.971C143.499 131.878 147.655 133.238 152.038 134.523C160.804 137.092 168.889 138.83 174.783 139.888C177.73 140.417 180.148 140.795 181.735 141.098C182.567 141.249 183.171 141.324 183.624 141.4C184.153 141.551 184.38 141.551 184.38 141.551Z" fill="#455A64"/>
<path d="M141.006 131.197C140.93 131.273 139.343 129.61 136.849 128.326C134.356 127.041 132.089 126.663 132.089 126.587C132.089 126.512 132.693 126.587 133.6 126.738C134.507 126.89 135.716 127.343 137.001 127.948C138.285 128.628 139.268 129.384 139.948 130.064C140.628 130.744 141.006 131.197 141.006 131.197Z" fill="#455A64"/>
<path d="M150.829 113.966C150.829 113.966 150.602 114.042 150.149 114.042C149.696 114.118 149.091 114.193 148.26 114.269C146.673 114.495 144.33 114.873 141.459 115.478C138.587 116.082 135.187 116.763 131.409 117.67C127.63 118.576 123.625 120.012 119.772 122.28C117.882 123.413 116.144 124.774 114.709 126.285C113.273 127.797 112.139 129.459 111.233 131.197C109.419 134.598 108.815 138.15 108.739 141.022C108.739 143.969 109.268 146.312 109.721 147.824C109.948 148.58 110.175 149.184 110.326 149.638C110.477 150.015 110.553 150.242 110.553 150.242C110.553 150.242 110.401 150.015 110.25 149.638C110.099 149.26 109.797 148.655 109.57 147.899C109.041 146.312 108.437 143.969 108.437 141.022C108.437 138.075 109.041 134.523 110.855 131.046C111.762 129.308 112.895 127.57 114.406 126.058C115.842 124.471 117.656 123.111 119.545 121.977C123.399 119.634 127.479 118.199 131.258 117.292C135.036 116.385 138.436 115.705 141.383 115.176C144.255 114.647 146.597 114.269 148.26 114.118C149.091 114.042 149.696 113.966 150.149 113.891C150.602 113.966 150.829 113.966 150.829 113.966Z" fill="#455A64"/>
<path d="M189.141 142.534L196.32 142.08L201.08 144.876L210.224 145.859C214.606 146.086 215.287 150.771 212.642 150.771C210.526 150.771 197.68 151.602 197.68 151.602L189.141 151.829V142.534Z" fill="#E0E0E0"/>
<path d="M200.854 144.876C200.854 144.952 200.476 145.179 199.72 145.405C198.964 145.632 197.906 145.632 196.773 145.254C195.64 144.801 194.884 144.045 194.506 143.44C194.053 142.836 193.977 142.307 194.053 142.307C194.128 142.307 194.279 142.685 194.733 143.289C195.186 143.818 195.942 144.574 196.924 144.952C197.906 145.33 198.964 145.33 199.644 145.254C200.4 145.028 200.778 144.801 200.854 144.876Z" fill="#455A64"/>
<path d="M212.264 150.696C212.264 150.771 211.886 150.847 211.357 150.544C210.828 150.318 210.375 149.562 210.148 148.806C209.921 147.975 209.997 147.144 210.299 146.69C210.601 146.161 210.904 146.086 210.979 146.086C211.055 146.161 210.752 146.312 210.601 146.841C210.375 147.295 210.375 147.975 210.526 148.731C210.677 149.486 211.055 150.091 211.508 150.318C211.886 150.62 212.264 150.62 212.264 150.696Z" fill="#455A64"/>
<path d="M141.383 55.0183C141.383 55.0183 132.391 74.7432 132.92 78.0685C133.449 81.3938 136.018 94.7704 136.018 94.7704L137.907 116.536C137.907 116.536 171.761 112.455 172.516 112.455C173.196 112.455 171.458 94.4681 171.458 94.4681L176.597 59.9306C176.597 59.9306 174.254 55.245 163.6 53.5823C157.252 52.5243 141.383 55.0183 141.383 55.0183Z" fill="#FF647C"/>
<path d="M166.169 81.5449C166.547 84.4923 167.378 87.8932 169.342 91.5963C170.023 92.8055 170.627 94.3926 171.685 95.2239C173.347 96.5087 175.766 95.2995 177.277 93.8636C178.788 92.4276 180.299 90.6139 182.415 90.5383C183.775 90.4627 184.985 91.2185 186.269 91.4452C187.554 91.7475 189.292 91.294 189.594 90.0093C189.745 89.2535 189.443 88.4978 189.065 87.8176C185.816 81.2426 183.473 74.9699 181.735 67.7904C181.357 66.3544 179.846 63.407 179.09 62.1223C178.335 60.8375 176.37 59.0237 174.481 57.4366" fill="#FF647C"/>
<path d="M147.806 53.6579C138.512 53.9602 131.484 60.1573 129.519 64.6162C127.177 69.8308 125.363 76.1035 122.643 81.167C122.114 82.1495 121.434 83.132 121.207 84.19C120.98 85.3236 121.283 86.6084 122.265 87.1374C123.701 87.9687 125.741 86.9107 127.026 87.8932C127.706 88.4222 127.933 89.4046 128.537 90.0848C129.293 90.9161 130.502 91.0673 131.56 91.1429C133.676 91.3696 135.791 91.5963 137.832 91.823" fill="#FF647C"/>
<path d="M164.053 72.9294C164.053 72.9294 163.902 72.7027 163.675 72.1736C163.448 71.6446 163.222 70.9644 163.146 69.982C162.844 68.0926 163.071 65.2964 164.582 62.7268C166.093 60.1573 168.511 58.6458 170.325 58.0412C171.232 57.7389 171.987 57.5878 172.516 57.5122C173.045 57.4366 173.347 57.4366 173.347 57.5122C173.347 57.5878 172.138 57.6633 170.4 58.3435C168.662 59.0237 166.395 60.5352 164.96 63.0291C163.524 65.5231 163.222 68.2438 163.448 70.0576C163.599 71.7958 164.128 72.9294 164.053 72.9294Z" fill="#263238"/>
<path d="M138.436 65.2208C138.436 65.2208 138.285 65.5987 137.983 66.2033C137.831 66.5056 137.605 66.8835 137.378 67.3369C137.151 67.7904 136.925 68.3194 136.698 68.8484C136.169 69.982 135.716 71.4179 135.187 73.005C134.733 74.5921 134.355 76.4058 134.129 78.2952C133.902 80.1846 133.902 81.9984 133.978 83.661C134.053 85.3236 134.28 86.8351 134.507 88.0443C134.582 88.6489 134.733 89.1779 134.884 89.707C134.96 90.1604 135.111 90.6139 135.187 90.9162C135.338 91.5963 135.489 91.9742 135.413 91.9742C135.413 91.9742 135.262 91.5963 135.036 90.9162C134.884 90.6139 134.809 90.1604 134.658 89.707C134.507 89.2535 134.355 88.6489 134.28 88.0443C133.978 86.8351 133.826 85.3236 133.675 83.661C133.6 81.9984 133.6 80.109 133.826 78.2196C134.053 76.3303 134.431 74.5165 134.884 72.8538C135.338 71.2668 135.942 69.8309 136.471 68.6973C136.698 68.0927 137 67.6392 137.227 67.1858C137.454 66.7323 137.68 66.3544 137.907 66.0521C138.209 65.5231 138.436 65.2208 138.436 65.2208Z" fill="#263238"/>
<path d="M189.065 87.2885C189.065 87.2885 189.065 87.3641 188.99 87.5153C188.914 87.6664 188.763 87.8176 188.536 88.0443C188.083 88.4222 187.176 88.7245 186.194 88.5733C185.136 88.4222 184.078 87.8176 182.793 87.5908C181.509 87.2886 180.073 87.8931 178.939 88.8756C177.73 89.8581 176.824 90.9917 175.615 91.7474C175.086 92.1253 174.481 92.4276 173.877 92.5788C173.272 92.7299 172.667 92.7299 172.214 92.6543C171.156 92.5788 170.4 92.2765 169.872 91.9742C169.645 91.823 169.494 91.6719 169.418 91.5207C169.343 91.3696 169.267 91.294 169.343 91.294C169.343 91.294 169.569 91.5207 170.023 91.823C170.476 92.1253 171.307 92.352 172.29 92.352C172.819 92.352 173.348 92.352 173.877 92.2009C174.405 92.0497 175.01 91.7474 175.539 91.3696C176.597 90.6138 177.579 89.4802 178.788 88.4977C179.393 88.0443 180.073 87.5908 180.829 87.3641C181.509 87.1374 182.34 87.0618 183.02 87.213C184.38 87.5153 185.438 88.1199 186.42 88.271C187.403 88.4222 188.234 88.1954 188.687 87.8931C188.914 87.5908 189.065 87.2885 189.065 87.2885Z" fill="#FAFAFA"/>
<path d="M186.874 82.9052C186.874 82.9052 186.874 82.9808 186.798 83.132C186.723 83.2831 186.647 83.4343 186.42 83.661C186.042 84.0389 185.211 84.3412 184.229 84.1144C183.247 83.9633 182.264 83.2831 181.055 83.2831C179.846 83.2075 178.561 83.7366 177.352 84.4923C176.143 85.2481 175.161 86.2305 174.103 86.9107C173.045 87.6664 171.987 88.1199 171.005 88.1955C170.023 88.3466 169.267 88.1199 168.738 87.8932C168.285 87.6664 168.058 87.4397 168.058 87.4397C168.058 87.4397 168.285 87.5909 168.814 87.742C169.267 87.8932 170.023 88.0443 170.929 87.8932C171.836 87.742 172.894 87.2886 173.876 86.6084C174.859 85.9282 175.917 84.9458 177.126 84.1144C178.335 83.2831 179.695 82.7541 181.055 82.8297C181.735 82.8297 182.264 83.0564 182.793 83.2831C183.322 83.5098 183.776 83.661 184.229 83.8121C185.136 84.0389 185.891 83.8121 186.269 83.5098C186.798 83.2075 186.874 82.9052 186.874 82.9052Z" fill="#FAFAFA"/>
<path d="M133.978 88.6489C133.978 88.6489 133.827 88.8756 133.449 88.9512C133.071 89.0268 132.391 88.9512 131.862 88.4978C131.257 88.0443 130.88 87.2886 130.426 86.4573C130.048 85.7015 129.444 84.7946 128.537 84.5679C127.555 84.3412 126.572 84.5679 125.666 84.7191C124.759 84.8702 123.852 84.9458 123.172 84.6435C122.492 84.3412 122.114 83.8877 121.963 83.5099C121.812 83.132 121.887 82.9053 121.887 82.9053C121.963 82.9053 121.887 83.132 122.114 83.4343C122.265 83.7366 122.643 84.19 123.247 84.4168C123.852 84.6435 124.683 84.5679 125.59 84.4168C126.497 84.2656 127.479 83.9633 128.613 84.2656C129.142 84.4168 129.671 84.7191 129.973 85.1725C130.275 85.5504 130.577 86.0038 130.728 86.4573C131.106 87.2886 131.484 88.0443 132.013 88.4222C132.542 88.8756 133.071 88.9512 133.449 88.9512C133.751 88.7245 133.978 88.5734 133.978 88.6489Z" fill="#FAFAFA"/>
<path d="M132.844 84.19C132.844 84.19 132.693 84.2656 132.391 84.19C132.089 84.1145 131.711 83.8122 131.484 83.3587C131.182 82.9053 130.955 82.3762 130.502 82.0739C129.973 81.7716 129.293 81.8472 128.537 81.9228C127.781 82.0739 127.026 82.0739 126.346 81.9228C125.666 81.7717 125.137 81.4694 124.683 81.1671C123.852 80.5625 123.55 79.9579 123.55 79.9579C123.625 79.8823 124.003 80.4113 124.834 80.9403C125.666 81.4694 127.026 81.8472 128.462 81.5449C129.217 81.4694 130.048 81.3182 130.653 81.7716C131.257 82.2251 131.484 82.8297 131.711 83.2831C131.938 83.7366 132.24 83.9633 132.467 84.1145C132.693 84.19 132.844 84.19 132.844 84.19Z" fill="#FAFAFA"/>
<path d="M168.36 88.1199C168.36 88.1199 167.907 88.0443 167 87.8176C166.169 87.5908 164.884 87.3641 163.373 87.0618C162.617 86.9107 161.786 86.7595 160.879 86.684C159.972 86.6084 158.99 86.4572 158.008 86.5328C157.025 86.6084 155.967 87.0618 154.985 87.5153C154.003 88.0443 153.02 88.6489 151.887 89.1779C150.829 89.7069 149.62 90.0848 148.486 90.1604C147.353 90.236 146.219 90.0092 145.237 89.7825C143.197 89.2535 141.459 88.6489 139.872 88.4977C138.361 88.271 137.076 88.4977 136.245 88.8756C135.413 89.1779 135.036 89.5558 135.036 89.4802C135.036 89.4802 135.111 89.4046 135.262 89.2535C135.413 89.1023 135.716 88.9512 136.169 88.7245C137 88.3466 138.285 88.1199 139.872 88.271C141.459 88.4222 143.272 89.0268 145.237 89.4802C146.219 89.7069 147.277 89.8581 148.411 89.7825C149.544 89.7069 150.602 89.3291 151.66 88.8C152.718 88.271 153.7 87.6664 154.758 87.1374C155.816 86.6084 156.799 86.2305 157.932 86.1549C158.99 86.0794 159.972 86.2305 160.879 86.3061C161.786 86.4572 162.617 86.6084 163.448 86.7595C164.96 87.0618 166.244 87.4397 167.075 87.6664C167.529 87.8176 167.831 87.8931 168.058 87.9687C168.209 88.0443 168.36 88.0443 168.36 88.1199Z" fill="#FAFAFA"/>
<path d="M169.116 91.8986C169.116 91.8986 168.662 91.7475 167.831 91.3696C167 91.0673 165.866 90.5383 164.355 90.0849C163.599 89.8581 162.768 89.6314 161.861 89.5558C160.955 89.4803 159.972 89.5558 159.065 89.9337C157.101 90.6139 155.287 91.9742 153.02 92.8811C151.887 93.3346 150.678 93.4857 149.544 93.4857C148.411 93.4857 147.277 93.3346 146.295 93.1078C144.255 92.73 142.441 92.3521 140.93 92.2765C139.418 92.2009 138.134 92.4277 137.303 92.73C136.471 93.0323 136.094 93.3346 136.094 93.259C136.094 93.259 136.169 93.1834 136.396 93.0323C136.622 92.8811 136.925 92.73 137.303 92.5788C138.134 92.2009 139.418 91.9742 141.005 91.9742C142.592 91.9742 144.406 92.3521 146.446 92.73C148.486 93.0323 150.753 93.3346 152.945 92.4277C155.136 91.5963 156.95 90.1604 158.99 89.4803C159.972 89.178 161.03 89.0268 161.937 89.1024C162.844 89.2535 163.675 89.4803 164.431 89.707C165.942 90.236 167.075 90.6895 167.907 91.0673C168.284 91.294 168.587 91.4452 168.813 91.5208C169.04 91.8231 169.116 91.8986 169.116 91.8986Z" fill="#FAFAFA"/>
<path d="M158.99 90.5383C158.99 90.5383 158.763 90.6139 158.461 90.6139C158.083 90.6894 157.554 90.6139 156.95 90.5383C156.345 90.4627 155.59 90.3116 154.758 90.0093C153.927 89.707 153.096 89.3291 152.34 88.7245C151.509 88.1199 150.829 87.5153 150.3 86.8351C149.771 86.155 149.318 85.5504 149.015 84.9458C148.713 84.3412 148.562 83.8877 148.487 83.5099C148.411 83.132 148.335 82.9808 148.411 82.9808C148.487 82.9808 148.713 83.7366 149.318 84.7946C149.62 85.3236 150.073 85.9282 150.602 86.5328C151.131 87.1374 151.811 87.742 152.567 88.271C153.323 88.8001 154.154 89.2535 154.91 89.5558C155.665 89.8581 156.421 90.0093 157.025 90.1604C158.234 90.5383 158.99 90.4627 158.99 90.5383Z" fill="#263238"/>
<g opacity="0.3">
<path opacity="0.3" d="M148.411 83.9633C148.94 86.7595 149.998 89.5558 152.038 91.5963C154.078 93.5612 157.252 94.6193 159.897 93.5612C160.426 93.3345 161.03 92.9566 161.181 92.352C161.332 91.6719 160.803 90.9917 160.123 90.765C159.519 90.4627 158.763 90.5382 158.083 90.4627C154.154 90.2359 150.375 87.8176 148.562 84.2656" fill="black"/>
</g>
<path d="M170.551 95.1483C170.551 95.1483 170.4 94.9216 170.249 94.3925C170.098 93.9391 169.796 93.2589 169.494 92.352C168.889 90.6138 168.133 88.1954 167.302 85.5503C166.546 82.9052 165.866 80.4112 165.489 78.673C165.262 77.7661 165.111 77.086 165.035 76.557C164.96 76.0279 164.884 75.8012 164.884 75.8012C164.884 75.8012 165.035 76.0279 165.111 76.557C165.262 77.1615 165.489 77.8417 165.715 78.673C166.169 80.4112 166.849 82.8296 167.68 85.5503C168.436 88.1954 169.191 90.6138 169.72 92.352C169.947 93.1833 170.174 93.8635 170.325 94.3925C170.476 94.846 170.551 95.1483 170.551 95.1483Z" fill="#263238"/>
<path d="M136.396 116.763C136.396 116.763 142.895 109.734 148.638 108.374C154.381 107.013 174.783 99.7583 174.783 99.7583L173.499 95.6773C174.783 95.6017 175.992 94.846 176.899 93.9391L178.259 92.6543C180.073 90.6894 182.189 89.6314 185.363 90.6894L187.327 91.294L189.368 97.34C191.408 103.31 187.478 109.734 181.206 110.565L136.396 116.763Z" fill="#FFBE9D"/>
<path d="M183.322 100.665C183.247 100.816 181.509 99.9095 179.166 99.6828C176.824 99.4561 174.934 99.9095 174.934 99.8339C174.859 99.7584 176.824 99.0782 179.242 99.3049C181.66 99.5316 183.398 100.59 183.322 100.665Z" fill="#EB996E"/>
<path d="M137.378 21.1608C136.774 11.6385 149.242 4.9879 157.63 7.33071C165.564 9.59794 168.965 13.5278 170.249 18.818C171.534 24.1082 171.458 29.8519 169.418 34.9154C168.36 37.4094 166.547 39.9033 163.902 40.2812" fill="#263238"/>
<path d="M162.693 15.266C164.053 15.4172 165.111 16.6264 165.111 17.9867L163.6 54.338C163.524 58.6458 157.252 61.0642 152.643 60.9886C148.033 60.913 147.806 58.6458 147.806 54.4892C147.731 47.6875 147.731 45.118 147.731 45.118C147.731 45.118 141.837 44.1355 140.628 36.5025C140.023 32.7237 140.25 26.4511 140.552 21.312C140.854 16.7019 143.877 11.1094 148.487 11.5629L162.693 15.266Z" fill="#FFBE9D"/>
<path d="M142.517 26.3755C142.517 26.9045 142.895 27.3579 143.499 27.3579C144.028 27.3579 144.482 26.9801 144.482 26.451C144.482 25.922 144.104 25.4686 143.499 25.4686C142.97 25.4686 142.517 25.8464 142.517 26.3755Z" fill="#263238"/>
<path d="M141.837 24.7128C141.988 24.864 142.668 24.2594 143.726 24.2594C144.784 24.2594 145.54 24.7884 145.691 24.6373C145.766 24.5617 145.615 24.335 145.313 24.1082C145.011 23.8815 144.406 23.6548 143.726 23.6548C143.046 23.6548 142.517 23.8815 142.215 24.1838C141.912 24.4105 141.761 24.6373 141.837 24.7128Z" fill="#263238"/>
<path d="M152.794 26.3755C152.794 26.9045 153.172 27.358 153.776 27.358C154.305 27.358 154.759 26.9801 154.759 26.4511C154.759 25.9221 154.381 25.4686 153.776 25.4686C153.323 25.4686 152.87 25.8465 152.794 26.3755Z" fill="#263238"/>
<path d="M152.265 24.864C152.416 25.0152 153.096 24.4106 154.154 24.4106C155.212 24.4106 155.968 24.9396 156.119 24.7884C156.194 24.7129 156.043 24.4861 155.741 24.2594C155.439 24.0327 154.834 23.806 154.154 23.806C153.474 23.806 152.945 24.0327 152.643 24.335C152.265 24.5617 152.189 24.7884 152.265 24.864Z" fill="#263238"/>
<path d="M148.411 32.7238C148.411 32.6482 147.731 32.5726 146.673 32.4215C146.371 32.4215 146.144 32.3459 146.068 32.1192C145.993 31.8924 146.144 31.6657 146.22 31.2878C146.446 30.6077 146.749 29.9275 147.051 29.2473C148.184 26.2999 148.94 23.8815 148.864 23.8815C148.713 23.806 147.731 26.1488 146.673 29.0962C146.371 29.8519 146.144 30.5321 145.917 31.1367C145.842 31.439 145.615 31.8169 145.766 32.1947C145.842 32.4215 146.068 32.5726 146.22 32.5726C146.371 32.6482 146.522 32.6482 146.673 32.6482C147.731 32.7993 148.411 32.7993 148.411 32.7238Z" fill="#263238"/>
<path d="M147.655 45.1935C147.655 45.1935 152.794 45.4958 157.932 42.4728C157.932 42.4728 155.439 47.7631 147.806 47.0073L147.655 45.1935Z" fill="#EB996E"/>
<path d="M148.864 35.2933C149.242 34.7643 149.922 34.5375 150.602 34.6131C151.056 34.6887 151.509 34.9154 151.811 35.2933C152.114 35.6712 152.114 36.2002 151.887 36.578C151.585 36.9559 150.98 37.1071 150.527 36.9559C149.998 36.8048 149.62 36.5025 149.167 36.1246C149.015 36.049 148.94 35.9735 148.864 35.8223C148.713 35.5956 148.713 35.3689 148.864 35.2933Z" fill="#EB996E"/>
<path d="M151.509 33.4795C151.358 33.4795 151.358 34.6131 150.376 35.4444C149.393 36.2758 148.184 36.1246 148.184 36.2758C148.184 36.3513 148.487 36.5025 148.94 36.5025C149.469 36.5025 150.149 36.3513 150.754 35.8223C151.358 35.2933 151.585 34.6887 151.66 34.1597C151.736 33.7062 151.585 33.4795 151.509 33.4795Z" fill="#263238"/>
<path d="M151.736 23.0502C151.811 23.3525 152.869 23.2013 154.154 23.3525C155.363 23.5036 156.421 23.8059 156.572 23.5792C156.648 23.4281 156.496 23.2013 156.043 22.899C155.665 22.5968 154.985 22.37 154.23 22.2945C153.474 22.2189 152.794 22.2945 152.34 22.5212C151.963 22.6723 151.736 22.8991 151.736 23.0502Z" fill="#263238"/>
<path d="M142.215 21.6143C142.366 21.841 143.121 21.6143 144.028 21.6143C144.935 21.5387 145.615 21.7654 145.842 21.5387C145.917 21.3875 145.766 21.1608 145.464 20.9341C145.162 20.7074 144.633 20.5562 144.028 20.5562C143.424 20.5562 142.895 20.7829 142.592 21.0097C142.29 21.2364 142.139 21.5387 142.215 21.6143Z" fill="#263238"/>
<path d="M152.265 9.14447C149.469 9.22004 147.353 10.0514 144.935 11.4117C142.517 12.772 140.401 14.9637 139.645 17.6844C139.494 18.289 139.418 18.8936 139.721 19.4226C140.099 20.1028 141.081 20.1783 141.837 19.876C142.517 19.5738 143.046 18.8936 143.575 18.289C143.952 19.7249 145.313 20.7829 146.748 20.7829C148.184 20.7829 149.544 19.6493 149.922 18.289C149.922 19.7249 151.433 21.0097 152.869 20.9341C154.305 20.8585 155.665 19.7249 156.118 18.3646C156.421 19.6493 156.647 21.0097 157.479 22.0677C158.234 23.1258 159.67 23.8815 160.955 23.5036C160.804 24.6372 160.577 25.8464 161.03 26.9045C161.408 27.9625 163.297 51.4662 164.431 51.0883C165.489 50.7104 165.262 26.9045 165.489 25.7709C165.942 23.6548 166.395 21.5387 166.32 19.347C166.244 17.1554 165.64 14.9637 164.355 13.3011C162.995 11.5629 160.879 10.4292 158.763 9.82464C156.572 9.22004 154.305 9.22004 152.114 9.22004" fill="#263238"/>
<path d="M125.59 39.4499C125.59 39.4499 125.515 39.2987 125.288 39.072C125.061 38.8453 124.683 38.6186 124.154 38.4674C123.625 38.3918 122.87 38.3918 122.19 38.9209C121.585 39.3743 121.207 40.3568 121.283 41.3392C121.358 41.8683 121.51 42.3217 121.887 42.7752C122.19 43.2286 122.643 43.6065 123.248 43.8332C124.305 44.3622 125.741 44.3622 126.95 43.8332C128.235 43.3042 129.293 42.3217 130.2 41.1881C131.106 39.9789 131.786 38.6186 132.315 37.1071C133.298 34.0841 133.6 30.9855 133.978 28.2649C134.356 25.5442 135.036 23.0502 135.943 21.0853C136.774 19.1203 137.983 17.8356 138.89 17.0043C139.343 16.6264 139.721 16.3241 140.023 16.2485C140.325 16.0974 140.401 16.0218 140.477 16.0218C140.477 16.0974 139.948 16.3997 139.041 17.1554C138.21 17.9112 137.076 19.2715 136.245 21.2364C135.414 23.1258 134.809 25.5442 134.431 28.3404C134.053 31.0611 133.751 34.1597 132.769 37.2582C132.24 38.7697 131.56 40.2056 130.577 41.4904C129.671 42.6996 128.462 43.7576 127.177 44.2866C125.892 44.8157 124.381 44.8157 123.172 44.2866C122.567 43.9844 122.114 43.6065 121.736 43.153C121.358 42.624 121.207 42.095 121.132 41.566C120.981 40.5079 121.434 39.4499 122.19 38.9209C122.945 38.3918 123.701 38.3918 124.305 38.543C124.91 38.6941 125.288 38.9964 125.515 39.2232C125.515 39.2987 125.59 39.4499 125.59 39.4499Z" fill="#263238"/>
<path d="M166.169 51.9953C166.169 51.9197 166.622 51.7685 167.378 51.2395C168.134 50.7105 169.116 49.8036 169.947 48.5188C170.854 47.1585 171.534 45.3447 171.912 43.3042C172.214 41.1881 172.063 38.8453 171.61 36.4269C171.156 34.0085 170.476 31.7413 169.872 29.7008C169.267 27.6603 168.738 25.7709 168.436 24.1838C168.134 22.5968 167.983 21.2364 167.983 20.3295C167.983 19.8761 167.983 19.4982 167.983 19.2715C167.983 19.0448 167.983 18.8936 168.058 18.8936C168.058 18.8936 168.058 19.4226 168.134 20.3295C168.209 21.2364 168.36 22.5212 168.663 24.1083C168.965 25.6953 169.494 27.5847 170.174 29.6252C170.778 31.6657 171.534 33.9329 171.987 36.4269C172.441 38.8453 172.592 41.2637 172.29 43.4553C171.912 45.5714 171.156 47.4608 170.249 48.8211C169.343 50.1815 168.285 51.0884 167.529 51.5418C167.151 51.7685 166.849 51.9197 166.622 52.0708C166.32 51.9953 166.169 52.0708 166.169 51.9953Z" fill="#263238"/>
<path d="M167.529 47.0829C167.529 47.0829 167.454 47.1585 167.227 47.2341C167.076 47.3096 166.773 47.3852 166.396 47.4608C165.64 47.5364 164.506 47.4608 163.297 46.8562C162.088 46.2516 160.955 44.9668 160.35 43.3042C159.67 41.6415 159.595 39.601 159.746 37.6361C159.897 35.5956 160.275 33.7062 160.426 31.968C160.577 30.2298 160.728 28.6427 160.728 27.358C160.728 26.0732 160.728 24.9396 160.728 24.2594C160.728 23.5037 160.728 23.1258 160.728 23.1258C160.728 23.1258 160.804 23.5037 160.879 24.2594C160.955 25.0152 161.03 26.0732 161.03 27.358C161.03 28.7183 160.955 30.2298 160.804 31.968C160.653 33.7062 160.275 35.5956 160.124 37.6361C159.973 39.601 160.048 41.566 160.653 43.153C161.257 44.7401 162.315 46.0249 163.373 46.6295C164.506 47.3096 165.564 47.3852 166.32 47.3852C167.151 47.2341 167.529 47.0829 167.529 47.0829Z" fill="#263238"/>
<path d="M118.109 54.0358C118.109 54.0358 118.109 53.8091 118.26 53.28C118.411 52.8266 118.789 52.1464 119.545 51.6174C120.301 51.0884 121.358 50.6349 122.643 50.5594C123.928 50.4082 125.439 50.6349 127.026 50.5594C128.613 50.4082 130.351 49.8792 131.938 48.8967C133.525 47.9142 135.036 46.4783 136.169 44.7401C137.378 43.0019 138.21 40.8858 138.663 38.6186C139.192 36.3513 139.343 33.933 139.268 31.5146C139.192 29.0206 138.89 26.6778 138.814 24.335C138.663 21.9922 138.663 19.7249 139.268 17.6089C139.796 15.4928 140.93 13.679 142.441 12.3942C143.877 11.1095 145.615 10.3537 147.202 9.97584C148.789 9.67354 150.3 9.74911 151.585 10.127C152.869 10.4293 153.852 10.9583 154.607 11.4873C155.363 12.0164 155.892 12.4698 156.194 12.8477C156.345 12.9988 156.496 13.15 156.572 13.2255C156.648 13.3011 156.723 13.3767 156.648 13.3767C156.572 13.4523 155.967 12.6209 154.456 11.6385C153.701 11.185 152.718 10.656 151.434 10.3537C150.225 10.0514 148.713 9.97584 147.126 10.2781C145.539 10.5804 143.953 11.3362 142.517 12.6209C141.081 13.8301 140.023 15.6439 139.494 17.6844C138.965 19.7249 138.965 21.9922 139.116 24.335C139.268 26.6778 139.57 29.0962 139.645 31.5146C139.721 34.0085 139.57 36.4269 139.041 38.7697C138.512 41.037 137.681 43.2286 136.472 45.0424C135.263 46.8562 133.751 48.2921 132.089 49.2746C130.426 50.257 128.688 50.8616 127.026 50.9372C125.363 51.0128 123.928 50.7861 122.643 50.9372C121.358 51.0128 120.301 51.3907 119.62 51.9197C118.865 52.4487 118.487 53.0533 118.336 53.5068C118.185 53.7335 118.185 54.0358 118.109 54.0358Z" fill="#455A64"/>
<path d="M156.043 7.55741C156.043 7.48184 156.421 7.70856 156.799 8.16201C157.176 8.61546 157.63 9.3712 157.705 10.3537C157.781 11.3361 157.479 12.1675 157.176 12.6965C156.874 13.2255 156.572 13.4522 156.496 13.3767C156.421 13.3011 156.648 13.0744 156.95 12.5453C157.176 12.0163 157.403 11.2606 157.328 10.4292C157.252 9.59792 156.874 8.84218 156.572 8.38873C156.27 7.78414 155.967 7.55741 156.043 7.55741Z" fill="#455A64"/>
<path d="M171.081 27.1313C171.081 27.1313 171.005 26.829 170.854 26.2244C170.703 25.6198 170.552 24.7885 170.325 23.7304C170.098 22.6724 169.796 21.3876 169.418 20.0273C169.191 19.3471 169.04 18.5913 168.738 17.9112C168.511 17.1554 168.134 16.4753 167.68 15.7951C166.698 14.5103 165.413 13.5279 164.129 12.9988C162.844 12.4698 161.484 12.4698 160.426 12.621C159.368 12.8477 158.612 13.2256 158.083 13.5278C157.554 13.8301 157.328 14.1324 157.328 14.0569C157.328 14.0569 157.403 13.9813 157.479 13.8301C157.554 13.679 157.781 13.5279 158.008 13.3767C158.461 12.9988 159.292 12.5454 160.35 12.3187C161.408 12.0919 162.844 12.0919 164.204 12.621C165.564 13.15 166.924 14.1324 167.982 15.5684C168.511 16.2485 168.889 17.0043 169.116 17.76C169.343 18.5158 169.569 19.2715 169.796 19.9517C170.174 21.3876 170.4 22.5968 170.627 23.7304C170.854 24.7885 170.929 25.6953 171.005 26.2999C171.156 26.7534 171.156 27.1313 171.081 27.1313Z" fill="#455A64"/>
<path d="M156.799 13.6034C156.799 13.6789 155.816 13.4522 154.381 12.9988C153.625 12.7721 152.794 12.4698 151.811 12.3942C150.829 12.243 149.696 12.3186 148.638 12.7721C147.58 13.1499 146.673 13.8301 146.068 14.5858C145.464 15.3416 145.086 16.1729 144.859 16.8531C144.406 18.289 144.633 19.2715 144.557 19.2715C144.557 19.2715 144.482 19.0447 144.406 18.5913C144.406 18.1378 144.406 17.5332 144.557 16.7775C144.708 16.0218 145.086 15.1149 145.766 14.3591C146.446 13.5278 147.353 12.8476 148.487 12.3942C149.62 11.9407 150.829 11.8652 151.811 12.0919C152.869 12.243 153.701 12.5453 154.456 12.8476C155.892 13.3011 156.799 13.6034 156.799 13.6034Z" fill="#455A64"/>
<path d="M308.912 269.877C309.592 267.534 311.028 265.342 313.219 264.36C315.486 263.377 318.207 263.906 320.549 264.813C322.892 265.644 325.234 266.854 327.728 267.005C330.222 267.156 333.093 265.947 333.773 263.604C334.453 261.337 333.093 258.918 331.431 257.331C327.879 253.93 322.514 252.419 317.678 253.628C312.842 254.762 308.761 258.54 307.099 263.226" fill="#666666"/>
<path d="M289.114 279.928C285.411 276.452 285.638 270.33 287.452 265.644C289.265 260.883 293.27 257.256 297.728 254.913C306.419 250.303 317.224 249.925 326.141 254.006C321.758 254.157 317.527 256.651 315.26 260.43C313.219 263.755 312.766 267.836 311.104 271.388C309.214 275.318 305.814 278.492 301.809 280.079C297.804 281.591 293.119 281.591 289.114 279.928Z" fill="#999999"/>
<path d="M287.301 258.994C283.22 254.157 282.691 246.448 283.296 240.251C283.9 233.979 285.336 227.706 284.354 221.433C283.749 217.73 282.313 214.254 281.86 210.551C281.407 206.847 282.087 202.691 284.958 200.272C288.283 197.552 293.422 198.156 296.898 200.726C300.298 203.295 302.338 207.376 303.774 211.382C306.948 220.224 308.157 230.049 305.512 239.118C302.867 248.187 296.746 256.273 287.754 258.994" fill="#999999"/>
<path d="M285.336 298.368C285.336 298.368 285.336 298.141 285.336 297.839C285.336 297.461 285.336 296.932 285.336 296.252C285.412 294.892 285.487 292.851 285.789 290.433C286.092 288.014 286.545 285.067 287.376 281.893C288.132 278.719 289.416 275.318 291.23 271.993C293.044 268.667 295.311 265.871 297.578 263.528C299.845 261.185 302.187 259.372 304.227 258.011C305.21 257.331 306.192 256.802 307.099 256.273C307.93 255.82 308.761 255.442 309.366 255.14C309.97 254.913 310.424 254.686 310.802 254.535C311.104 254.384 311.331 254.308 311.331 254.384C311.331 254.384 311.179 254.459 310.877 254.61C310.499 254.762 310.046 254.988 309.441 255.291C308.837 255.593 308.081 255.971 307.25 256.5C306.419 257.029 305.436 257.558 304.454 258.238C302.414 259.598 300.147 261.488 297.88 263.831C295.613 266.173 293.421 268.97 291.608 272.295C287.905 278.87 286.847 285.747 286.092 290.508C285.714 292.927 285.563 294.892 285.487 296.328C285.411 297.008 285.412 297.537 285.412 297.915C285.412 298.217 285.412 298.368 285.336 298.368Z" fill="#666666"/>
<path d="M250.273 240.025C242.717 244.559 242.792 248.716 244.001 252.57C245.286 256.5 249.896 259.221 253.674 257.709C255.865 256.878 257.377 254.988 258.737 253.099C260.097 251.21 261.306 249.169 263.195 247.809C265.084 246.448 267.805 245.919 269.694 247.28" fill="#666666"/>
<path d="M244.606 245.013C246.571 242.292 251.407 241.536 254.505 242.896C257.603 244.257 259.795 246.977 261.835 249.623C263.875 252.268 265.84 255.14 268.56 257.029C271.356 258.918 275.21 259.598 278.006 257.709C279.82 256.5 280.877 254.308 281.255 252.117C281.558 249.925 281.255 247.733 280.802 245.542C280.122 242.367 279.064 239.118 276.495 237.077C273.699 234.81 269.769 234.734 266.142 234.886C261.986 235.037 257.83 235.339 253.976 236.775C250.198 238.135 246.268 241.234 244.606 245.013Z" fill="#999999"/>
<path d="M279.139 292.322C279.139 292.322 279.139 292.095 279.064 291.642C279.064 291.189 278.988 290.584 278.988 289.753C278.913 288.09 278.837 285.747 278.762 282.875C278.686 280.004 278.535 276.527 278.308 272.673C278.082 268.819 277.779 264.662 277.25 260.279C276.948 258.087 276.646 255.971 276.041 254.006C275.437 252.041 274.606 250.152 273.774 248.489C272.036 245.088 269.845 242.367 267.729 240.403C265.613 238.438 263.573 237.228 262.137 236.548C261.382 236.17 260.853 235.944 260.399 235.792C260.021 235.641 259.795 235.566 259.795 235.566C259.795 235.566 260.021 235.641 260.399 235.717C260.777 235.868 261.382 236.019 262.137 236.397C263.649 237.077 265.689 238.211 267.88 240.176C270.072 242.141 272.263 244.861 274.077 248.262C274.983 250 275.815 251.814 276.419 253.855C277.024 255.895 277.401 258.011 277.704 260.203C278.308 264.586 278.535 268.819 278.762 272.673C278.988 276.527 279.064 279.928 279.139 282.875C279.215 285.747 279.215 288.09 279.215 289.753C279.215 290.508 279.215 291.189 279.215 291.642C279.139 292.095 279.139 292.322 279.139 292.322Z" fill="#666666"/>
<path d="M281.784 295.723C281.784 295.723 281.331 294.589 280.953 292.473C280.575 290.357 280.273 287.259 280.575 283.404C280.877 279.55 281.86 275.091 283.447 270.254C284.958 265.418 287.074 260.203 288.887 254.686C289.794 251.89 290.55 249.169 291.079 246.448C291.608 243.728 291.91 241.083 292.137 238.589C292.59 233.525 292.514 228.991 292.363 225.136C292.212 221.282 292.061 218.184 291.91 216.067C291.834 215.009 291.834 214.178 291.759 213.574C291.759 213.347 291.759 213.12 291.759 212.893C291.759 212.742 291.759 212.667 291.759 212.667C291.759 212.667 291.759 212.742 291.759 212.893C291.759 213.045 291.834 213.271 291.834 213.498C291.91 214.103 291.985 214.934 292.061 215.992C292.212 218.108 292.439 221.207 292.666 225.061C292.817 228.915 292.892 233.45 292.514 238.589C292.288 241.158 291.985 243.803 291.457 246.524C290.928 249.245 290.172 252.041 289.265 254.837C287.452 260.43 285.336 265.569 283.824 270.406C282.237 275.242 281.255 279.701 280.877 283.48C280.499 287.259 280.726 290.433 281.104 292.549C281.255 293.607 281.482 294.438 281.633 294.967C281.709 295.194 281.709 295.421 281.784 295.572C281.784 295.647 281.86 295.723 281.784 295.723Z" fill="#666666"/>
<path d="M300.449 299.124H265.16L264.329 292.322H300.449V299.124Z" fill="#666666"/>
<path d="M268.938 298.368L273.321 318.773H292.59L296.671 298.368H268.938Z" fill="#666666"/>
<path d="M300.449 299.124C300.449 299.199 292.666 299.275 283.069 299.275C273.472 299.275 265.689 299.124 265.689 299.048C265.689 298.973 273.472 298.897 283.069 298.897C292.741 298.897 300.449 299.048 300.449 299.124Z" fill="#999999"/>
<path d="M294.404 309.251C294.328 309.326 293.346 308.268 291.306 307.513C290.248 307.135 288.963 306.757 287.527 306.757C286.091 306.681 284.505 307.059 282.918 307.588C281.331 308.117 279.82 308.797 278.308 309.1C276.797 309.402 275.437 309.402 274.303 309.251C273.17 309.1 272.339 308.722 271.734 308.42C271.432 308.268 271.281 308.117 271.129 308.042C270.978 307.966 270.903 307.89 270.978 307.89C270.978 307.815 272.112 308.722 274.379 309.024C275.437 309.175 276.797 309.175 278.233 308.797C279.668 308.42 281.18 307.815 282.767 307.286C284.353 306.757 286.016 306.379 287.527 306.455C289.039 306.53 290.399 306.832 291.381 307.286C292.439 307.739 293.195 308.268 293.648 308.646C293.875 308.873 294.101 309.024 294.177 309.1C294.404 309.175 294.404 309.175 294.404 309.251Z" fill="#999999"/>
<path d="M294.177 310.611C294.102 310.687 293.195 309.704 291.154 308.873C290.172 308.495 288.888 308.117 287.527 308.117C286.092 308.117 284.58 308.42 283.069 308.949C281.482 309.478 280.046 310.082 278.686 310.46C277.326 310.838 275.966 310.989 274.908 310.914C273.774 310.838 272.943 310.536 272.414 310.233C272.112 310.082 271.961 309.931 271.81 309.855C271.659 309.78 271.583 309.704 271.659 309.704C271.659 309.704 271.961 309.855 272.49 310.082C273.019 310.309 273.85 310.611 274.908 310.611C275.966 310.687 277.25 310.536 278.611 310.082C279.971 309.704 281.407 309.1 282.993 308.571C284.58 308.042 286.167 307.739 287.603 307.739C289.039 307.815 290.323 308.117 291.381 308.571C292.364 309.024 293.119 309.553 293.573 309.931C293.799 310.158 293.95 310.309 294.102 310.384C294.102 310.536 294.177 310.536 294.177 310.611Z" fill="white"/>
<path d="M294.782 307.891C294.706 307.966 293.724 306.908 291.608 306.001C290.55 305.548 289.265 305.17 287.754 305.094C286.243 305.019 284.58 305.397 282.993 305.926C281.331 306.455 279.82 307.135 278.233 307.437C276.722 307.739 275.286 307.664 274.152 307.437C273.019 307.21 272.112 306.908 271.507 306.606C271.205 306.455 270.979 306.304 270.903 306.228C270.752 306.152 270.676 306.077 270.676 306.077C270.676 306.077 270.979 306.228 271.583 306.53C272.188 306.757 273.019 307.059 274.152 307.21C275.286 307.362 276.646 307.437 278.157 307.135C279.593 306.833 281.18 306.152 282.842 305.548C284.505 304.943 286.243 304.565 287.754 304.716C289.341 304.792 290.626 305.245 291.683 305.774C292.741 306.228 293.497 306.833 294.026 307.21C294.253 307.437 294.479 307.588 294.555 307.739C294.706 307.815 294.782 307.891 294.782 307.891Z" fill="white"/>
<path d="M47.6818 286.125C46.1704 288.317 43.2234 287.561 41.7876 286.276C40.4275 284.916 39.8229 283.027 39.294 281.213C38.0849 276.981 36.8759 272.597 37.7827 268.365C38.0849 267.08 38.5383 265.796 39.4451 264.889C40.3519 263.906 41.7121 263.377 42.9967 263.679C44.508 264.057 45.4148 265.569 46.0949 266.929C48.0596 271.01 49.1175 275.545 49.1175 280.079C49.1175 282.195 48.8908 284.387 47.6818 286.125Z" fill="#FCE001"/>
<g opacity="0.2">
<g opacity="0.2">
<g opacity="0.2">
<path opacity="0.2" d="M47.6818 286.125C46.1704 288.317 43.2234 287.561 41.7876 286.276C40.4275 284.916 39.8229 283.027 39.294 281.213C38.0849 276.981 36.8759 272.597 37.7827 268.365C38.0849 267.08 38.5383 265.796 39.4451 264.889C40.3519 263.906 41.7121 263.377 42.9967 263.679C44.508 264.057 45.4148 265.569 46.0949 266.929C48.0596 271.01 49.1175 275.545 49.1175 280.079C49.1175 282.195 48.8908 284.387 47.6818 286.125Z" fill="black"/>
</g>
</g>
</g>
<path d="M42.0144 297.159C39.5207 295.874 36.5736 295.723 33.8533 296.176C32.342 296.403 30.8307 296.857 29.7727 297.99C28.7904 299.124 28.5637 301.089 29.6972 301.996C30.3773 302.6 31.3596 302.676 32.2664 302.676C34.4578 302.676 36.8003 302.298 38.5384 303.583C39.5207 304.339 40.2008 305.548 41.3343 305.926C42.4678 306.303 43.8279 305.623 44.4325 304.565C45.037 303.507 45.037 302.222 44.8103 301.013C44.8103 301.013 44.508 298.444 42.0144 297.159Z" fill="#FCE001"/>
<path d="M51.9136 289.299C50.2511 287.334 49.9488 284.462 50.7045 282.044C51.4602 279.55 53.1226 277.51 55.0117 275.771C57.2787 273.731 59.9235 272.219 62.7194 271.237C63.8529 270.859 64.9864 270.557 66.1955 270.632C67.4045 270.708 68.538 271.312 69.1425 272.371C69.9737 273.958 69.1425 275.771 68.3113 277.358C66.8 280.079 65.1375 282.649 63.2484 285.067C61.7371 287.032 59.9991 288.997 57.6565 289.828C55.314 290.735 52.8959 290.584 51.6869 288.997" fill="#FCE001"/>
<path d="M47.833 319C47.833 319 47.7574 318.622 47.6819 318.017C47.6063 317.262 47.5308 316.43 47.4552 315.297C47.3041 314.163 47.1529 312.803 46.8507 311.367C46.5484 309.931 46.0194 308.344 45.4149 306.681C44.7348 305.094 43.9792 303.583 42.9968 302.449C42.09 301.316 40.9565 300.409 39.9742 299.955C38.9918 299.426 38.0851 299.275 37.405 299.199C36.8004 299.124 36.4226 299.048 36.4226 299.048C36.4226 299.048 36.8004 299.048 37.405 299.048C38.0095 299.124 38.9918 299.275 40.0498 299.728C41.1077 300.182 42.2412 301.089 43.2235 302.222C44.2059 303.432 45.0371 304.868 45.7172 306.53C46.3973 308.193 46.8507 309.78 47.1529 311.291C47.4552 312.803 47.6063 314.163 47.6819 315.297C47.7574 316.43 47.833 317.337 47.833 318.017C47.833 318.622 47.833 319 47.833 319Z" fill="#263238"/>
<path d="M47.6064 316.884C47.6064 316.884 47.6064 316.733 47.6064 316.43C47.6064 316.053 47.6064 315.675 47.6064 315.146C47.6064 314.012 47.6064 312.349 47.5308 310.309C47.4552 306.228 47.0774 300.635 46.3973 294.438C45.7172 288.241 44.8104 282.724 43.9792 278.719C43.7525 277.736 43.6014 276.829 43.3747 275.998C43.2235 275.242 43.0724 274.562 42.9213 273.958C42.7702 273.429 42.6946 273.051 42.619 272.673C42.5435 272.37 42.5435 272.219 42.5435 272.219C42.5435 272.219 42.619 272.37 42.6946 272.673C42.7702 272.975 42.9213 273.429 43.0724 273.958C43.2235 274.487 43.4502 275.167 43.6014 275.998C43.8281 276.754 44.0548 277.661 44.2059 278.643C45.1127 282.649 46.0195 288.166 46.7751 294.363C47.4552 300.56 47.7575 306.152 47.7575 310.233C47.7575 312.274 47.7575 313.936 47.6819 315.07C47.6819 315.599 47.6064 316.053 47.6064 316.355C47.6819 316.733 47.6064 316.884 47.6064 316.884Z" fill="#263238"/>
<path d="M47.6062 306.001C47.6062 306.001 47.6062 305.548 47.6062 304.641C47.6818 303.734 47.7573 302.449 48.0596 300.938C48.2863 299.351 48.6641 297.537 49.2686 295.496C49.7976 293.456 50.5533 291.34 51.5356 289.072C53.4248 284.614 55.994 280.986 58.1854 278.719C58.7143 278.114 59.3189 277.661 59.7723 277.283C59.999 277.056 60.2257 276.905 60.4524 276.754C60.6791 276.603 60.9058 276.452 61.0569 276.3C61.8125 275.771 62.1904 275.545 62.1904 275.545C62.2659 275.62 60.5279 276.603 58.4121 278.945C56.2962 281.213 53.8026 284.84 51.9134 289.224C50.9311 291.415 50.1754 293.607 49.6465 295.572C49.0419 297.537 48.6641 299.426 48.3619 300.938C48.0596 302.449 47.9085 303.734 47.8329 304.641C47.6818 305.548 47.6062 306.001 47.6062 306.001Z" fill="#263238"/>
</svg>
