<svg width="60" height="60" viewBox="0 0 60 60" fill="none" xmlns="http://www.w3.org/2000/svg">
<rect width="60" height="60" rx="30" fill="#4E7DB2"/>
<g clip-path="url(#clip0)">
<path d="M37.915 31.028C37.527 30.538 37.638 30.32 37.915 29.882C37.92 29.877 41.123 25.451 41.453 23.95L41.455 23.949C41.619 23.402 41.455 23 40.662 23H38.038C37.37 23 37.062 23.345 36.897 23.731C36.897 23.731 35.561 26.929 33.671 29.002C33.061 29.601 32.779 29.793 32.446 29.793C32.282 29.793 32.027 29.601 32.027 29.054V23.949C32.027 23.293 31.84 23 31.287 23H27.161C26.742 23 26.493 23.306 26.493 23.591C26.493 24.213 27.438 24.356 27.536 26.106V29.903C27.536 30.735 27.385 30.888 27.05 30.888C26.158 30.888 23.993 27.677 22.71 24.002C22.451 23.289 22.198 23.001 21.525 23.001H18.9C18.151 23.001 18 23.346 18 23.732C18 24.414 18.892 27.805 22.148 32.285C24.318 35.343 27.374 37 30.154 37C31.825 37 32.029 36.632 32.029 35.999C32.029 33.077 31.878 32.801 32.715 32.801C33.103 32.801 33.771 32.993 35.331 34.468C37.114 36.217 37.407 37 38.405 37H41.029C41.777 37 42.156 36.632 41.938 35.906C41.439 34.379 38.067 31.238 37.915 31.028Z" fill="white"/>
</g>
<defs>
<clipPath id="clip0">
<rect width="24" height="24" fill="white" transform="translate(18 18)"/>
</clipPath>
</defs>
</svg>
